<svg width="164" height="56" viewBox="0 0 164 56" fill="none" xmlns="http://www.w3.org/2000/svg">
<g clip-path="url(#clip0_957_5490)">
<path d="M149.682 1.00018H13.8718C13.3768 1.00018 12.8877 1.00018 12.3939 1.00288C11.9806 1.00558 11.5706 1.01342 11.1534 1.02002C10.2468 1.03069 9.34247 1.11044 8.44808 1.25858C7.55496 1.40994 6.68981 1.69531 5.8819 2.10503C5.07497 2.51821 4.33767 3.0551 3.69672 3.69622C3.05241 4.33554 2.51533 5.0745 2.10612 5.88469C1.69579 6.69327 1.41126 7.55974 1.26237 8.45417C1.11206 9.34748 1.03118 10.2511 1.02045 11.1569C1.00792 11.5708 1.0066 11.9861 1 12.4V43.6043C1.0066 44.0235 1.00792 44.4295 1.02045 44.8488C1.03119 45.7546 1.11207 46.6582 1.26237 47.5514C1.41085 48.4464 1.6954 49.3133 2.10612 50.1222C2.51514 50.9298 3.0523 51.6658 3.69672 52.3015C4.33524 52.9455 5.07302 53.4827 5.8819 53.8928C6.6898 54.3036 7.55486 54.5907 8.44808 54.7444C9.34262 54.8913 10.2469 54.9711 11.1534 54.983C11.5706 54.9922 11.9806 54.9975 12.3939 54.9975C12.8877 55.0002 13.3768 55.0002 13.8718 55.0002H149.682C150.167 55.0002 150.66 55.0002 151.145 54.9975C151.557 54.9975 151.979 54.9922 152.39 54.983C153.295 54.9717 154.197 54.8919 155.09 54.7444C155.986 54.5896 156.854 54.3026 157.666 53.8928C158.474 53.4825 159.211 52.9453 159.849 52.3015C160.492 51.6633 161.03 50.9278 161.444 50.1222C161.852 49.3127 162.134 48.4458 162.28 47.5514C162.431 46.658 162.514 45.7547 162.531 44.8488C162.536 44.4295 162.536 44.0235 162.536 43.6043C162.547 43.1138 162.546 42.6261 162.546 42.1277V13.874C162.546 13.3796 162.547 12.8891 162.536 12.4C162.536 11.9861 162.536 11.5708 162.531 11.1568C162.514 10.2509 162.431 9.34754 162.28 8.45412C162.133 7.56021 161.852 6.6938 161.444 5.88464C160.611 4.26069 159.29 2.93881 157.666 2.10491C156.854 1.69619 155.986 1.4109 155.09 1.25846C154.197 1.10966 153.295 1.02989 152.39 1.01983C151.979 1.01324 151.557 1.00533 151.145 1.0027C150.66 1 150.167 1.00018 149.682 1.00018Z" fill="#A6A6A6"/>
<path d="M12.4016 53.8191C11.9903 53.8191 11.5889 53.8139 11.1809 53.8047C10.3355 53.7937 9.49204 53.7201 8.65751 53.5845C7.87936 53.4505 7.12554 53.2012 6.42091 52.8448C5.72275 52.4914 5.08597 52.0281 4.53497 51.4724C3.97598 50.9234 3.51061 50.2865 3.15728 49.5872C2.80005 48.8833 2.55283 48.1288 2.42423 47.3499C2.28534 46.5131 2.2102 45.6669 2.19945 44.8187C2.19089 44.534 2.17969 43.586 2.17969 43.586V12.4002C2.17969 12.4002 2.19162 11.4668 2.19952 11.1926C2.20981 10.3457 2.28452 9.50087 2.42298 8.66533C2.55183 7.88438 2.79924 7.1277 3.15666 6.42149C3.50869 5.72261 3.97148 5.0853 4.52709 4.53426C5.08208 3.97798 5.7209 3.51221 6.42025 3.15392C7.12326 2.79872 7.87565 2.55118 8.65223 2.41961C9.4895 2.28267 10.3358 2.20864 11.1842 2.19812L12.4023 2.18164H151.14L152.373 2.19879C153.213 2.20877 154.052 2.28215 154.881 2.41828C155.666 2.55151 156.426 2.80077 157.137 3.15788C158.538 3.87992 159.678 5.02226 160.397 6.42479C160.749 7.12612 160.993 7.87662 161.12 8.65083C161.26 9.49323 161.338 10.3447 161.354 11.1986C161.358 11.5809 161.358 11.9916 161.358 12.4002C161.369 12.9065 161.369 13.3884 161.369 13.8742V42.1279C161.369 42.6183 161.369 43.0969 161.358 43.5794C161.358 44.0184 161.358 44.4206 161.353 44.8345C161.337 45.6731 161.26 46.5094 161.122 47.3367C160.996 48.1211 160.751 48.8815 160.393 49.5912C160.038 50.283 159.575 50.9143 159.022 51.4619C158.471 52.0205 157.833 52.4866 157.133 52.8423C156.424 53.2014 155.665 53.4516 154.881 53.5845C154.047 53.7208 153.203 53.7944 152.358 53.8047C151.963 53.8139 151.548 53.8191 151.146 53.8191L149.683 53.8218L12.4016 53.8191Z" fill="black"/>
<path d="M34.4373 28.4056C34.4518 27.2788 34.7511 26.174 35.3074 25.194C35.8636 24.214 36.6587 23.3905 37.6187 22.8004C37.0088 21.9294 36.2043 21.2126 35.269 20.707C34.3337 20.2013 33.2933 19.9207 32.2306 19.8875C29.9636 19.6495 27.7659 21.244 26.6107 21.244C25.4331 21.244 23.6545 19.9111 21.7392 19.9505C20.5003 19.9905 19.293 20.3508 18.2347 20.9962C17.1765 21.6416 16.3035 22.5501 15.7008 23.6331C13.0899 28.1535 15.0374 34.7969 17.5384 38.4509C18.7897 40.2401 20.2521 42.2387 22.1657 42.1678C24.0382 42.0901 24.7376 40.9738 26.9979 40.9738C29.2372 40.9738 29.8933 42.1678 31.8457 42.1227C33.855 42.0901 35.121 40.3256 36.3284 38.5194C37.2275 37.2445 37.9193 35.8355 38.3783 34.3445C37.2109 33.8508 36.2147 33.0243 35.5139 31.9682C34.8131 30.9121 34.4387 29.6731 34.4373 28.4056Z" fill="white"/>
<path d="M30.75 17.4838C31.8456 16.1686 32.3853 14.4782 32.2546 12.7715C30.5809 12.9473 29.0348 13.7472 27.9244 15.012C27.3815 15.6298 26.9657 16.3486 26.7008 17.1272C26.4359 17.9059 26.327 18.7291 26.3804 19.5498C27.2176 19.5585 28.0458 19.377 28.8027 19.0191C29.5596 18.6613 30.2254 18.1363 30.75 17.4838Z" fill="white"/>
<path d="M58.1078 37.6374H51.7177L50.1832 42.1686H47.4766L53.5292 25.4043H56.3412L62.3938 42.1686H59.641L58.1078 37.6374ZM52.3795 35.5465H57.4447L54.9478 28.1927H54.8779L52.3795 35.5465Z" fill="white"/>
<path d="M75.4664 36.0585C75.4664 39.8567 73.4335 42.2969 70.3657 42.2969C69.5885 42.3376 68.8157 42.1586 68.1355 41.7804C67.4554 41.4022 66.8955 40.8401 66.52 40.1585H66.462V46.2125H63.9531V29.9465H66.3816V31.9795H66.4277C66.8205 31.3011 67.3898 30.742 68.0752 30.3615C68.7605 29.981 69.5361 29.7934 70.3195 29.8187C73.4216 29.8187 75.4664 32.2708 75.4664 36.0585ZM72.8877 36.0585C72.8877 33.5839 71.6089 31.957 69.6577 31.957C67.7408 31.957 66.4514 33.6182 66.4514 36.0585C66.4514 38.5212 67.7408 40.1704 69.6577 40.1704C71.6089 40.1704 72.8877 38.5554 72.8877 36.0585Z" fill="white"/>
<path d="M88.9195 36.0585C88.9195 39.8567 86.8866 42.2969 83.8188 42.2969C83.0417 42.3376 82.2688 42.1586 81.5887 41.7804C80.9085 41.4022 80.3487 40.8401 79.9731 40.1585H79.9151V46.2124H77.4062V29.9465H79.8347V31.9794H79.8808C80.2736 31.3011 80.8429 30.742 81.5282 30.3615C82.2135 29.981 82.9892 29.7934 83.7726 29.8187C86.8747 29.8187 88.9195 32.2708 88.9195 36.0585ZM86.3408 36.0585C86.3408 33.5839 85.062 31.957 83.1108 31.957C81.1939 31.957 79.9046 33.6182 79.9046 36.0585C79.9046 38.5212 81.1939 40.1704 83.1108 40.1704C85.062 40.1704 86.3408 38.5554 86.3408 36.0585Z" fill="white"/>
<path d="M97.8104 37.4979C97.9963 39.1603 99.6113 40.2519 101.818 40.2519C103.933 40.2519 105.454 39.1603 105.454 37.6613C105.454 36.3601 104.537 35.5809 102.364 35.047L100.191 34.5236C97.113 33.78 95.6839 32.3404 95.6839 30.0043C95.6839 27.1118 98.2046 25.125 101.784 25.125C105.326 25.125 107.755 27.1118 107.837 30.0043H105.304C105.152 28.3312 103.769 27.3214 101.748 27.3214C99.7273 27.3214 98.3443 28.3431 98.3443 29.8302C98.3443 31.0154 99.2276 31.7129 101.388 32.2467L103.235 32.7003C106.675 33.5137 108.104 34.8954 108.104 37.3475C108.104 40.4838 105.606 42.4482 101.632 42.4482C97.9145 42.4482 95.4043 40.53 95.2422 37.4977L97.8104 37.4979Z" fill="white"/>
<path d="M113.517 27.0547V29.9472H115.841V31.9339H113.517V38.6721C113.517 39.7188 113.982 40.2066 115.004 40.2066C115.28 40.2018 115.555 40.1825 115.829 40.1486V42.1235C115.37 42.2093 114.903 42.2482 114.435 42.2395C111.961 42.2395 110.996 41.3101 110.996 38.9397V31.9339H109.219V29.9472H110.996V27.0547H113.517Z" fill="white"/>
<path d="M117.188 36.0591C117.188 32.2134 119.452 29.7969 122.984 29.7969C126.528 29.7969 128.782 32.2134 128.782 36.0591C128.782 39.9153 126.54 42.3213 122.984 42.3213C119.43 42.3213 117.188 39.9153 117.188 36.0591ZM126.226 36.0591C126.226 33.421 125.017 31.8641 122.984 31.8641C120.951 31.8641 119.744 33.4329 119.744 36.0591C119.744 38.7077 120.951 40.2528 122.984 40.2528C125.017 40.2528 126.226 38.7077 126.226 36.0591Z" fill="white"/>
<path d="M130.852 29.9464H133.244V32.0268H133.302C133.464 31.377 133.845 30.8028 134.38 30.4007C134.916 29.9986 135.573 29.793 136.242 29.8185C136.532 29.8175 136.82 29.8489 137.102 29.9121V32.2588C136.737 32.1473 136.356 32.0961 135.975 32.1072C135.61 32.0924 135.247 32.1567 134.91 32.2956C134.572 32.4345 134.269 32.6447 134.021 32.9119C133.772 33.179 133.585 33.4968 133.471 33.8433C133.357 34.1898 133.319 34.5568 133.36 34.9193V42.1689H130.852L130.852 29.9464Z" fill="white"/>
<path d="M148.67 38.5798C148.332 40.7986 146.172 42.3213 143.407 42.3213C139.851 42.3213 137.645 39.939 137.645 36.1171C137.645 32.2833 139.863 29.7969 143.302 29.7969C146.683 29.7969 148.81 32.1198 148.81 35.8257V36.6853H140.177V36.8369C140.137 37.2867 140.194 37.7399 140.342 38.1663C140.491 38.5926 140.729 38.9825 141.04 39.3099C141.351 39.6374 141.728 39.8949 142.146 40.0654C142.564 40.2359 143.014 40.3155 143.465 40.2989C144.058 40.3545 144.653 40.2172 145.161 39.9074C145.67 39.5977 146.065 39.132 146.288 38.5798L148.67 38.5798ZM140.189 34.9319H146.3C146.322 34.5274 146.261 34.1227 146.119 33.7431C145.978 33.3634 145.76 33.0171 145.478 32.7258C145.197 32.4345 144.858 32.2046 144.484 32.0504C144.109 31.8962 143.707 31.8211 143.302 31.8298C142.893 31.8273 142.488 31.9058 142.11 32.0607C141.732 32.2156 141.388 32.4439 141.099 32.7323C140.81 33.0207 140.58 33.3636 140.424 33.7411C140.268 34.1186 140.188 34.5233 140.189 34.9319Z" fill="white"/>
<path d="M51.198 20.8422V13.9255H48.6641V12.7871H54.9778V13.9255H52.4492V20.8423L51.198 20.8422Z" fill="white"/>
<path d="M55.3633 19.1238C55.3633 18.0295 56.178 17.3987 57.6243 17.309L59.2709 17.2141V16.6894C59.2709 16.0474 58.8464 15.6848 58.0264 15.6848C57.3567 15.6848 56.8926 15.9307 56.7594 16.3605H55.5979C55.7206 15.3163 56.7027 14.6466 58.0817 14.6466C59.6058 14.6466 60.4653 15.4053 60.4653 16.6894V20.8429H59.3104V19.9886H59.2155C59.0228 20.295 58.7523 20.5449 58.4315 20.7125C58.1107 20.8802 57.7511 20.9598 57.3895 20.9431C57.1343 20.9696 56.8764 20.9424 56.6324 20.8631C56.3884 20.7839 56.1637 20.6544 55.9728 20.483C55.7819 20.3115 55.629 20.102 55.524 19.8679C55.419 19.6338 55.3643 19.3803 55.3633 19.1238ZM59.2709 18.6043V18.0961L57.7864 18.191C56.9493 18.247 56.5696 18.5318 56.5696 19.0677C56.5696 19.6148 57.0442 19.9332 57.6968 19.9332C57.888 19.9526 58.0812 19.9333 58.2648 19.8764C58.4484 19.8196 58.6187 19.7264 58.7656 19.6025C58.9124 19.4785 59.0329 19.3262 59.1197 19.1547C59.2065 18.9833 59.2579 18.7961 59.2709 18.6043ZM57.2169 11.8214C57.4718 11.7341 57.7398 11.6908 58.0092 11.6935C58.8081 11.6935 59.3263 12.1174 59.3263 12.7877C59.3033 13.0868 59.1888 13.3716 58.9981 13.6033C58.8075 13.835 58.5501 14.0022 58.261 14.0824L57.8022 13.4911C58.1661 13.3737 58.4219 13.1338 58.4219 12.8932C58.4219 12.648 58.182 12.4693 57.8418 12.4693C57.6275 12.4634 57.4145 12.5034 57.2169 12.5866L57.2169 11.8214Z" fill="white"/>
<path d="M62.1889 12.966C62.1796 12.8106 62.2172 12.656 62.2969 12.5223C62.3765 12.3885 62.4944 12.2817 62.6354 12.2158C62.7764 12.1498 62.934 12.1277 63.0877 12.1524C63.2414 12.177 63.3841 12.2472 63.4975 12.3539C63.6108 12.4606 63.6895 12.5989 63.7234 12.7508C63.7572 12.9027 63.7446 13.0613 63.6873 13.2061C63.63 13.3508 63.5305 13.4749 63.4018 13.5625C63.2731 13.65 63.1211 13.6969 62.9654 13.697C62.8659 13.7021 62.7664 13.687 62.6729 13.6526C62.5794 13.6183 62.4938 13.5654 62.4213 13.4971C62.3487 13.4288 62.2908 13.3465 62.2508 13.2553C62.2109 13.164 62.1898 13.0656 62.1889 12.966ZM62.3669 14.7636H63.5626V20.8425H62.3669V14.7636Z" fill="white"/>
<path d="M71.7526 20.8426H70.4633L68.2695 14.7637H69.5523L71.0658 19.5585H71.1607L72.6676 14.7637H73.9411L71.7526 20.8426Z" fill="white"/>
<path d="M80.2337 19.2006C80.0707 19.7561 79.7176 20.2367 79.2361 20.5582C78.7545 20.8797 78.1753 21.0217 77.5997 20.9592C77.1992 20.9698 76.8012 20.8931 76.4333 20.7344C76.0654 20.5758 75.7365 20.339 75.4693 20.0404C75.2021 19.7419 75.0031 19.3888 74.8861 19.0056C74.769 18.6225 74.7368 18.2184 74.7916 17.8216C74.7382 17.4235 74.771 17.0185 74.8878 16.6342C75.0046 16.2499 75.2025 15.8952 75.4683 15.594C75.7341 15.2929 76.0614 15.0524 76.4282 14.8887C76.7951 14.7251 77.1927 14.6422 77.5944 14.6456C79.2858 14.6456 80.3062 15.8012 80.3062 17.7101V18.1288H76.0137V18.196C75.9949 18.4191 76.0229 18.6436 76.096 18.8552C76.1691 19.0668 76.2855 19.2608 76.438 19.4248C76.5904 19.5888 76.7754 19.7191 76.9811 19.8074C77.1869 19.8957 77.4088 19.94 77.6326 19.9375C77.9196 19.9719 78.2103 19.9203 78.4679 19.789C78.7254 19.6578 78.9381 19.453 79.0789 19.2005L80.2337 19.2006ZM79.8105 13.9311H78.5594L77.6379 12.792H77.5496L76.628 13.9311H75.3782L76.9405 12.0835H78.247L79.8105 13.9311ZM76.0137 17.2415H79.0841C79.0992 17.0375 79.0715 16.8325 79.0027 16.6399C78.9339 16.4472 78.8256 16.271 78.6847 16.1227C78.5438 15.9744 78.3734 15.8572 78.1845 15.7787C77.9956 15.7002 77.7923 15.662 77.5878 15.6667C77.3803 15.6641 77.1744 15.7031 76.9822 15.7813C76.79 15.8595 76.6154 15.9754 76.4687 16.1222C76.322 16.2689 76.2061 16.4436 76.128 16.6358C76.0498 16.8281 76.011 17.034 76.0137 17.2415ZM79.0789 11.9324L77.8343 10.1797H79.0841L80.1506 11.9324H79.0789Z" fill="white"/>
<path d="M86.8418 13.25V14.7912H88.1589V15.8017H86.8418V18.9275C86.8418 19.5643 87.1042 19.8431 87.7014 19.8431C87.8543 19.8426 88.0071 19.8334 88.1589 19.8154V20.8147C87.9435 20.8533 87.7252 20.8739 87.5063 20.876C86.1721 20.876 85.6408 20.4067 85.6408 19.2347V15.8016H84.6758V14.7911H85.6408V13.25H86.8418Z" fill="white"/>
<path d="M89.7422 14.7628H90.8971V15.6949H90.9867C91.116 15.3713 91.3445 15.097 91.6394 14.9115C91.9343 14.7259 92.2804 14.6385 92.6281 14.6619C92.8078 14.6595 92.9872 14.6763 93.1633 14.712V15.896C92.9432 15.8489 92.7187 15.8246 92.4936 15.8235C92.2957 15.8057 92.0963 15.8295 91.9082 15.8934C91.7201 15.9573 91.5474 16.0598 91.4013 16.1944C91.2552 16.329 91.1388 16.4927 91.0597 16.6749C90.9806 16.8571 90.9404 17.0539 90.9419 17.2526V20.8418H89.7422L89.7422 14.7628Z" fill="white"/>
<path d="M99.472 19.2009C99.309 19.7565 98.9559 20.237 98.4743 20.5585C97.9928 20.88 97.4136 21.022 96.8379 20.9596C96.4375 20.9701 96.0394 20.8934 95.6716 20.7348C95.3037 20.5761 94.9748 20.3393 94.7076 20.0407C94.4404 19.7422 94.2414 19.3891 94.1243 19.0059C94.0073 18.6228 93.9751 18.2187 94.0298 17.8219C93.9765 17.4238 94.0093 17.0189 94.1261 16.6345C94.2428 16.2502 94.4408 15.8955 94.7066 15.5944C94.9724 15.2932 95.2997 15.0527 95.6665 14.889C96.0333 14.7254 96.431 14.6425 96.8327 14.6459C98.5241 14.6459 99.5445 15.8015 99.5445 17.7104V18.1291H95.252V18.1963C95.2332 18.4194 95.2612 18.6439 95.3343 18.8555C95.4073 19.0671 95.5238 19.2612 95.6762 19.4251C95.8287 19.5891 96.0137 19.7194 96.2194 19.8077C96.4251 19.896 96.647 19.9403 96.8709 19.9378C97.1579 19.9722 97.4486 19.9206 97.7061 19.7893C97.9637 19.6581 98.1763 19.4533 98.3171 19.2008L99.472 19.2009ZM99.0422 13.9314H97.8096L96.8761 12.7086H96.7878L95.8557 13.9314H94.6164L96.1787 12H97.4852L99.0422 13.9314ZM95.252 17.2418H98.3224C98.3375 17.0378 98.3098 16.8328 98.241 16.6402C98.1722 16.4475 98.0639 16.2714 97.923 16.123C97.782 15.9747 97.6117 15.8576 97.4227 15.779C97.2338 15.7005 97.0306 15.6623 96.8261 15.667C96.6186 15.6644 96.4127 15.7034 96.2205 15.7816C96.0282 15.8598 95.8537 15.9757 95.707 16.1225C95.5602 16.2692 95.4444 16.4439 95.3663 16.6361C95.2881 16.8284 95.2493 17.0343 95.252 17.2418Z" fill="white"/>
<path d="M101.156 14.762H102.311V15.7277H102.401C102.553 15.3809 102.809 15.0901 103.135 14.896C103.46 14.7018 103.837 14.614 104.215 14.6447C104.511 14.6224 104.808 14.667 105.084 14.7751C105.36 14.8833 105.608 15.0522 105.81 15.2693C106.013 15.4864 106.163 15.7463 106.251 16.0295C106.339 16.3128 106.362 16.6122 106.319 16.9056V20.8409H105.119V17.2069C105.119 16.23 104.695 15.7442 103.807 15.7442C103.607 15.7348 103.406 15.769 103.22 15.8444C103.033 15.9197 102.866 16.0345 102.728 16.1808C102.59 16.3272 102.485 16.5016 102.421 16.6921C102.357 16.8826 102.335 17.0848 102.356 17.2847V20.841H101.156V14.762Z" fill="white"/>
</g>
<defs>
<clipPath id="clip0_957_5490">
<rect width="161.546" height="54" fill="white" transform="translate(1 1)"/>
</clipPath>
</defs>
</svg>
