<svg width="183" height="56" viewBox="0 0 183 56" fill="none" xmlns="http://www.w3.org/2000/svg">
<g clip-path="url(#clip0_957_5522)">
<path d="M174.37 1.5H8.62963C4.96819 1.5 2 4.46819 2 8.12963V47.9074C2 51.5689 4.96819 54.537 8.62963 54.537H174.37C178.032 54.537 181 51.5689 181 47.9074V8.12963C181 4.46819 178.032 1.5 174.37 1.5Z" fill="black"/>
<path d="M174.37 2.56074C177.447 2.56074 179.939 5.05348 179.939 8.12963V47.9074C179.939 50.9836 177.447 53.4763 174.37 53.4763H8.62963C5.55348 53.4763 3.06074 50.9836 3.06074 47.9074V8.12963C3.06074 5.05348 5.55348 2.56074 8.62963 2.56074H174.37ZM174.37 1.5H8.62963C4.98333 1.5 2 4.48333 2 8.12963V47.9074C2 51.5537 4.98333 54.537 8.62963 54.537H174.37C178.017 54.537 181 51.5537 181 47.9074V8.12963C181 4.48333 178.017 1.5 174.37 1.5Z" fill="#A6A6A6"/>
<path d="M92.3506 30.3393C89.2346 30.3393 86.6889 32.7127 86.6889 35.9745C86.6889 39.2362 89.2346 41.6096 92.3506 41.6096C95.4665 41.6096 98.0123 39.223 98.0123 35.9745C98.0123 32.7259 95.4665 30.3393 92.3506 30.3393ZM92.3506 39.3953C90.6401 39.3953 89.1683 37.9899 89.1683 35.9745C89.1683 33.9591 90.6401 32.5536 92.3506 32.5536C94.061 32.5536 95.5328 33.9458 95.5328 35.9745C95.5328 38.0031 94.061 39.3953 92.3506 39.3953ZM79.9929 30.3393C76.877 30.3393 74.3312 32.7127 74.3312 35.9745C74.3312 39.2362 76.877 41.6096 79.9929 41.6096C83.1089 41.6096 85.6546 39.223 85.6546 35.9745C85.6546 32.7259 83.1089 30.3393 79.9929 30.3393ZM79.9929 39.3953C78.2825 39.3953 76.8107 37.9899 76.8107 35.9745C76.8107 33.9591 78.2825 32.5536 79.9929 32.5536C81.7034 32.5536 83.1752 33.9458 83.1752 35.9745C83.1752 38.0031 81.7034 39.3953 79.9929 39.3953ZM65.3017 32.0762V34.4629H71.0297C70.8573 35.8153 70.4065 36.7965 69.7303 37.4728C68.8949 38.3081 67.5955 39.223 65.3149 39.223C61.788 39.223 59.03 36.3855 59.03 32.8585C59.03 29.3316 61.788 26.4941 65.3149 26.4941C67.211 26.4941 68.6032 27.2366 69.6242 28.2045L71.3081 26.5206C69.8761 25.1549 67.98 24.1074 65.3017 24.1074C60.4753 24.1074 56.418 28.0322 56.418 32.8718C56.418 37.7114 60.4753 41.6362 65.3017 41.6362C67.9137 41.6362 69.8761 40.7876 71.4142 39.1832C72.992 37.6053 73.4826 35.3778 73.4826 33.5878C73.4826 33.0309 73.4429 32.5138 73.35 32.0895H65.3017V32.0762ZM125.379 33.9325C124.915 32.6729 123.483 30.3393 120.553 30.3393C117.623 30.3393 115.236 32.6199 115.236 35.9745C115.236 39.1302 117.623 41.6096 120.831 41.6096C123.417 41.6096 124.915 40.0318 125.525 39.1169L123.603 37.8308C122.966 38.7722 122.091 39.3953 120.831 39.3953C119.572 39.3953 118.67 38.8119 118.1 37.6849L125.645 34.569L125.393 33.9325H125.379ZM117.689 35.8153C117.623 33.6408 119.373 32.5271 120.633 32.5271C121.614 32.5271 122.449 33.0176 122.728 33.7204L117.689 35.8153ZM111.563 41.2782H114.043V24.7041H111.563V41.2782ZM107.506 31.5989H107.426C106.869 30.9359 105.809 30.3393 104.456 30.3393C101.632 30.3393 99.0465 32.8188 99.0465 36.001C99.0465 39.1832 101.632 41.6229 104.456 41.6229C105.809 41.6229 106.869 41.0262 107.426 40.3368H107.506V41.1456C107.506 43.3068 106.352 44.4604 104.496 44.4604C102.984 44.4604 102.043 43.3731 101.659 42.4582L99.4973 43.3599C100.12 44.8582 101.765 46.6879 104.496 46.6879C107.4 46.6879 109.853 44.9775 109.853 40.8141V30.684H107.506V31.5989ZM104.655 39.3953C102.945 39.3953 101.513 37.9633 101.513 36.001C101.513 34.0386 102.945 32.5668 104.655 32.5668C106.366 32.5668 107.665 34.0253 107.665 36.001C107.665 37.9766 106.339 39.3953 104.655 39.3953ZM136.994 24.7041H131.068V41.2782H133.547V34.9933H137.008C139.752 34.9933 142.444 33.0044 142.444 29.8487C142.444 26.693 139.752 24.7041 137.008 24.7041H136.994ZM137.048 32.6862H133.534V26.9979H137.048C138.904 26.9979 139.951 28.536 139.951 29.8354C139.951 31.1348 138.904 32.6729 137.048 32.6729V32.6862ZM152.349 30.3128C150.559 30.3128 148.702 31.1083 147.933 32.8453L150.134 33.7602C150.598 32.8453 151.474 32.5403 152.388 32.5403C153.661 32.5403 154.974 33.3093 154.987 34.6751V34.8474C154.536 34.5955 153.582 34.211 152.402 34.211C150.028 34.211 147.628 35.5104 147.628 37.9368C147.628 40.1511 149.564 41.5831 151.739 41.5831C153.396 41.5831 154.324 40.8406 154.894 39.9655H154.974V41.2516H157.361V34.9005C157.361 31.9569 155.16 30.3128 152.322 30.3128H152.349ZM152.044 39.3953C151.235 39.3953 150.108 38.9843 150.108 37.9899C150.108 36.717 151.513 36.2264 152.733 36.2264C153.82 36.2264 154.338 36.4651 154.987 36.7833C154.802 38.3213 153.476 39.4086 152.044 39.4086V39.3953ZM166.072 30.6708L163.235 37.8573H163.155L160.211 30.6708H157.546L161.962 40.7213L159.442 46.3034H162.028L168.83 30.6708H166.085H166.072ZM143.796 41.2782H146.276V24.7041H143.796V41.2782Z" fill="white"/>
<path d="M29.4727 27.2496L15.3516 42.2325C15.7891 43.8634 17.2742 45.0568 19.0376 45.0568C19.7404 45.0568 20.4033 44.8711 20.9735 44.5264L21.0133 44.4999L36.8979 35.3377L29.4594 27.2363L29.4727 27.2496Z" fill="#EA4335"/>
<path d="M43.7508 24.7039H43.7375L36.8825 20.7129L29.1523 27.5944L36.909 35.3511L43.7375 31.4131C44.9309 30.7634 45.7397 29.5038 45.7397 28.0585C45.7397 26.6133 44.9441 25.3536 43.7508 24.7172V24.7039Z" fill="#FBBC04"/>
<path d="M15.3513 13.8047C15.2718 14.1229 15.2188 14.4411 15.2188 14.7859V41.2646C15.2188 41.6094 15.2585 41.9276 15.3513 42.2458L29.9498 27.6474L15.3513 13.8047Z" fill="#4285F4"/>
<path d="M29.5787 28.0182L36.8846 20.7124L21.0133 11.5104C20.4431 11.1657 19.7669 10.9668 19.0376 10.9668C17.2742 10.9668 15.7891 12.1734 15.3516 13.791L29.5787 28.0049V28.0182Z" fill="#34A853"/>
<path d="M59.1607 18.9107V11.9363H56.668V10.5176H63.3374V11.9363H60.8579V18.9107H59.1607Z" fill="white"/>
<path d="M71.3337 18.9101H69.4907L68.7614 17.0008H65.4068L64.7173 18.9101H62.9141L66.1891 10.517H67.9791L71.347 18.9101H71.3337ZM68.2178 15.5953L67.0642 12.4794L65.9239 15.5953H68.2178ZM67.1703 9.52259C67.3692 9.46955 67.4753 9.38999 67.4753 9.2574C67.4753 9.16459 67.4222 9.09829 67.3161 9.03199C67.157 8.93918 66.9051 8.8994 66.5604 8.8994C66.441 8.8994 66.2687 8.8994 66.0167 8.92592L65.9504 8.34251C66.0963 8.31599 66.3747 8.30273 66.7725 8.30273C67.2366 8.30273 67.6211 8.38229 67.9261 8.52814C68.2575 8.68725 68.4299 8.91266 68.4299 9.1911C68.4432 9.58888 68.0984 9.82755 67.3824 9.92036V10.2121H66.746V9.57562C66.9581 9.5491 67.104 9.53585 67.157 9.50933L67.1703 9.52259Z" fill="white"/>
<path d="M72.4062 18.9107V10.5176H74.1034V18.9107H72.4062Z" fill="white"/>
<path d="M80.8521 18.9107V11.9363H78.3594V10.5176H85.0288V11.9363H82.5493V18.9107H80.8521Z" fill="white"/>
<path d="M86.2344 18.9107V10.5176H89.8011C90.7027 10.5176 91.3525 10.5971 91.7502 10.743C92.1613 10.8888 92.4795 11.1673 92.7314 11.5518C92.9701 11.9363 93.1027 12.3739 93.1027 12.8777C93.1027 13.5009 92.917 14.0313 92.5458 14.4423C92.1745 14.8534 91.6176 15.1053 90.8884 15.2114C91.2596 15.4235 91.5513 15.6622 91.79 15.9141C92.0287 16.166 92.3469 16.6301 92.7579 17.2798L93.7789 18.9107H91.7502L90.5304 17.0809C90.0928 16.4312 89.8011 16.0202 89.642 15.8478C89.4829 15.6754 89.3105 15.5561 89.1382 15.5031C88.9658 15.4368 88.6741 15.4102 88.2896 15.4102H87.9448V18.9107H86.2476H86.2344ZM87.9316 14.0711H89.1912C90 14.0711 90.5171 14.0313 90.716 13.965C90.9149 13.8987 91.074 13.7794 91.1933 13.607C91.3127 13.4346 91.3657 13.2225 91.3657 12.9705C91.3657 12.6921 91.2862 12.4667 91.1403 12.2811C90.9945 12.0954 90.7823 12.0026 90.5039 11.9496C90.3713 11.9363 89.9602 11.9231 89.2707 11.9231H87.9448V14.0578L87.9316 14.0711Z" fill="white"/>
<path d="M94.8945 18.9098V10.5167H101.113V11.9355H96.5917V13.7918H100.808V15.2105H96.5917V17.4911H101.285V18.9098H94.9078H94.8945ZM95.9685 10.0394L97.1751 8.35547H98.6602L99.8402 10.0394H98.5408L97.8779 9.1908L97.2547 10.0394H95.9553H95.9685Z" fill="white"/>
<path d="M102.875 18.9107V10.5176H104.519L107.953 16.1262V10.5176H109.531V18.9107H107.834L104.453 13.4346V18.9107H102.875Z" fill="white"/>
</g>
<defs>
<clipPath id="clip0_957_5522">
<rect width="179" height="53.037" fill="white" transform="translate(2 1.5)"/>
</clipPath>
</defs>
</svg>
