<svg width="250" height="169" viewBox="0 0 250 169" fill="none" xmlns="http://www.w3.org/2000/svg">
<path d="M189.458 34.6281C171.061 -9.79381 106.672 -13.2893 76.568 34.7152C9.07063 23.5466 8.99681 115.653 69.5264 115.653C86.2508 143.596 120.888 156.235 153.501 132.591C187.786 146.921 215.528 129.53 218.037 107.319C268.938 102.234 258.779 8.19551 189.458 34.6281Z" fill="url(#paint0_linear_957_5241)"/>
<ellipse cx="41" cy="142.5" rx="17" ry="17.5" fill="url(#paint1_linear_957_5241)"/>
<ellipse cx="9" cy="160.5" rx="9" ry="8.5" fill="url(#paint2_linear_957_5241)"/>
<path d="M55.0164 69.2812V66.8594H66.5984V69.2812H62.2625V81H59.3523V69.2812H55.0164ZM70.4469 74.8672V81H67.5562V66.8594H70.3687V72.25H70.4859C70.9742 71.0195 72.0484 70.2578 73.65 70.2578C75.857 70.2578 77.3219 71.7422 77.3219 74.2422V81H74.4312V74.75C74.4312 73.4414 73.7281 72.6602 72.5172 72.6602C71.3062 72.6602 70.4469 73.4609 70.4469 74.8672ZM83.5531 81.2148C80.3109 81.2148 78.3187 79.1055 78.3187 75.7461C78.3187 72.4648 80.3305 70.2578 83.4359 70.2578C86.2289 70.2578 88.4164 72.0156 88.4164 75.6289V76.4492H81.1703C81.1703 78.0508 82.1273 79.0469 83.6117 79.0469C84.5883 79.0469 85.2914 78.6172 85.5844 77.9727H88.3383C87.9281 79.9258 86.1703 81.2148 83.5531 81.2148ZM79.7836 69.2227L82.557 67.0547H84.1391L86.9516 69.2227H84.8227L83.3578 68.0508L81.893 69.2227H79.7836ZM86.2094 67.9922L87.8305 65.4141H90.0961L87.8695 67.9922H86.2094ZM81.1703 74.6328H85.682C85.682 73.3438 84.7836 72.4258 83.4945 72.4258C82.1664 72.4258 81.2191 73.4121 81.1703 74.6328ZM98.0078 85.1992C95.0781 85.1992 93.2812 83.8906 93.1055 81.8789H95.957C96.1133 82.7188 96.9141 83.1094 98.0664 83.1094C99.4141 83.1094 100.312 82.543 100.312 81.0586V79.125H100.176C99.7852 79.9844 98.8477 80.8438 97.1484 80.8438C94.7461 80.8438 92.832 79.1641 92.832 75.6289C92.832 72.0352 94.8047 70.2578 97.1484 70.2578C98.9258 70.2578 99.7852 71.3125 100.176 72.1719H100.293V70.3945H103.164V81.1172C103.164 83.8125 101.016 85.1992 98.0078 85.1992ZM98.0469 78.6758C99.4922 78.6758 100.312 77.543 100.312 75.668C100.312 73.7734 99.4922 72.5625 98.0469 72.5625C96.582 72.5625 95.8008 73.832 95.8008 75.668C95.8008 77.5039 96.582 78.6758 98.0469 78.6758ZM104.61 81V70.3945H107.501V81H104.61ZM106.055 69.0078C105.177 69.0078 104.473 68.3438 104.473 67.543C104.473 66.7227 105.177 66.0586 106.055 66.0586C106.915 66.0586 107.618 66.7227 107.618 67.543C107.618 68.3438 106.915 69.0078 106.055 69.0078ZM120.021 69.7695C120.021 71.3711 119.523 72.5234 118.4 73.0703C118.742 73.8418 118.927 74.7305 118.927 75.7266C118.927 79.0078 116.916 81.2148 113.712 81.2148C110.509 81.2148 108.517 79.0078 108.517 75.7266C108.517 72.4453 110.509 70.2578 113.712 70.2578C115.412 70.2578 116.769 70.873 117.677 71.918C118.146 71.5176 118.263 70.7656 118.263 69.7695H120.021ZM113.732 78.9688C115.216 78.9688 115.978 77.582 115.978 75.7266C115.978 73.8516 115.216 72.4648 113.732 72.4648C112.228 72.4648 111.447 73.8516 111.447 75.7266C111.447 77.582 112.228 78.9688 113.732 78.9688ZM112.677 69.0273L114.142 65.8828H116.837L114.728 69.0273H112.677ZM120.276 81V70.3945H123.166V81H120.276ZM121.721 69.0078C120.842 69.0078 120.139 68.3438 120.139 67.543C120.139 66.7227 120.842 66.0586 121.721 66.0586C122.58 66.0586 123.284 66.7227 123.284 67.543C123.284 68.3438 122.58 69.0078 121.721 69.0078ZM128.422 84.9844V70.3945H131.273V72.1719H131.391C131.781 71.3125 132.641 70.2578 134.418 70.2578C136.762 70.2578 138.715 72.0742 138.715 75.707C138.715 79.2422 136.84 81.1758 134.418 81.1758C132.68 81.1758 131.801 80.1797 131.391 79.3008H131.312V84.9844H128.422ZM131.254 75.6875C131.254 77.6016 132.074 78.8711 133.5 78.8711C134.984 78.8711 135.766 77.5625 135.766 75.6875C135.766 73.832 134.984 72.5625 133.5 72.5625C132.055 72.5625 131.254 73.7734 131.254 75.6875ZM142.68 74.8672V81H139.79V66.8594H142.602V72.25H142.72C143.208 71.0195 144.282 70.2578 145.884 70.2578C148.091 70.2578 149.555 71.7422 149.555 74.2422V81H146.665V74.75C146.665 73.4414 145.962 72.6602 144.751 72.6602C143.54 72.6602 142.68 73.4609 142.68 74.8672ZM155.787 81.2148C152.545 81.2148 150.552 79.1055 150.552 75.7461C150.552 72.4648 152.564 70.2578 155.67 70.2578C158.462 70.2578 160.65 72.0156 160.65 75.6289V76.4492H153.404C153.404 78.0508 154.361 79.0469 155.845 79.0469C156.822 79.0469 157.525 78.6172 157.818 77.9727H160.572C160.162 79.9258 158.404 81.2148 155.787 81.2148ZM154.556 69.0273L156.021 65.8828H158.716L156.607 69.0273H154.556ZM153.404 74.6328H157.916C157.916 73.3438 157.017 72.4258 155.728 72.4258C154.4 72.4258 153.453 73.4121 153.404 74.6328ZM161.666 84.9844V70.3945H164.518V72.1719H164.635C165.026 71.3125 165.885 70.2578 167.662 70.2578C170.006 70.2578 171.959 72.0742 171.959 75.707C171.959 79.2422 170.084 81.1758 167.662 81.1758C165.924 81.1758 165.045 80.1797 164.635 79.3008H164.557V84.9844H161.666ZM164.498 75.6875C164.498 77.6016 165.319 78.8711 166.745 78.8711C168.229 78.8711 169.01 77.5625 169.01 75.6875C169.01 73.832 168.229 72.5625 166.745 72.5625C165.299 72.5625 164.498 73.7734 164.498 75.6875ZM182.43 70.3945V72.5625H180.438V77.7383C180.438 78.5781 180.848 78.793 181.434 78.8125C181.727 78.8125 182.234 78.793 182.586 78.7539V81.0391C182.273 81.0977 181.766 81.1367 181.043 81.1367C178.953 81.1367 177.527 80.1992 177.547 78.1484V72.5625H176.082V70.3945H177.547V67.8555H180.438V70.3945H182.43ZM186.571 74.8672V81H183.68V66.8594H186.493V72.25H186.61C187.098 71.0195 188.173 70.2578 189.774 70.2578C191.981 70.2578 193.446 71.7422 193.446 74.2422V81H190.555V74.75C190.555 73.4414 189.852 72.6602 188.641 72.6602C187.43 72.6602 186.571 73.4609 186.571 74.8672ZM201.67 76.4883V70.3945H204.56V81H201.787V79.0859H201.67C201.181 80.3164 200.048 81.1367 198.447 81.1367C196.318 81.1367 194.873 79.6328 194.873 77.1523V70.3945H197.763V76.6445C197.763 77.8945 198.486 78.6953 199.619 78.6953C200.673 78.6953 201.67 77.9336 201.67 76.4883ZM211.983 69.125L210.596 67.4258L209.19 69.125H206.729V69.0273L209.502 66H211.67L214.444 69.0273V69.125H211.983ZM210.616 84.9453C209.737 84.9453 209.034 84.2812 209.034 83.4805C209.034 82.6602 209.737 81.9961 210.616 81.9961C211.475 81.9961 212.178 82.6602 212.178 83.4805C212.178 84.2812 211.475 84.9453 210.616 84.9453ZM205.498 78.0312C205.498 75.668 207.412 74.8867 209.444 74.7695C210.205 74.7207 211.631 74.6523 212.08 74.6328V73.7734C212.061 72.8945 211.455 72.3672 210.381 72.3672C209.405 72.3672 208.78 72.8164 208.623 73.5391H205.87C206.045 71.7031 207.647 70.2578 210.459 70.2578C212.764 70.2578 214.952 71.293 214.952 73.8516V81H212.217V79.5352H212.139C211.612 80.5117 210.616 81.1953 209.034 81.1953C207.002 81.1953 205.498 80.1406 205.498 78.0312ZM208.272 77.9531C208.272 78.7734 208.936 79.2031 209.854 79.2031C211.162 79.2031 212.1 78.3242 212.08 77.2109V76.4297C211.641 76.4492 210.411 76.5176 209.912 76.5664C208.916 76.6641 208.272 77.1328 208.272 77.9531ZM221.945 70.3945V72.5625H219.952V77.7383C219.952 78.5781 220.363 78.793 220.948 78.8125C221.241 78.8125 221.749 78.793 222.101 78.7539V81.0391C221.788 81.0977 221.28 81.1367 220.558 81.1367C218.468 81.1367 217.042 80.1992 217.062 78.1484V72.5625H215.597V70.3945H217.062V67.8555H219.952V70.3945H221.945Z" fill="black"/>
<defs>
<linearGradient id="paint0_linear_957_5241" x1="132.452" y1="18.5539" x2="154.803" y2="237.601" gradientUnits="userSpaceOnUse">
<stop offset="0.0671484" stop-color="#ECFAFD"/>
<stop offset="1" stop-color="#97C1FF"/>
</linearGradient>
<linearGradient id="paint1_linear_957_5241" x1="40.2372" y1="129.479" x2="48.7194" y2="181.52" gradientUnits="userSpaceOnUse">
<stop offset="0.0671484" stop-color="#ECFAFD"/>
<stop offset="1" stop-color="#97C1FF"/>
</linearGradient>
<linearGradient id="paint2_linear_957_5241" x1="8.59619" y1="154.175" x2="12.3916" y2="179.557" gradientUnits="userSpaceOnUse">
<stop offset="0.0671484" stop-color="#ECFAFD"/>
<stop offset="1" stop-color="#97C1FF"/>
</linearGradient>
</defs>
</svg>
