<svg width="228" height="147" viewBox="0 0 228 147" fill="none" xmlns="http://www.w3.org/2000/svg">
<path d="M166.651 35.1058C148.009 -9.9289 82.7611 -13.4726 52.2556 35.1941C-16.1418 23.8713 -16.2166 117.248 45.12 117.248C62.0675 145.576 97.1664 158.39 130.214 134.42C164.956 148.947 193.069 131.317 195.611 108.8C247.191 103.644 236.896 8.30855 166.651 35.1058Z" fill="url(#paint0_linear_957_5236)"/>
<path d="M36.3688 84V69.8594H41.9938C45.1188 69.8594 46.6813 71.3633 46.6813 73.4922C46.6813 75.1523 45.607 76.1875 44.1422 76.5195V76.6562C45.7438 76.7344 47.2477 78.0039 47.2477 80.0938C47.2477 82.3398 45.568 84 42.3648 84H36.3688ZM41.7789 81.5781C43.4781 81.5781 44.2008 80.875 44.2008 79.8203C44.2008 78.6289 43.3023 77.7891 41.857 77.7891H39.2984V81.5781H41.7789ZM41.5641 75.7773C42.7945 75.7773 43.7125 75.0938 43.7125 73.9609C43.7125 72.9453 42.9703 72.2422 41.6227 72.2422H39.2984V75.7773H41.5641ZM53.9086 71.8711H51.7602L51.6039 70.6211C52.5805 70.582 52.9516 70.3477 52.9516 69.9961C52.9516 69.4883 52.3656 69.3516 51.5648 69.3516L51.643 68.043C54.0844 68.043 55.3734 68.7461 55.3734 69.8984C55.3734 70.7383 54.6508 71.1484 53.9086 71.2656V71.8711ZM47.7367 81.0312C47.7367 78.668 49.6508 77.8867 51.682 77.7695C52.4438 77.7207 53.8695 77.6523 54.3188 77.6328V76.7734C54.2992 75.8945 53.6938 75.3672 52.6195 75.3672C51.643 75.3672 51.018 75.8164 50.8617 76.5391H48.1078C48.2836 74.7031 49.8852 73.2578 52.6977 73.2578C55.0023 73.2578 57.1898 74.293 57.1898 76.8516V84H54.4555V82.5352H54.3773C53.85 83.5117 52.8539 84.1953 51.2719 84.1953C49.2406 84.1953 47.7367 83.1406 47.7367 81.0312ZM50.5102 80.9531C50.5102 81.7734 51.1742 82.2031 52.0922 82.2031C53.4008 82.2031 54.3383 81.3242 54.3188 80.2109V79.4297C53.8793 79.4492 52.6488 79.5176 52.1508 79.5664C51.1547 79.6641 50.5102 80.1328 50.5102 80.9531ZM63.3625 84.2148C60.1594 84.2148 58.1672 82.0078 58.1672 78.7266C58.1672 75.4453 60.1594 73.2578 63.3625 73.2578C66.5656 73.2578 68.5773 75.4453 68.5773 78.7266C68.5773 82.0078 66.5656 84.2148 63.3625 84.2148ZM63.382 81.9688C64.8664 81.9688 65.6281 80.582 65.6281 78.7266C65.6281 76.8516 64.8664 75.4648 63.382 75.4648C61.8781 75.4648 61.0969 76.8516 61.0969 78.7266C61.0969 80.582 61.8781 81.9688 63.382 81.9688ZM83.2469 73.3945L79.5164 84H76.2742L72.5633 73.3945H75.6102L77.8367 81.0117H77.9539L80.1805 73.3945H83.2469ZM88.3063 84.2148C85.0641 84.2148 83.0719 82.1055 83.0719 78.7461C83.0719 75.4648 85.0836 73.2578 88.1891 73.2578C90.982 73.2578 93.1695 75.0156 93.1695 78.6289V79.4492H85.9234C85.9234 81.0508 86.8805 82.0469 88.3648 82.0469C89.3414 82.0469 90.0445 81.6172 90.3375 80.9727H93.0914C92.6813 82.9258 90.9234 84.2148 88.3063 84.2148ZM89.5172 72.125L88.1305 70.4258L86.7242 72.125H84.2633V72.0273L87.0367 69H89.2047L91.9781 72.0273V72.125H89.5172ZM88.2477 87.9453C87.3688 87.9453 86.6656 87.2812 86.6656 86.4805C86.6656 85.6602 87.3688 84.9961 88.2477 84.9961C89.107 84.9961 89.8102 85.6602 89.8102 86.4805C89.8102 87.2812 89.107 87.9453 88.2477 87.9453ZM85.9234 77.6328H90.4352C90.4352 76.3438 89.5367 75.4258 88.2477 75.4258C86.9195 75.4258 85.9723 76.4121 85.9234 77.6328ZM97.9953 84V73.3945H100.749V75.25H100.866C101.316 74.0195 102.39 73.2578 103.816 73.2578C105.28 73.2578 106.355 74.0195 106.706 75.25H106.804C107.253 74.0391 108.445 73.2578 110.007 73.2578C111.98 73.2578 113.347 74.5664 113.347 76.8711V84H110.456V77.4375C110.456 76.2266 109.753 75.6406 108.796 75.6406C107.702 75.6406 107.077 76.4023 107.077 77.5156V84H104.265V77.3594C104.265 76.3047 103.601 75.6406 102.624 75.6406C101.648 75.6406 100.886 76.4219 100.886 77.6328V84H97.9953ZM119.539 84.2148C116.336 84.2148 114.344 82.0078 114.344 78.7266C114.344 75.4453 116.336 73.2578 119.539 73.2578C122.742 73.2578 124.754 75.4453 124.754 78.7266C124.754 82.0078 122.742 84.2148 119.539 84.2148ZM119.559 81.9688C121.043 81.9688 121.805 80.582 121.805 78.7266C121.805 76.8516 121.043 75.4648 119.559 75.4648C118.055 75.4648 117.273 76.8516 117.273 78.7266C117.273 80.582 118.055 81.9688 119.559 81.9688ZM120.945 72.125L119.559 70.4258L118.152 72.125H115.691V72.0273L118.465 69H120.633L123.406 72.0273V72.125H120.945ZM125.77 84V73.3945H128.661V84H125.77ZM127.216 72.0078C126.337 72.0078 125.634 71.3438 125.634 70.543C125.634 69.7227 126.337 69.0586 127.216 69.0586C128.075 69.0586 128.778 69.7227 128.778 70.543C128.778 71.3438 128.075 72.0078 127.216 72.0078ZM139.502 73.3945V75.5625H137.51V80.7383C137.51 81.5781 137.92 81.793 138.506 81.8125C138.799 81.8125 139.307 81.793 139.659 81.7539V84.0391C139.346 84.0977 138.838 84.1367 138.116 84.1367C136.026 84.1367 134.6 83.1992 134.62 81.1484V75.5625H133.155V73.3945H134.62V70.8555H137.51V73.3945H139.502ZM140.519 84V73.3945H143.312V75.2305H143.429C143.82 73.9219 144.796 73.2383 145.988 73.2383C146.28 73.2383 146.652 73.2773 146.905 73.3359V75.9141C146.632 75.8359 146.085 75.7578 145.675 75.7578C144.366 75.7578 143.409 76.6758 143.409 77.9648V84H140.519ZM160.344 72.8086C160.344 74.9766 159.582 76.207 157.258 76.4023V84H154.484V82.0859H154.367C153.879 83.3164 152.746 84.1367 151.145 84.1367C149.016 84.1367 147.57 82.6328 147.57 80.1523V73.3945H150.461V79.6445C150.461 80.8945 151.184 81.6953 152.316 81.6953C153.371 81.6953 154.367 80.9336 154.367 79.4883V73.3945H157.258V75.0742C158.498 74.8984 158.645 74.1465 158.645 72.8086H160.344ZM171.38 72.7695C171.38 74.3711 170.882 75.5234 169.759 76.0703C170.1 76.8418 170.286 77.7305 170.286 78.7266C170.286 82.0078 168.274 84.2148 165.071 84.2148C161.868 84.2148 159.876 82.0078 159.876 78.7266C159.876 75.4453 161.868 73.2578 165.071 73.2578C166.77 73.2578 168.128 73.873 169.036 74.918C169.505 74.5176 169.622 73.7656 169.622 72.7695H171.38ZM165.091 81.9688C166.575 81.9688 167.337 80.582 167.337 78.7266C167.337 76.8516 166.575 75.4648 165.091 75.4648C163.587 75.4648 162.805 76.8516 162.805 78.7266C162.805 80.582 163.587 81.9688 165.091 81.9688ZM164.075 72.0273L161.966 68.8828H164.661L166.126 72.0273H164.075ZM174.525 77.8672V84H171.634V73.3945H174.388V75.25H174.505C174.994 74.0195 176.127 73.2578 177.689 73.2578C179.896 73.2578 181.361 74.7617 181.341 77.2422V84H178.47V77.75C178.47 76.4414 177.748 75.6602 176.556 75.6602C175.345 75.6602 174.525 76.4609 174.525 77.8672ZM187.553 88.1992C184.623 88.1992 182.827 86.8906 182.651 84.8789H185.502C185.659 85.7188 186.459 86.1094 187.612 86.1094C188.959 86.1094 189.858 85.543 189.858 84.0586V82.125H189.721C189.33 82.9844 188.393 83.8438 186.694 83.8438C184.291 83.8438 182.377 82.1641 182.377 78.6289C182.377 75.0352 184.35 73.2578 186.694 73.2578C188.471 73.2578 189.33 74.3125 189.721 75.1719H189.838V73.3945H192.709V84.1172C192.709 86.8125 190.561 88.1992 187.553 88.1992ZM187.592 81.6758C189.038 81.6758 189.858 80.543 189.858 78.668C189.858 76.7734 189.038 75.5625 187.592 75.5625C186.127 75.5625 185.346 76.832 185.346 78.668C185.346 80.5039 186.127 81.6758 187.592 81.6758Z" fill="black"/>
<defs>
<linearGradient id="paint0_linear_957_5236" x1="108.885" y1="18.8098" x2="131.554" y2="240.876" gradientUnits="userSpaceOnUse">
<stop offset="0.0671484" stop-color="#ECFAFD"/>
<stop offset="1" stop-color="#97C1FF"/>
</linearGradient>
</defs>
</svg>
