<svg width="16" height="16" viewBox="0 0 16 16" fill="none" xmlns="http://www.w3.org/2000/svg">
<path d="M3.33333 14.5C2.96667 14.5 2.65278 14.3727 2.39167 14.1181C2.13056 13.8635 2 13.5575 2 13.2V4.1C2 3.7425 2.13056 3.43646 2.39167 3.18187C2.65278 2.92729 2.96667 2.8 3.33333 2.8H4V1.5H5.33333V2.8H10.6667V1.5H12V2.8H12.6667C13.0333 2.8 13.3472 2.92729 13.6083 3.18187C13.8694 3.43646 14 3.7425 14 4.1V13.2C14 13.5575 13.8694 13.8635 13.6083 14.1181C13.3472 14.3727 13.0333 14.5 12.6667 14.5H3.33333ZM3.33333 13.2H12.6667V6.7H3.33333V13.2ZM3.33333 5.4H12.6667V4.1H3.33333V5.4ZM8 9.3C7.81111 9.3 7.65278 9.23771 7.525 9.11312C7.39722 8.98854 7.33333 8.83417 7.33333 8.65C7.33333 8.46583 7.39722 8.31146 7.525 8.18687C7.65278 8.06229 7.81111 8 8 8C8.18889 8 8.34722 8.06229 8.475 8.18687C8.60278 8.31146 8.66667 8.46583 8.66667 8.65C8.66667 8.83417 8.60278 8.98854 8.475 9.11312C8.34722 9.23771 8.18889 9.3 8 9.3ZM5.33333 9.3C5.14444 9.3 4.98611 9.23771 4.85833 9.11312C4.73056 8.98854 4.66667 8.83417 4.66667 8.65C4.66667 8.46583 4.73056 8.31146 4.85833 8.18687C4.98611 8.06229 5.14444 8 5.33333 8C5.52222 8 5.68056 8.06229 5.80833 8.18687C5.93611 8.31146 6 8.46583 6 8.65C6 8.83417 5.93611 8.98854 5.80833 9.11312C5.68056 9.23771 5.52222 9.3 5.33333 9.3ZM10.6667 9.3C10.4778 9.3 10.3194 9.23771 10.1917 9.11312C10.0639 8.98854 10 8.83417 10 8.65C10 8.46583 10.0639 8.31146 10.1917 8.18687C10.3194 8.06229 10.4778 8 10.6667 8C10.8556 8 11.0139 8.06229 11.1417 8.18687C11.2694 8.31146 11.3333 8.46583 11.3333 8.65C11.3333 8.83417 11.2694 8.98854 11.1417 9.11312C11.0139 9.23771 10.8556 9.3 10.6667 9.3ZM8 11.9C7.81111 11.9 7.65278 11.8377 7.525 11.7131C7.39722 11.5885 7.33333 11.4342 7.33333 11.25C7.33333 11.0658 7.39722 10.9115 7.525 10.7869C7.65278 10.6623 7.81111 10.6 8 10.6C8.18889 10.6 8.34722 10.6623 8.475 10.7869C8.60278 10.9115 8.66667 11.0658 8.66667 11.25C8.66667 11.4342 8.60278 11.5885 8.475 11.7131C8.34722 11.8377 8.18889 11.9 8 11.9ZM5.33333 11.9C5.14444 11.9 4.98611 11.8377 4.85833 11.7131C4.73056 11.5885 4.66667 11.4342 4.66667 11.25C4.66667 11.0658 4.73056 10.9115 4.85833 10.7869C4.98611 10.6623 5.14444 10.6 5.33333 10.6C5.52222 10.6 5.68056 10.6623 5.80833 10.7869C5.93611 10.9115 6 11.0658 6 11.25C6 11.4342 5.93611 11.5885 5.80833 11.7131C5.68056 11.8377 5.52222 11.9 5.33333 11.9ZM10.6667 11.9C10.4778 11.9 10.3194 11.8377 10.1917 11.7131C10.0639 11.5885 10 11.4342 10 11.25C10 11.0658 10.0639 10.9115 10.1917 10.7869C10.3194 10.6623 10.4778 10.6 10.6667 10.6C10.8556 10.6 11.0139 10.6623 11.1417 10.7869C11.2694 10.9115 11.3333 11.0658 11.3333 11.25C11.3333 11.4342 11.2694 11.5885 11.1417 11.7131C11.0139 11.8377 10.8556 11.9 10.6667 11.9Z" fill="#666666"/>
</svg>
