<svg width="500" height="500" viewBox="0 0 500 500" fill="none" xmlns="http://www.w3.org/2000/svg">
<g clip-path="url(#clip0_3972_1682)">
<rect width="500" height="500" fill="#33BB9A"/>
<path d="M61.5795 291.961C59.3952 292.201 57.1073 292.122 55.091 291.47C54.2006 291.177 53.2985 290.82 52.5815 290.219C47.3221 285.794 47.0011 276.763 45.4032 256.108L42.6393 220.233C42.1845 214.329 45.5917 211.697 52.1958 211.215L72.7603 209.631C74.4755 209.446 89.8328 208.04 100.053 219.334C106.076 225.991 107.254 233.677 107.517 237.01C107.787 240.336 107.953 249.327 101.683 257.561C99.8263 260.001 97.5771 262.13 95.0338 263.855C92.8846 265.32 90.5359 266.498 88.0861 267.389C84.517 268.688 80.7795 269.251 76.9907 269.405C75.6864 269.46 74.3846 269.462 73.0803 269.516C73.3226 269.504 73.2939 273.227 73.2893 273.595C73.2732 275.093 73.1912 276.589 73.0363 278.077C72.7516 280.869 72.402 283.842 70.9689 286.322C70.9453 286.357 70.9282 286.391 70.9045 286.425C69.3965 288.957 66.738 290.979 63.9106 291.578C63.1538 291.741 62.3614 291.868 61.5594 291.956L61.5795 291.961ZM74.6668 250.507C77.3483 250.491 80.2894 249.575 82.3219 247.791C86.5839 244.05 85.9541 235.619 81.6828 232.07C79.6735 230.4 77.0166 229.883 74.4668 229.988C72.1945 229.854 70.1711 230.903 70.4547 233.388C70.5974 235.241 71.1679 242.645 71.4393 246.168C71.4784 248.298 71.852 250.501 74.522 250.505L74.6602 250.507L74.6668 250.507Z" fill="white"/>
<path d="M144.177 231.298C146.648 230.14 151.067 229.852 153.716 230.702C155.938 231.415 157.328 233.542 157.42 235.583C157.512 237.448 157.754 238.6 157.512 243.206C156.784 256.901 150.785 252.046 141.639 257.628C140.564 258.334 139.758 258.779 139.305 259.401C138.768 260.108 138.591 260.906 138.591 262.241C138.591 286.444 138.44 288.217 126.692 288.217C114.943 288.217 113.599 286.353 113.599 259.224C113.599 232.096 114.405 230.323 126.692 230.323C133.687 230.323 135.523 232.547 137.319 237.874C138.663 235.57 141.508 232.547 144.177 231.298Z" fill="white"/>
<path d="M254.873 232.622C255.581 231.353 256.165 230.025 256.768 228.709C262.957 215.322 264.924 209.485 276.069 209.381C288.526 209.263 293.115 214.668 284.887 230.744C280.658 238.649 275.899 244.308 273.388 247.41C275.63 250.865 280.009 256.145 284.71 263.899C294.433 278.824 294.203 288.103 280.665 288.103C267.127 288.103 265.966 286.598 255.568 263.899L250.671 255.923C250.494 285.891 249.53 288.318 237.336 288.103C225.141 287.887 223.633 282.717 224.001 248.738C224.368 214.759 225.6 209.479 237.336 209.374C249.071 209.269 250.494 211.501 250.671 240.14L254.88 232.616L254.873 232.622Z" fill="white"/>
<path d="M436.003 252.987C441.392 254.146 448.029 254.086 452.331 257.982C457.895 263.016 457.276 272.801 453.967 278.835C450.258 285.59 442.096 288.619 434.812 289.809C426.19 291.212 416.315 291.167 408.179 287.733C402.202 285.215 397.795 280.426 397.461 273.799C397.371 272.074 397.084 269.052 398.836 267.81C400.467 266.657 403.302 266.867 405.175 266.779C406.76 266.708 408.352 266.65 409.938 266.592C421.77 266.158 422.619 266.049 422.619 267.306L422.642 267.927C422.683 269.058 422.724 269.64 423.247 270.668C424.096 272.353 426.08 272.26 427.728 272.108C430.03 271.893 430.709 269.662 430.629 267.668C430.565 265.902 429.412 265.047 427.819 264.556L416.605 262.353C405.829 259.729 403.355 260.796 399.131 255.627C397.625 253.731 396.637 251.285 396.53 248.356C396.307 247.12 396.095 245.262 396.335 243.04C397.163 235.375 402.125 229.327 409.016 225.991C421.412 219.985 439.576 221.016 449.529 231.258C453.333 235.172 455.255 240.366 454.595 245.792C454.377 247.561 452.87 248.134 451.141 248.394C448.335 248.817 445.411 248.682 442.584 248.707C432.491 248.814 429.894 249.557 429.889 247.633L429.81 245.449C429.741 243.585 427.864 243.189 426.315 243.187C424.413 243.184 422.154 243.3 421.798 245.585C421.602 246.869 421.818 248.642 422.74 249.643C423.157 250.092 423.737 250.359 424.334 250.527C428.127 251.626 432.147 252.127 436.009 252.961L436.003 252.987Z" fill="white"/>
<path fill-rule="evenodd" clip-rule="evenodd" d="M181.066 286.786C191.556 290.103 203.311 287.192 210.746 279.615L210.746 279.621C217.957 272.266 218.515 263.165 218.659 260.057C218.816 256.628 218.934 241.945 206.786 233.321C197.234 226.529 183.899 226.202 173.809 232.667C159.077 242.109 160.578 260.109 160.657 260.907C161.752 271.697 168.852 282.925 181.066 286.786ZM189.835 247.028C185.49 247.028 181.967 250.55 181.967 254.895L181.967 262.062C181.967 266.407 185.49 269.929 189.835 269.929C194.18 269.929 197.702 266.407 197.702 262.062L197.702 254.895C197.702 250.55 194.18 247.028 189.835 247.028Z" fill="white"/>
<path fill-rule="evenodd" clip-rule="evenodd" d="M350.983 288.05C355.897 288.441 362.403 285.711 365.713 281.229C365.916 281.646 366.105 282.076 366.296 282.512C367.636 285.56 369.09 288.869 376.166 289.612C387.969 290.553 388.97 288.145 391.902 251.377C394.834 214.61 394.228 212.073 382.425 211.132C372.504 210.341 369.962 215.081 367.749 237.229C364.761 232.468 358.238 229.985 352.903 229.415C346.356 228.716 339.776 230.482 334.877 235.014C328.99 240.466 327.082 249.129 326.559 256.846C325.944 265.954 327.248 275.91 334.473 282.296C341.256 288.291 349.325 288.134 351.087 288.058L350.983 288.05ZM354.459 249.238C350.128 248.892 346.336 252.124 345.991 256.455L345.421 263.599C345.076 267.93 348.307 271.721 352.638 272.067C356.97 272.412 360.761 269.181 361.106 264.85L361.676 257.706C362.021 253.374 358.79 249.583 354.459 249.238Z" fill="white"/>
<path d="M295.552 259.113C295.552 232.07 299.066 230.218 308.782 230.211C318.498 230.205 321.357 232.076 321.357 259.113C321.357 286.15 318.079 288.329 308.782 288.106C300.377 287.903 295.552 286.241 295.552 259.113Z" fill="white"/>
<path d="M317.366 214.126C324.235 207.237 322.982 205.485 313.776 205.334C313.683 205.333 313.594 205.279 313.548 205.199C308.981 197.051 306.723 196.701 303.529 205.873C303.498 205.96 303.419 206.028 303.329 206.047C292.534 208.209 293.339 210.678 300.548 216.067C300.626 216.125 300.667 216.227 300.651 216.323C299.154 225.63 300.645 226.441 309.414 220.929C309.492 220.881 309.594 220.876 309.676 220.917C317.492 224.864 319.671 224.347 317.296 214.376C317.275 214.289 317.302 214.19 317.366 214.126Z" fill="#FFF4B7"/>
<path fill-rule="evenodd" clip-rule="evenodd" d="M318.588 119.916C295.008 126.574 276.483 140.333 254.665 161.959C251.983 164.618 247.642 164.42 245.193 161.627C223.606 137.02 203.387 124.267 179.094 118.91C154.443 113.474 125.013 115.503 84.6079 121.83C83.6426 121.981 82.9126 122.825 82.9126 123.822V189.528C82.9126 192.893 80.1844 193.672 76.819 193.672C73.4537 193.672 70.7255 192.893 70.7255 189.528V123.822C70.7255 116.842 75.807 110.872 82.7227 109.789C123.256 103.443 154.66 101.042 181.719 107.009C207.531 112.701 228.867 125.873 250.348 149.138C271.087 129.176 290.461 115.194 315.277 108.187C341.651 100.74 373.418 101.383 418.388 109.657C425.117 110.895 430 116.783 430 123.608V189.041C430 192.406 427.272 193.672 423.906 193.672C420.541 193.672 417.813 192.406 417.813 189.041V123.608C417.813 122.647 417.113 121.814 416.183 121.642C371.889 113.493 342.302 113.22 318.588 119.916Z" fill="white"/>
<path fill-rule="evenodd" clip-rule="evenodd" d="M76.819 309.693C80.1844 309.693 82.9126 310.958 82.9126 314.324V363.875C82.9126 365.094 84.0271 366.112 85.3388 365.921C127.385 359.775 158.384 357.804 184.458 362.46C209.353 366.906 229.376 377.318 250.111 394.998C273.086 375.865 294.828 365.674 320.21 361.724C346.654 357.609 376.679 360.342 415.407 365.948C416.704 366.136 417.813 365.128 417.813 363.911V314.324C417.813 310.958 420.541 309.693 423.906 309.693C427.272 309.693 430 310.958 430 314.324V363.911C430 372.647 422.214 379.248 413.661 378.009C374.944 372.405 346.541 369.96 322.084 373.766C297.949 377.522 277.292 387.436 254.338 407.404C251.879 409.543 248.192 409.538 245.74 407.354C224.941 388.836 206.018 378.691 182.315 374.457C158.299 370.168 128.955 371.862 87.1013 377.98C78.5403 379.231 70.7255 372.632 70.7255 363.875V314.324C70.7255 310.958 73.4537 309.693 76.819 309.693Z" fill="white"/>
</g>
<defs>
<clipPath id="clip0_3972_1682">
<rect width="500" height="500" fill="white"/>
</clipPath>
</defs>
</svg>
