<svg width="20" height="20" viewBox="0 0 20 20" fill="none" xmlns="http://www.w3.org/2000/svg">
<path d="M20 10C20 15.5228 15.5228 20 10 20C4.47715 20 0 15.5228 0 10C0 4.47715 4.47715 0 10 0C15.5228 0 20 4.47715 20 10Z" fill="#EE1C25"/>
<path d="M4.47066 5.10156L5.9976 9.7276L2 6.86855H6.94131L2.94371 9.7276" fill="#FFFF00"/>
<path d="M9.14069 4.31723L8.9961 5.93234L8.14867 4.54203L9.66443 5.17649L8.05931 5.54022" fill="#FFFF00"/>
<path d="M11.1555 6.21274L10.3855 7.64604L10.1526 6.04097L11.2994 7.20473L9.6767 6.9268" fill="#FFFF00"/>
<path d="M11.3488 9.07403L10.0518 10.0735L10.5043 8.51448L11.0692 10.0375L9.70277 9.13216" fill="#FFFF00"/>
<path d="M9.10653 10.2704L9.03009 11.89L8.12483 10.5355L9.66601 11.1075L8.07759 11.5365" fill="#FFFF00"/>
</svg>
