<svg width="164" height="40" viewBox="0 0 164 40" fill="none" xmlns="http://www.w3.org/2000/svg">
<path d="M7.73213 38.5897C6.86954 38.6846 5.96604 38.6532 5.16978 38.3957C4.81812 38.2803 4.46189 38.1393 4.17873 37.9019C2.10174 36.1545 1.97497 32.5878 1.34397 24.4312L0.252479 10.2638C0.0728467 7.93214 1.41839 6.89289 4.02642 6.70233L12.1476 6.07666C12.8249 6.00374 18.8896 5.44838 22.9258 9.90866C25.3044 12.5374 25.7694 15.5726 25.8734 16.889C25.9798 18.2025 26.0456 21.7532 23.5695 25.0047C22.8362 25.9683 21.9479 26.809 20.9436 27.4903C20.0949 28.0688 19.1673 28.5342 18.1999 28.886C16.7904 29.3989 15.3144 29.6215 13.8182 29.6823C13.3031 29.7039 12.789 29.7046 12.2739 29.7262C12.3696 29.7214 12.3583 31.1917 12.3565 31.337C12.3501 31.9284 12.3177 32.5192 12.2565 33.107C12.1441 34.2094 12.0061 35.3836 11.4401 36.3628C11.4308 36.3765 11.424 36.39 11.4147 36.4037C10.8191 37.4033 9.76927 38.2021 8.6527 38.4384C8.35385 38.5029 8.04091 38.5529 7.72419 38.5877L7.73213 38.5897ZM12.9004 22.2191C13.9594 22.2127 15.1209 21.8511 15.9235 21.1465C17.6066 19.6692 17.3579 16.3399 15.6711 14.9382C14.8777 14.2788 13.8284 14.0746 12.8215 14.1159C11.9241 14.0632 11.1251 14.4772 11.237 15.4586C11.2934 16.1903 11.5187 19.1145 11.6259 20.5057C11.6413 21.3468 11.7888 22.2166 12.8432 22.2183L12.8979 22.2193L12.9004 22.2191Z" fill="#33BB9A"/>
<path d="M40.345 14.6153C41.321 14.158 43.0661 14.0443 44.112 14.3802C44.9897 14.6618 45.5386 15.5016 45.5749 16.3079C45.6111 17.0443 45.7069 17.4991 45.6111 19.3182C45.3237 24.7265 42.9547 22.8092 39.343 25.0133C38.9184 25.2924 38.5999 25.4681 38.4213 25.7136C38.209 25.9927 38.1391 26.3079 38.1391 26.8351C38.1391 36.3933 38.0795 37.0935 33.4399 37.0935C28.8003 37.0935 28.2695 36.3571 28.2695 25.6438C28.2695 14.9306 28.588 14.2303 33.4399 14.2303C36.2024 14.2303 36.9274 15.1089 37.6368 17.2123C38.1675 16.3027 39.2912 15.1089 40.345 14.6153Z" fill="#33BB9A"/>
<path d="M84.0701 15.1788C84.3497 14.6775 84.5802 14.153 84.8184 13.6336C87.2624 8.34673 88.0392 6.04181 92.4406 6.00046C97.3598 5.95395 99.1722 8.08834 95.9229 14.4372C94.2529 17.5587 92.3733 19.7939 91.3816 21.0187C92.2671 22.383 93.9966 24.4683 95.853 27.5303C99.6926 33.4244 99.6019 37.0886 94.2555 37.0886C88.9091 37.0886 88.4508 36.4942 84.3446 27.5303L82.4105 24.3804C82.3406 36.2152 81.96 37.1738 77.1444 37.0886C72.3287 37.0033 71.7332 34.9619 71.8782 21.5432C72.0232 8.12451 72.5099 6.03922 77.1444 5.99788C81.7788 5.95654 82.3406 6.83768 82.4105 18.1478L84.0727 15.1762L84.0701 15.1788Z" fill="#33BB9A"/>
<path d="M155.603 23.2061C157.731 23.6635 160.352 23.6399 162.051 25.1783C164.248 27.1665 164.004 31.0308 162.697 33.4135C161.232 36.0813 158.009 37.2775 155.132 37.7474C151.728 38.3012 147.828 38.2836 144.615 36.9274C142.254 35.9329 140.514 34.0418 140.382 31.4247C140.347 30.7434 140.233 29.5503 140.925 29.0596C141.569 28.6042 142.689 28.6873 143.428 28.6525C144.054 28.6244 144.683 28.6014 145.309 28.5785C149.982 28.4075 150.317 28.3642 150.317 28.8606L150.326 29.1059C150.343 29.5527 150.359 29.7822 150.565 30.1884C150.901 30.8536 151.684 30.8171 152.335 30.7571C153.244 30.6721 153.512 29.7909 153.481 29.0034C153.455 28.3062 153 27.9686 152.371 27.7744L147.942 26.9048C143.687 25.8686 142.71 26.2896 141.042 24.2484C140.447 23.4997 140.057 22.5339 140.014 21.3771C139.927 20.889 139.843 20.1552 139.938 19.2777C140.265 16.2508 142.224 13.8623 144.945 12.5448C149.841 10.1729 157.014 10.5801 160.944 14.6251C162.447 16.1707 163.206 18.2218 162.945 20.3646C162.859 21.0633 162.264 21.2894 161.581 21.3919C160.473 21.5592 159.318 21.5058 158.202 21.5156C154.216 21.558 153.19 21.8516 153.189 21.0914L153.157 20.229C153.13 19.493 152.388 19.3366 151.777 19.3357C151.026 19.3347 150.134 19.3803 149.993 20.2827C149.916 20.7897 150.001 21.4899 150.365 21.8852C150.53 22.0627 150.759 22.1681 150.994 22.2345C152.492 22.6684 154.08 22.8662 155.605 23.1957L155.603 23.2061Z" fill="#33BB9A"/>
<path fill-rule="evenodd" clip-rule="evenodd" d="M54.9611 36.5542C59.1036 37.8642 63.7458 36.7144 66.6818 33.7221L66.6818 33.7247C69.5298 30.8203 69.7498 27.2259 69.8068 25.9985C69.8689 24.6445 69.9155 18.846 65.118 15.4403C61.3457 12.7581 56.0796 12.6289 52.095 15.1819C46.2773 18.9106 46.8702 26.0192 46.9013 26.3344C47.3337 30.5955 50.1376 35.0296 54.9611 36.5542ZM58.4169 20.8384C56.701 20.8384 55.31 22.2294 55.31 23.9453L55.31 26.7755C55.31 28.4914 56.701 29.8824 58.4169 29.8824C60.1327 29.8824 61.5237 28.4914 61.5237 26.7755L61.5237 23.9453C61.5237 22.2294 60.1327 20.8384 58.4169 20.8384Z" fill="#33BB9A"/>
<path fill-rule="evenodd" clip-rule="evenodd" d="M122.002 37.0464C123.943 37.2012 126.512 36.123 127.819 34.353C127.899 34.5176 127.974 34.6875 128.049 34.8595C128.578 36.0633 129.152 37.3701 131.947 37.6633C136.608 38.035 137.003 37.0841 138.161 22.5642C139.319 8.04427 139.08 7.04272 134.419 6.67101C130.501 6.35857 129.497 8.23045 128.623 16.9768C127.443 15.0967 124.867 14.1162 122.76 13.8912C120.175 13.615 117.576 14.3124 115.641 16.1023C113.316 18.255 112.563 21.6763 112.356 24.7238C112.114 28.3206 112.629 32.2525 115.482 34.7742C118.161 37.1419 121.347 37.0798 122.043 37.0497L122.002 37.0464ZM123.391 21.7104C121.68 21.574 120.183 22.85 120.047 24.5604L119.822 27.3817C119.685 29.0922 120.961 30.5894 122.672 30.7258C124.382 30.8622 125.879 29.5861 126.016 27.8757L126.241 25.0544C126.377 23.344 125.101 21.8468 123.391 21.7104Z" fill="#33BB9A"/>
<path d="M100.122 25.644C100.122 14.9643 101.51 14.2331 105.347 14.2305C109.184 14.2279 110.313 14.9669 110.313 25.644C110.313 36.3211 109.018 37.1816 105.347 37.0937C102.027 37.0136 100.122 36.3573 100.122 25.644Z" fill="#33BB9A"/>
<path d="M108.832 7.76924C111.438 5.1345 110.955 4.44196 107.446 4.37134C107.346 4.36932 107.251 4.31235 107.201 4.22489C105.448 1.1249 104.561 0.996632 103.33 4.48394C103.297 4.5782 103.212 4.65135 103.114 4.67136C99.0021 5.51147 99.288 6.47652 102.031 8.54232C102.115 8.60548 102.158 8.71354 102.142 8.81724C101.584 12.3599 102.181 12.6778 105.533 10.5825C105.617 10.5301 105.726 10.5247 105.814 10.569C108.801 12.0646 109.647 11.8425 108.755 8.03915C108.733 7.9438 108.763 7.83886 108.832 7.76924Z" fill="#FFDD2C"/>
</svg>
