<svg width="20" height="20" viewBox="0 0 20 20" fill="none" xmlns="http://www.w3.org/2000/svg">
<circle cx="10" cy="10" r="10" fill="#DA251D"/>
<path d="M10.0016 6L8.70312 9.99949L11.3713 10.8651L10.0016 6Z" fill="#FFFF00"/>
<path d="M9.99859 6L11.2971 9.99949L8.62891 10.8651L9.99859 6Z" fill="#FFFF00"/>
<path d="M14.0006 8.91016H9.79297V11.7153L14.0006 8.91016Z" fill="#FFFF00"/>
<path d="M14.0006 8.91016L10.5983 11.3811L8.94922 9.11287L14.0006 8.91016Z" fill="#FFFF00"/>
<path d="M12.4705 13.6108L11.1721 9.61133L8.50391 10.477L12.4705 13.6108Z" fill="#FFFF00"/>
<path d="M12.4726 13.6102L9.07031 11.1393L10.7194 8.87109L12.4726 13.6102Z" fill="#FFFF00"/>
<path d="M6 8.91016H10.2077V11.7153L6 8.91016Z" fill="#FFFF00"/>
<path d="M6 8.91016L9.4023 11.3811L11.0514 9.11287L6 8.91016Z" fill="#FFFF00"/>
<path d="M7.52734 13.6108L8.82581 9.61133L11.494 10.477L7.52734 13.6108Z" fill="#FFFF00"/>
<path d="M7.52734 13.6102L10.9296 11.1393L9.28054 8.87109L7.52734 13.6102Z" fill="#FFFF00"/>
</svg>
