<svg width="151" height="56" viewBox="0 0 151 56" fill="none" xmlns="http://www.w3.org/2000/svg">
<g clip-path="url(#clip0_1015_5555)">
<path d="M136.085 1H14.8718C14.3768 1 13.8877 1 13.3939 1.0027C12.9806 1.0054 12.5706 1.01324 12.1533 1.01985C11.2468 1.03051 10.3425 1.11026 9.44808 1.2584C8.55496 1.40977 7.68981 1.69514 6.8819 2.10485C6.07497 2.51804 5.33767 3.05493 4.69672 3.69604C4.05241 4.33536 3.51533 5.07432 3.10612 5.88452C2.69579 6.6931 2.41126 7.55957 2.26237 8.454C2.11206 9.3473 2.03118 10.2509 2.02045 11.1567C2.00792 11.5706 2.0066 11.9859 2 12.3999V43.6041C2.0066 44.0233 2.00792 44.4294 2.02045 44.8487C2.03119 45.7544 2.11207 46.658 2.26237 47.5512C2.41085 48.4462 2.6954 49.3132 3.10612 50.122C3.51514 50.9296 4.0523 51.6656 4.69672 52.3013C5.33524 52.9453 6.07302 53.4826 6.8819 53.8926C7.6898 54.3034 8.55486 54.5905 9.44808 54.7442C10.3426 54.8911 11.2469 54.9709 12.1533 54.9829C12.5706 54.992 12.9806 54.9973 13.3939 54.9973C13.8877 55 14.3768 55 14.8718 55H136.085C136.57 55 137.063 55 137.548 54.9973C137.96 54.9973 138.382 54.992 138.793 54.9829C139.698 54.9715 140.6 54.8918 141.493 54.7442C142.389 54.5894 143.257 54.3024 144.069 53.8926C144.877 53.4823 145.614 52.9451 146.252 52.3013C146.895 51.6631 147.433 50.9277 147.847 50.122C148.255 49.3126 148.537 48.4457 148.683 47.5512C148.834 46.6579 148.918 45.7545 148.934 44.8487C148.939 44.4294 148.939 44.0233 148.939 43.6041C148.95 43.1137 148.95 42.6259 148.95 42.1275V13.8738C148.95 13.3794 148.95 12.889 148.939 12.3999C148.939 11.9859 148.939 11.5706 148.934 11.1566C148.918 10.2508 148.834 9.34737 148.683 8.45394C148.537 7.56003 148.255 6.69363 147.847 5.88446C147.014 4.26051 145.693 2.93863 144.069 2.10473C143.257 1.69602 142.389 1.41072 141.493 1.25828C140.6 1.10949 139.698 1.02971 138.793 1.01966C138.382 1.01307 137.96 1.00516 137.548 1.00252C137.063 1 136.57 1 136.085 1Z" fill="#A6A6A6"/>
<path d="M13.4016 53.8191C12.9903 53.8191 12.5889 53.8139 12.1809 53.8047C11.3355 53.7937 10.492 53.7201 9.65751 53.5845C8.87936 53.4505 8.12554 53.2012 7.42092 52.8448C6.72275 52.4914 6.08597 52.0281 5.53497 51.4724C4.97598 50.9234 4.51061 50.2865 4.15728 49.5872C3.80005 48.8833 3.55283 48.1288 3.42423 47.3499C3.28534 46.5131 3.2102 45.6669 3.19945 44.8187C3.19089 44.534 3.17969 43.586 3.17969 43.586V12.4002C3.17969 12.4002 3.19162 11.4668 3.19952 11.1926C3.20981 10.3457 3.28452 9.50087 3.42298 8.66533C3.55183 7.88438 3.79924 7.1277 4.15666 6.42149C4.50869 5.72261 4.97148 5.0853 5.52709 4.53426C6.08208 3.97798 6.7209 3.51221 7.42025 3.15392C8.12326 2.79872 8.87566 2.55118 9.65224 2.41961C10.4895 2.28267 11.3358 2.20864 12.1842 2.19812L13.4023 2.18164H137.543L138.776 2.19879C139.616 2.20877 140.455 2.28215 141.284 2.41828C142.069 2.55151 142.829 2.80077 143.54 3.15788C144.941 3.87992 146.081 5.02226 146.8 6.42479C147.152 7.12612 147.396 7.87663 147.523 8.65084C147.663 9.49324 147.742 10.3448 147.758 11.1986C147.762 11.5809 147.762 11.9916 147.762 12.4003C147.772 12.9065 147.772 13.3884 147.772 13.8742V42.1279C147.772 42.6183 147.772 43.0969 147.762 43.5794C147.762 44.0184 147.762 44.4206 147.756 44.8345C147.741 45.6731 147.663 46.5094 147.526 47.3367C147.4 48.1211 147.154 48.8815 146.797 49.5912C146.441 50.283 145.978 50.9143 145.426 51.4619C144.874 52.0205 144.236 52.4866 143.536 52.8423C142.827 53.2014 142.068 53.4516 141.285 53.5845C140.45 53.7208 139.607 53.7944 138.761 53.8047C138.366 53.8139 137.952 53.8191 137.55 53.8191L136.086 53.8218L13.4016 53.8191Z" fill="black"/>
<path d="M57.5764 23.3498H52.1068L50.7933 27.2284H48.4766L53.6573 12.8789H56.0644L61.2451 27.2284H58.8888L57.5764 23.3498ZM52.6732 21.5601H57.0089L54.8716 15.2656H54.8118L52.6732 21.5601Z" fill="white"/>
<path d="M72.4329 21.9971C72.4329 25.2482 70.6929 27.337 68.0669 27.337C67.4017 27.3718 66.7402 27.2186 66.1581 26.8948C65.5759 26.5711 65.0967 26.09 64.7752 25.5066H64.7256V30.6885H62.5781V16.7656H64.6567V18.5057H64.6962C65.0325 17.9251 65.5198 17.4465 66.1064 17.1208C66.693 16.7952 67.3569 16.6346 68.0275 16.6562C70.6827 16.6561 72.4329 18.7551 72.4329 21.9971ZM70.2257 21.9971C70.2257 19.879 69.1311 18.4865 67.461 18.4865C65.8202 18.4865 64.7166 19.9084 64.7166 21.9971C64.7166 24.1051 65.8202 25.5168 67.461 25.5168C69.1311 25.5168 70.2257 24.1344 70.2257 21.9971Z" fill="white"/>
<path d="M83.9491 21.9971C83.9491 25.2482 82.2085 27.337 79.5826 27.337C78.9174 27.3718 78.2558 27.2186 77.6737 26.8948C77.0915 26.5711 76.6123 26.09 76.2908 25.5066H76.2412V30.6885H74.0938V16.7656H76.1724V18.5057H76.2119C76.5481 17.9251 77.0354 17.4465 77.622 17.1208C78.2086 16.7952 78.8725 16.6346 79.5431 16.6562C82.1983 16.6561 83.9491 18.7551 83.9491 21.9971ZM81.7413 21.9971C81.7413 19.879 80.6467 18.4865 78.9766 18.4865C77.3358 18.4865 76.2322 19.9084 76.2322 21.9971C76.2322 24.1051 77.3358 25.5168 78.9766 25.5168C80.6467 25.5168 81.7413 24.1344 81.7413 21.9971Z" fill="white"/>
<path d="M91.5576 23.2292C91.7167 24.6522 93.0991 25.5866 94.9881 25.5866C96.7982 25.5866 98.1004 24.6522 98.1004 23.3692C98.1004 22.2554 97.315 21.5885 95.4553 21.1314L93.5956 20.6834C90.9607 20.047 89.7374 18.8147 89.7374 16.8151C89.7374 14.3392 91.895 12.6387 94.9577 12.6387C97.9909 12.6387 100.07 14.3393 100.14 16.8151H97.9718C97.842 15.3831 96.6582 14.5187 94.9283 14.5187C93.1984 14.5187 92.0146 15.3933 92.0146 16.6662C92.0146 17.6807 92.7706 18.2776 94.6202 18.7347L96.2012 19.1228C99.1454 19.8191 100.367 21.0017 100.367 23.1006C100.367 25.7852 98.2302 27.4666 94.829 27.4666C91.6468 27.4666 89.4982 25.8247 89.3594 23.2293L91.5576 23.2292Z" fill="white"/>
<path d="M105.003 14.2892V16.7651H106.992V18.4656H105.003V24.2332C105.003 25.1292 105.401 25.5467 106.276 25.5467C106.512 25.5426 106.748 25.526 106.982 25.4971V27.1875C106.589 27.261 106.189 27.2942 105.79 27.2868C103.671 27.2868 102.845 26.4912 102.845 24.4623V18.4656H101.324V16.765H102.845V14.2891L105.003 14.2892Z" fill="white"/>
<path d="M108.145 21.9969C108.145 18.7052 110.083 16.6367 113.106 16.6367C116.14 16.6367 118.069 18.7052 118.069 21.9969C118.069 25.2976 116.15 27.357 113.106 27.357C110.064 27.3571 108.145 25.2976 108.145 21.9969ZM115.881 21.9969C115.881 19.7388 114.846 18.4061 113.106 18.4061C111.366 18.4061 110.331 19.749 110.331 21.9969C110.331 24.2639 111.366 25.5865 113.106 25.5865C114.846 25.5865 115.881 24.2639 115.881 21.9969Z" fill="white"/>
<path d="M119.84 16.7656H121.888V18.5463H121.938C122.076 17.9901 122.402 17.4987 122.86 17.1544C123.318 16.8102 123.881 16.6343 124.454 16.6561C124.701 16.6552 124.948 16.6821 125.19 16.7362V18.7449C124.877 18.6494 124.551 18.6056 124.225 18.6151C123.913 18.6025 123.602 18.6575 123.313 18.7764C123.025 18.8952 122.765 19.0752 122.552 19.3039C122.34 19.5326 122.179 19.8045 122.082 20.1011C121.984 20.3977 121.952 20.7119 121.987 21.0222V27.2275H119.84V16.7656Z" fill="white"/>
<path d="M135.094 24.1545C134.858 25.1431 134.271 26.0126 133.442 26.6016C132.614 27.1905 131.6 27.459 130.589 27.3571C127.545 27.3571 125.656 25.3179 125.656 22.0465C125.656 18.765 127.555 16.6367 130.498 16.6367C133.393 16.6367 135.213 18.6251 135.213 21.7971V22.5329H127.824V22.6627C127.79 23.0477 127.838 23.4356 127.965 23.8005C128.093 24.1655 128.296 24.4992 128.562 24.7795C128.829 25.0597 129.151 25.2802 129.509 25.4261C129.867 25.5721 130.252 25.6402 130.638 25.626C131.146 25.6736 131.655 25.556 132.09 25.2909C132.526 25.0258 132.864 24.6272 133.054 24.1545L135.094 24.1545ZM127.834 21.032H133.065C133.084 20.6859 133.031 20.3394 132.91 20.0145C132.789 19.6895 132.603 19.3931 132.362 19.1437C132.121 18.8944 131.831 18.6976 131.51 18.5656C131.19 18.4336 130.845 18.3693 130.498 18.3768C130.149 18.3747 129.802 18.4419 129.479 18.5745C129.155 18.7071 128.861 18.9024 128.613 19.1493C128.365 19.3962 128.169 19.6896 128.035 20.0128C127.902 20.3359 127.833 20.6823 127.834 21.032Z" fill="white"/>
<path d="M48.4805 33.4531H58.5534V34.5065H53.7651V35.9962C54.4513 36.3139 55.1419 36.6642 55.8369 37.047C56.5317 37.4293 57.2346 37.8397 57.9456 38.2783L57.3253 39.246C56.5936 38.7793 55.9362 38.368 55.3531 38.012C54.7697 37.6561 54.2404 37.3603 53.7651 37.1248V43.3461H52.6979V34.5065H48.4805L48.4805 33.4531Z" fill="white"/>
<path d="M61.3432 33.7704H63.4519V32.9201H64.4941V33.7704H66.4479V34.7381H64.4941V35.5621H66.9568C66.9403 35.1573 66.9238 34.7346 66.9074 34.2938C66.8903 33.8535 66.8819 33.3916 66.8823 32.9082H67.9179C67.9179 33.4 67.9251 33.864 67.9396 34.3004C67.9541 34.7368 67.9697 35.1573 67.9864 35.5621H70.728V36.5429H68.0359C68.0688 36.9977 68.1112 37.413 68.1631 37.7888C68.2145 38.1658 68.2613 38.502 68.3028 38.7999C68.3346 38.8987 68.3595 38.9996 68.3773 39.1018C68.3938 39.1981 68.4103 39.2969 68.4268 39.3958C68.6017 39.0182 68.7549 38.6308 68.8856 38.2357C69.022 37.827 69.1462 37.3888 69.258 36.9213L70.2072 37.355C69.9224 38.5739 69.4649 39.7459 68.8487 40.8355C68.8816 40.9172 68.9179 41.0015 68.9574 41.086C68.9963 41.1703 69.0365 41.2521 69.0781 41.3312C69.3384 41.848 69.5452 42.1064 69.6983 42.1064C69.8018 42.1064 69.9218 41.5628 70.0583 40.4756L70.9699 40.9594C70.7095 42.4689 70.325 43.2235 69.8163 43.223C69.4314 43.223 68.995 42.8838 68.5072 42.2053C68.4075 42.0524 68.3225 41.8904 68.2534 41.7214C67.7264 42.3736 67.0851 42.9244 66.3609 43.347L65.7723 42.4979C66.588 42.0424 67.2783 41.392 67.7815 40.6048C67.707 40.3609 67.6316 40.1099 67.5554 39.852C67.4789 39.5936 67.4136 39.3238 67.3596 39.0425C67.1801 38.2192 67.062 37.3837 67.0063 36.5429H60.7539V35.562H63.4519V34.7381H61.3432L61.3432 33.7704ZM66.4479 40.9093V41.8402C66.175 41.8731 65.899 41.9039 65.62 41.9324C65.3411 41.9614 65.0584 41.9931 64.7735 42.026V43.3101H63.7313V42.1566C63.3384 42.1895 62.9392 42.2203 62.5336 42.2489C62.1289 42.2779 61.7168 42.3161 61.2996 42.3609L61.1632 41.3563C61.622 41.3392 62.0623 41.3155 62.4842 41.2851C62.906 41.2535 63.3218 41.2254 63.7313 41.2008V40.3635H61.6596L61.4421 39.5132C61.7319 39.1404 61.9834 38.7393 62.1929 38.3161H61.1013V37.3669H62.6082C62.6616 37.2498 62.7052 37.1286 62.7387 37.0044C62.7717 36.8831 62.813 36.7539 62.8626 36.6168L63.8798 36.7974C63.8389 36.9121 63.8059 37.0149 63.7809 37.1046C63.7551 37.1955 63.7197 37.2834 63.6754 37.3669H66.4974V38.3161H63.297C63.1856 38.5402 63.0729 38.7472 62.9589 38.9371C62.8448 39.127 62.7383 39.3112 62.6392 39.4895H63.7314V38.738H64.7736V39.4895H66.386V40.3635H64.7736V41.0886C65.0584 41.0649 65.3411 41.0359 65.62 41.0056C65.8988 40.9739 66.1748 40.9418 66.4479 40.9093ZM68.2653 33.5397L69.053 33.0071C69.5281 33.5352 69.9695 34.0926 70.3746 34.6761L69.5744 35.2456C69.4129 34.9899 69.2237 34.7183 69.0068 34.4309C68.7893 34.1435 68.5421 33.8464 68.2653 33.5397Z" fill="white"/>
<path d="M35.4373 28.4056C35.4518 27.2788 35.7511 26.174 36.3074 25.194C36.8636 24.214 37.6587 23.3905 38.6187 22.8004C38.0088 21.9294 37.2043 21.2126 36.269 20.707C35.3337 20.2013 34.2933 19.9207 33.2306 19.8875C30.9636 19.6495 28.7659 21.244 27.6107 21.244C26.4331 21.244 24.6545 19.9111 22.7392 19.9505C21.5003 19.9905 20.293 20.3508 19.2347 20.9962C18.1765 21.6416 17.3035 22.5501 16.7008 23.6331C14.0899 28.1535 16.0374 34.7969 18.5384 38.4509C19.7897 40.2401 21.2521 42.2387 23.1657 42.1678C25.0382 42.0901 25.7376 40.9738 27.9979 40.9738C30.2372 40.9738 30.8933 42.1678 32.8457 42.1227C34.855 42.0901 36.121 40.3256 37.3284 38.5194C38.2275 37.2445 38.9193 35.8355 39.3783 34.3445C38.2109 33.8508 37.2147 33.0243 36.5139 31.9682C35.8131 30.9121 35.4387 29.6731 35.4373 28.4056Z" fill="white"/>
<path d="M31.75 17.4838C32.8456 16.1686 33.3853 14.4782 33.2546 12.7715C31.5809 12.9473 30.0348 13.7472 28.9244 15.012C28.3815 15.6298 27.9657 16.3486 27.7008 17.1272C27.4359 17.9059 27.327 18.7291 27.3804 19.5498C28.2176 19.5585 29.0458 19.377 29.8027 19.0191C30.5596 18.6613 31.2254 18.1363 31.75 17.4838Z" fill="white"/>
</g>
<defs>
<clipPath id="clip0_1015_5555">
<rect width="146.95" height="54" fill="white" transform="translate(2 1)"/>
</clipPath>
</defs>
</svg>
