<svg width="250" height="169" viewBox="0 0 250 169" fill="none" xmlns="http://www.w3.org/2000/svg">
<path d="M189.458 34.6281C171.061 -9.79381 106.672 -13.2893 76.568 34.7152C9.07063 23.5466 8.99681 115.653 69.5264 115.653C86.2508 143.596 120.888 156.235 153.501 132.591C187.786 146.921 215.528 129.53 218.037 107.319C268.938 102.234 258.779 8.19551 189.458 34.6281Z" fill="url(#paint0_linear_1015_5299)"/>
<ellipse cx="41" cy="142.5" rx="17" ry="17.5" fill="url(#paint1_linear_1015_5299)"/>
<ellipse cx="9" cy="160.5" rx="9" ry="8.5" fill="url(#paint2_linear_1015_5299)"/>
<path d="M102.82 67.3H109.5V68.76H102.82V67.3ZM110.1 67.3H116.96V68.76H110.1V67.3ZM105.38 66.34H107.1V71.54H105.38V66.34ZM108.46 72.66H110.54V76.54H108.46V72.66ZM112.34 66.34H114.1V71.54H112.34V66.34ZM105.52 75.3V76.08H113.54V75.3H105.52ZM105.52 73.42V74.18H113.54V73.42H105.52ZM103.46 72.08H115.68V77.42H103.46V72.08ZM111.7 78.42C112.247 78.4067 112.853 78.3867 113.52 78.36C114.187 78.3333 114.9 78.3133 115.66 78.3L115.64 79.28C114.96 79.3467 114.313 79.4067 113.7 79.46C113.087 79.5133 112.493 79.5733 111.92 79.64L111.7 78.42ZM105.38 68.06L106.6 68.52C106.387 68.9067 106.107 69.2933 105.76 69.68C105.413 70.0667 105.033 70.4267 104.62 70.76C104.207 71.08 103.787 71.34 103.36 71.54C103.227 71.3533 103.047 71.1333 102.82 70.88C102.607 70.6133 102.407 70.4067 102.22 70.26C102.633 70.1133 103.04 69.9267 103.44 69.7C103.84 69.46 104.207 69.2 104.54 68.92C104.887 68.64 105.167 68.3533 105.38 68.06ZM112.36 68.06L113.58 68.52C113.367 68.9067 113.087 69.2933 112.74 69.68C112.393 70.0667 112.013 70.4267 111.6 70.76C111.2 71.08 110.78 71.34 110.34 71.54C110.22 71.3533 110.047 71.1333 109.82 70.88C109.607 70.6133 109.407 70.4067 109.22 70.26C109.633 70.1133 110.033 69.9267 110.42 69.7C110.82 69.46 111.187 69.2 111.52 68.92C111.867 68.64 112.147 68.3533 112.36 68.06ZM114.24 68.24C114.48 68.4933 114.773 68.7533 115.12 69.02C115.467 69.2733 115.84 69.5067 116.24 69.72C116.653 69.9333 117.047 70.1133 117.42 70.26C117.22 70.4067 117.007 70.6133 116.78 70.88C116.553 71.1333 116.367 71.3667 116.22 71.58C115.847 71.38 115.453 71.1267 115.04 70.82C114.627 70.5133 114.24 70.18 113.88 69.82C113.52 69.46 113.213 69.1133 112.96 68.78L114.24 68.24ZM105.68 77.14H108.02C107.86 77.9 107.6 78.58 107.24 79.18C106.893 79.78 106.367 80.3 105.66 80.74C104.953 81.18 103.993 81.56 102.78 81.88C102.713 81.6933 102.607 81.48 102.46 81.24C102.313 81 102.153 80.7667 101.98 80.54C101.82 80.3133 101.66 80.1333 101.5 80C102.527 79.8133 103.32 79.5867 103.88 79.32C104.44 79.04 104.853 78.7267 105.12 78.38C105.387 78.02 105.573 77.6067 105.68 77.14ZM109.24 77.1H111.32V79.52C111.32 79.76 111.373 79.9133 111.48 79.98C111.6 80.0467 111.867 80.08 112.28 80.08C112.373 80.08 112.533 80.08 112.76 80.08C113 80.08 113.26 80.08 113.54 80.08C113.82 80.08 114.08 80.08 114.32 80.08C114.573 80.08 114.76 80.08 114.88 80.08C115.093 80.08 115.253 80.0533 115.36 80C115.467 79.9467 115.547 79.8333 115.6 79.66C115.653 79.4867 115.693 79.24 115.72 78.92C115.933 79.0533 116.207 79.18 116.54 79.3C116.887 79.4067 117.2 79.4933 117.48 79.56C117.413 80.12 117.293 80.5533 117.12 80.86C116.947 81.1667 116.7 81.38 116.38 81.5C116.073 81.6333 115.653 81.7 115.12 81.7C115.027 81.7 114.873 81.7 114.66 81.7C114.447 81.7 114.213 81.7 113.96 81.7C113.707 81.7 113.447 81.7 113.18 81.7C112.927 81.7 112.7 81.7 112.5 81.7C112.3 81.7 112.147 81.7 112.04 81.7C111.293 81.7 110.713 81.6333 110.3 81.5C109.9 81.38 109.62 81.16 109.46 80.84C109.313 80.5333 109.24 80.1 109.24 79.54V77.1ZM108.18 70.88L110.54 71.16C110.327 71.5067 110.1 71.8333 109.86 72.14C109.633 72.4333 109.44 72.6867 109.28 72.9L107.54 72.54C107.66 72.26 107.78 71.9733 107.9 71.68C108.033 71.3733 108.127 71.1067 108.18 70.88ZM112.68 76.68L114.2 77.1C114.053 77.4467 113.92 77.7933 113.8 78.14C113.68 78.4733 113.567 78.7667 113.46 79.02L112.3 78.64C112.38 78.36 112.453 78.0333 112.52 77.66C112.6 77.2867 112.653 76.96 112.68 76.68ZM114.38 77.8L115.66 77.4C115.887 77.68 116.093 78 116.28 78.36C116.48 78.72 116.627 79.0333 116.72 79.3L115.36 79.74C115.293 79.4733 115.16 79.16 114.96 78.8C114.773 78.44 114.58 78.1067 114.38 77.8ZM107 68.76C107.12 68.8133 107.3 68.8867 107.54 68.98C107.78 69.0733 108.033 69.18 108.3 69.3C108.58 69.42 108.827 69.5333 109.04 69.64C109.267 69.7467 109.427 69.8267 109.52 69.88L108.46 71.12C108.327 71.0133 108.16 70.8867 107.96 70.74C107.76 70.5933 107.54 70.44 107.3 70.28C107.06 70.1067 106.827 69.9467 106.6 69.8C106.373 69.6533 106.187 69.5333 106.04 69.44L107 68.76ZM107.36 63H109.86V65.66H107.36V63ZM101.38 64.48H117.2V66.44H101.38V64.48ZM100 64.48H102.22V70.88C102.22 71.68 102.193 72.56 102.14 73.52C102.087 74.48 101.993 75.46 101.86 76.46C101.727 77.4467 101.527 78.4133 101.26 79.36C100.993 80.2933 100.64 81.1333 100.2 81.88C100.08 81.7333 99.9067 81.56 99.68 81.36C99.4533 81.16 99.22 80.9733 98.98 80.8C98.7533 80.6267 98.5533 80.5 98.38 80.42C98.7533 79.74 99.0467 79 99.26 78.2C99.4867 77.3867 99.6533 76.56 99.76 75.72C99.8667 74.8667 99.9333 74.0333 99.96 73.22C99.9867 72.3933 100 71.6133 100 70.88V64.48ZM124.18 71.02H137.16V73.3H124.18V71.02ZM125.18 65.88H136.2V68.18H125.18V65.88ZM129.36 63H131.84V72.68H129.36V63ZM124.2 78.56C125.093 78.52 126.127 78.4733 127.3 78.42C128.487 78.3667 129.74 78.3 131.06 78.22C132.393 78.14 133.72 78.0667 135.04 78L135.02 80.18C133.78 80.2733 132.527 80.3733 131.26 80.48C130.007 80.5867 128.8 80.68 127.64 80.76C126.493 80.84 125.447 80.92 124.5 81L124.2 78.56ZM131.86 75.8L133.92 74.7C134.427 75.2867 134.92 75.9267 135.4 76.62C135.893 77.3133 136.34 78 136.74 78.68C137.14 79.36 137.44 79.9867 137.64 80.56L135.36 81.8C135.187 81.2533 134.913 80.6333 134.54 79.94C134.167 79.2467 133.747 78.54 133.28 77.82C132.813 77.0867 132.34 76.4133 131.86 75.8ZM127.8 72.64L130.48 73.34C130.187 74.1 129.867 74.88 129.52 75.68C129.187 76.48 128.847 77.24 128.5 77.96C128.167 78.68 127.847 79.32 127.54 79.88L125.4 79.18C125.613 78.74 125.833 78.2533 126.06 77.72C126.287 77.1733 126.507 76.6067 126.72 76.02C126.947 75.4333 127.147 74.8533 127.32 74.28C127.507 73.6933 127.667 73.1467 127.8 72.64ZM119.72 64.86L121.04 63.08C121.48 63.24 121.94 63.4333 122.42 63.66C122.9 63.8867 123.36 64.1267 123.8 64.38C124.24 64.6333 124.6 64.88 124.88 65.12L123.48 67.08C123.213 66.84 122.867 66.5867 122.44 66.32C122.027 66.04 121.58 65.7733 121.1 65.52C120.62 65.2533 120.16 65.0333 119.72 64.86ZM118.58 70.3L119.82 68.48C120.247 68.6267 120.707 68.8067 121.2 69.02C121.693 69.2333 122.16 69.46 122.6 69.7C123.053 69.9267 123.42 70.1467 123.7 70.36L122.38 72.38C122.113 72.1533 121.76 71.9133 121.32 71.66C120.893 71.4067 120.44 71.16 119.96 70.92C119.48 70.68 119.02 70.4733 118.58 70.3ZM119.12 79.98C119.467 79.4733 119.84 78.8733 120.24 78.18C120.653 77.4867 121.067 76.7533 121.48 75.98C121.907 75.2067 122.307 74.4333 122.68 73.66L124.48 75.2C124.16 75.8933 123.813 76.6067 123.44 77.34C123.08 78.06 122.707 78.7733 122.32 79.48C121.947 80.1867 121.573 80.8667 121.2 81.52L119.12 79.98ZM138.74 67.84H157.32V70.14H138.74V67.84ZM142.86 78.2H156.62V80.52H142.86V78.2ZM147.82 73.3H152.94V75.54H147.82V73.3ZM141.62 63.62H144.08V81.8H141.62V63.62ZM146.8 63.18H149.24V76.36H146.8V63.18ZM151.9 63.38H154.34V76.34H151.9V63.38ZM163.28 68.86V70.3H172.74V68.86H163.28ZM163.28 65.62V67.06H172.74V65.62H163.28ZM160.9 63.68H175.24V72.24H160.9V63.68ZM170.76 70.96C171.2 71.56 171.76 72.12 172.44 72.64C173.133 73.16 173.907 73.62 174.76 74.02C175.627 74.4067 176.527 74.7133 177.46 74.94C177.287 75.1 177.1 75.3 176.9 75.54C176.7 75.78 176.507 76.0333 176.32 76.3C176.133 76.5533 175.98 76.7867 175.86 77C174.887 76.6667 173.953 76.2467 173.06 75.74C172.18 75.22 171.367 74.62 170.62 73.94C169.887 73.2467 169.26 72.5 168.74 71.7L170.76 70.96ZM165.3 70.96L167.4 71.78C166.867 72.54 166.22 73.26 165.46 73.94C164.713 74.62 163.893 75.2267 163 75.76C162.12 76.2933 161.2 76.7267 160.24 77.06C160.133 76.86 159.987 76.64 159.8 76.4C159.613 76.16 159.42 75.92 159.22 75.68C159.02 75.44 158.833 75.2467 158.66 75.1C159.553 74.8333 160.42 74.4933 161.26 74.08C162.113 73.6533 162.887 73.1733 163.58 72.64C164.287 72.1067 164.86 71.5467 165.3 70.96ZM163.88 74.62H166.34V76C166.34 76.48 166.287 76.9933 166.18 77.54C166.073 78.0733 165.867 78.6067 165.56 79.14C165.253 79.6733 164.793 80.18 164.18 80.66C163.58 81.14 162.773 81.56 161.76 81.92C161.667 81.72 161.52 81.5 161.32 81.26C161.133 81.02 160.933 80.78 160.72 80.54C160.507 80.3133 160.307 80.12 160.12 79.96C160.96 79.6933 161.627 79.3933 162.12 79.06C162.627 78.7267 163 78.38 163.24 78.02C163.493 77.66 163.66 77.3 163.74 76.94C163.833 76.5667 163.88 76.22 163.88 75.9V74.62ZM166.78 64.68H169.2V71.26H166.78V64.68ZM169.96 74.66H172.46V81.72H169.96V74.66Z" fill="black"/>
<defs>
<linearGradient id="paint0_linear_1015_5299" x1="132.452" y1="18.5539" x2="154.803" y2="237.601" gradientUnits="userSpaceOnUse">
<stop offset="0.0671484" stop-color="#ECFAFD"/>
<stop offset="1" stop-color="#97C1FF"/>
</linearGradient>
<linearGradient id="paint1_linear_1015_5299" x1="40.2372" y1="129.479" x2="48.7194" y2="181.52" gradientUnits="userSpaceOnUse">
<stop offset="0.0671484" stop-color="#ECFAFD"/>
<stop offset="1" stop-color="#97C1FF"/>
</linearGradient>
<linearGradient id="paint2_linear_1015_5299" x1="8.59619" y1="154.175" x2="12.3916" y2="179.557" gradientUnits="userSpaceOnUse">
<stop offset="0.0671484" stop-color="#ECFAFD"/>
<stop offset="1" stop-color="#97C1FF"/>
</linearGradient>
</defs>
</svg>
