<svg width="228" height="147" viewBox="0 0 228 147" fill="none" xmlns="http://www.w3.org/2000/svg">
<path d="M166.651 35.1058C148.009 -9.9289 82.7611 -13.4726 52.2556 35.1941C-16.1418 23.8713 -16.2166 117.248 45.12 117.248C62.0675 145.576 97.1664 158.39 130.214 134.42C164.956 148.947 193.069 131.317 195.611 108.8C247.191 103.644 236.896 8.30855 166.651 35.1058Z" fill="url(#paint0_linear_1015_5294)"/>
<path d="M74.94 70.92H80.58V73.14H74.94V70.92ZM74.66 65.2H81.02V67.38H74.66V65.2ZM74.46 78.46C76.1 78.04 78.5 77.28 80.78 76.56L81.14 78.68C79.06 79.4 76.8 80.12 75.02 80.7L74.46 78.46ZM76.76 66.52H78.98V77.86L76.76 78.44V66.52ZM81.76 65.1H93.12V67.4H81.76V65.1ZM86.72 66.38L89.14 67.04C87.7 71.1 85.32 75.02 82.78 77.44C82.38 76.96 81.44 75.98 80.9 75.54C83.38 73.46 85.52 70.02 86.72 66.38ZM87.5 71.62L89.34 70.34C90.7 71.96 92.5 74.18 93.3 75.62L91.32 77.1C90.6 75.64 88.88 73.32 87.5 71.62ZM85.7 70.12L88.08 69.24V82.78H85.7V70.12ZM101.46 65.28H112.94V67.14H101.46V65.28ZM101.02 68.66H113.32V70.62H101.02V68.66ZM105.84 64.06H108.2V66.52H105.84V64.06ZM108.86 66.78L111.2 67.22C111 67.58 110.82 67.92 110.66 68.24C110.5 68.5467 110.353 68.8133 110.22 69.04L108.14 68.64C108.273 68.36 108.407 68.0467 108.54 67.7C108.673 67.3533 108.78 67.0467 108.86 66.78ZM103.18 67.28L105.26 66.84C105.42 67.0933 105.56 67.3867 105.68 67.72C105.813 68.0533 105.907 68.3467 105.96 68.6L103.78 69.1C103.753 68.8467 103.68 68.5533 103.56 68.22C103.44 67.8733 103.313 67.56 103.18 67.28ZM104.4 75.26V76.28H110.04V75.26H104.4ZM104.4 72.88V73.86H110.04V72.88H104.4ZM102.14 71.38H112.38V77.76H102.14V71.38ZM107.64 77.3H109.92V80.1C109.92 80.34 109.94 80.4933 109.98 80.56C110.033 80.6267 110.147 80.66 110.32 80.66C110.373 80.66 110.46 80.66 110.58 80.66C110.713 80.66 110.84 80.66 110.96 80.66C111.08 80.66 111.173 80.66 111.24 80.66C111.36 80.66 111.447 80.62 111.5 80.54C111.553 80.46 111.593 80.3 111.62 80.06C111.66 79.82 111.687 79.4467 111.7 78.94C111.847 79.0467 112.033 79.16 112.26 79.28C112.5 79.3867 112.747 79.4867 113 79.58C113.267 79.66 113.5 79.7267 113.7 79.78C113.633 80.5533 113.513 81.1533 113.34 81.58C113.18 82.0067 112.947 82.3 112.64 82.46C112.347 82.62 111.967 82.7 111.5 82.7C111.407 82.7 111.287 82.7 111.14 82.7C111.007 82.7 110.86 82.7 110.7 82.7C110.553 82.7 110.413 82.7 110.28 82.7C110.147 82.7 110.033 82.7 109.94 82.7C109.313 82.7 108.833 82.6133 108.5 82.44C108.167 82.28 107.94 82.0133 107.82 81.64C107.7 81.2667 107.64 80.76 107.64 80.12V77.3ZM103.98 77.2H106.32C106.227 77.88 106.073 78.5067 105.86 79.08C105.66 79.6533 105.36 80.1733 104.96 80.64C104.56 81.1067 104.02 81.5267 103.34 81.9C102.66 82.2733 101.8 82.5933 100.76 82.86C100.693 82.66 100.58 82.4267 100.42 82.16C100.273 81.9067 100.113 81.66 99.94 81.42C99.78 81.18 99.62 80.9867 99.46 80.84C100.34 80.6667 101.06 80.4667 101.62 80.24C102.18 80 102.613 79.7333 102.92 79.44C103.24 79.1333 103.48 78.8 103.64 78.44C103.8 78.0667 103.913 77.6533 103.98 77.2ZM94.9 68.78H100.92V71.02H94.9V68.78ZM96.88 64.3H99.12V77.58H96.88V64.3ZM94.44 77.38C95 77.18 95.6333 76.94 96.34 76.66C97.0467 76.38 97.8 76.0733 98.6 75.74C99.4 75.4067 100.193 75.0733 100.98 74.74L101.5 76.88C100.447 77.3733 99.3733 77.8733 98.28 78.38C97.1867 78.8867 96.18 79.3533 95.26 79.78L94.44 77.38ZM125.66 71.08H128.06V82.8H125.66V71.08ZM120.38 73.6H133.24V75.76H120.38V73.6ZM128.52 74.56C128.893 75.28 129.36 75.9933 129.92 76.7C130.493 77.4067 131.113 78.06 131.78 78.66C132.46 79.26 133.147 79.76 133.84 80.16C133.667 80.2933 133.467 80.4733 133.24 80.7C133.027 80.9267 132.82 81.16 132.62 81.4C132.433 81.64 132.273 81.86 132.14 82.06C131.447 81.5667 130.76 80.9533 130.08 80.22C129.413 79.4867 128.787 78.6933 128.2 77.84C127.627 76.9733 127.133 76.0933 126.72 75.2L128.52 74.56ZM125.32 74.36L127.2 75.02C126.773 75.9533 126.253 76.8667 125.64 77.76C125.027 78.64 124.353 79.4467 123.62 80.18C122.887 80.9 122.12 81.5133 121.32 82.02C121.2 81.82 121.04 81.6 120.84 81.36C120.653 81.12 120.453 80.8933 120.24 80.68C120.04 80.4533 119.847 80.26 119.66 80.1C120.433 79.7 121.18 79.2 121.9 78.6C122.62 77.9867 123.273 77.32 123.86 76.6C124.46 75.8667 124.947 75.12 125.32 74.36ZM123.98 67V69.68H129.86V67H123.98ZM121.72 64.88H132.28V71.78H121.72V64.88ZM119.1 64.06L121.32 64.78C120.88 65.9133 120.353 67.0467 119.74 68.18C119.14 69.3 118.487 70.3667 117.78 71.38C117.087 72.38 116.373 73.26 115.64 74.02C115.573 73.82 115.467 73.5667 115.32 73.26C115.173 72.9533 115.013 72.64 114.84 72.32C114.667 72 114.507 71.7467 114.36 71.56C114.987 70.9467 115.593 70.24 116.18 69.44C116.767 68.64 117.307 67.78 117.8 66.86C118.307 65.94 118.74 65.0067 119.1 64.06ZM117.16 69.58L119.44 67.3V67.32V82.74H117.16V69.58ZM134.48 74.16C136.3 73.78 138.98 73.08 141.54 72.4L141.84 74.56C139.5 75.26 137 75.96 135.02 76.5L134.48 74.16ZM134.82 67.82H141.64V70.1H134.82V67.82ZM137.3 64.04H139.64V80C139.64 81.14 139.46 81.82 138.82 82.2C138.18 82.6 137.28 82.68 135.94 82.68C135.86 82.04 135.58 81 135.26 80.32C136 80.34 136.72 80.34 136.96 80.34C137.22 80.34 137.3 80.26 137.3 79.98V64.04ZM144.38 72.56H151.48V74.82H144.38V72.56ZM144.26 67.44H152.72V75.88H150.34V69.58H144.26V67.44ZM142.62 67.44H145.02V72.58C145.02 75.72 144.6 80.16 142.18 82.86C141.8 82.38 140.78 81.46 140.24 81.14C142.4 78.72 142.62 75.2 142.62 72.54V67.44ZM145.7 64.88L147.88 64.08C148.56 64.94 149.24 66.08 149.54 66.86L147.26 67.8C147 66.98 146.32 65.78 145.7 64.88Z" fill="black"/>
<defs>
<linearGradient id="paint0_linear_1015_5294" x1="108.885" y1="18.8098" x2="131.554" y2="240.876" gradientUnits="userSpaceOnUse">
<stop offset="0.0671484" stop-color="#ECFAFD"/>
<stop offset="1" stop-color="#97C1FF"/>
</linearGradient>
</defs>
</svg>
