<svg width="149" height="56" viewBox="0 0 149 56" fill="none" xmlns="http://www.w3.org/2000/svg">
<path d="M135.131 1H13.8762C13.381 1 12.8917 1 12.3978 1.0027C11.9844 1.0054 11.5742 1.01325 11.1568 1.01985C10.25 1.03052 9.34533 1.1103 8.45064 1.25849C7.5572 1.40991 6.69176 1.69537 5.88357 2.10523C5.07637 2.51856 4.33881 3.05563 3.69764 3.69697C3.05311 4.3365 2.51584 5.07572 2.1065 5.88619C1.69603 6.69505 1.41141 7.56182 1.26246 8.45655C1.1121 9.35016 1.03119 10.2541 1.02046 11.1602C1.00793 11.5742 1.0066 11.9897 1 12.4038V43.6187C1.0066 44.038 1.00793 44.4443 1.02046 44.8637C1.0312 45.7698 1.11211 46.6736 1.26246 47.5672C1.41099 48.4625 1.69563 49.3297 2.1065 50.1389C2.51566 50.9467 3.053 51.683 3.69764 52.3189C4.33638 52.9631 5.07442 53.5006 5.88357 53.9107C6.69175 54.3217 7.5571 54.6088 8.45064 54.7626C9.34548 54.9096 10.2501 54.9894 11.1568 55.0014C11.5742 55.0105 11.9844 55.0158 12.3978 55.0158C12.8917 55.0185 13.381 55.0185 13.8762 55.0185H135.131C135.616 55.0185 136.11 55.0185 136.595 55.0158C137.006 55.0158 137.428 55.0105 137.84 55.0014C138.745 54.9901 139.648 54.9102 140.541 54.7626C141.437 54.6078 142.306 54.3207 143.118 53.9107C143.926 53.5003 144.664 52.9629 145.302 52.3189C145.945 51.6805 146.483 50.9448 146.897 50.1389C147.305 49.3291 147.587 48.4619 147.734 47.5672C147.884 46.6735 147.968 45.7698 147.984 44.8637C147.989 44.4443 147.989 44.038 147.989 43.6187C148 43.1281 148 42.6402 148 42.1416V13.8782C148 13.3836 148 12.893 147.989 12.4038C147.989 11.9897 147.989 11.5742 147.984 11.1601C147.968 10.2539 147.884 9.35023 147.734 8.4565C147.587 7.56228 147.305 6.69558 146.897 5.88614C146.064 4.26163 144.742 2.9393 143.118 2.10511C142.306 1.69625 141.437 1.41087 140.541 1.25837C139.648 1.10953 138.745 1.02972 137.84 1.01966C137.428 1.01307 137.006 1.00516 136.595 1.00253C136.11 1 135.616 1 135.131 1Z" fill="#A6A6A6"/>
<path d="M12.4051 53.8368C11.9937 53.8368 11.5922 53.8316 11.1839 53.8224C10.3383 53.8114 9.49455 53.7377 8.65973 53.6021C7.88131 53.4681 7.12724 53.2187 6.42237 52.8622C5.72397 52.5087 5.08697 52.0451 4.53577 51.4893C3.9766 50.9401 3.51106 50.303 3.15761 49.6034C2.80026 48.8993 2.55296 48.1445 2.42431 47.3654C2.28538 46.5283 2.21021 45.6818 2.19946 44.8333C2.1909 44.5485 2.17969 43.6002 2.17969 43.6002V12.4038C2.17969 12.4038 2.19163 11.47 2.19953 11.1957C2.20982 10.3485 2.28455 9.50338 2.42307 8.66755C2.55195 7.88633 2.79945 7.1294 3.15699 6.42294C3.50914 5.72383 3.9721 5.0863 4.5279 4.53507C5.08308 3.9786 5.72212 3.51266 6.42171 3.15426C7.12495 2.79893 7.87761 2.55131 8.65445 2.41969C9.49201 2.2827 10.3386 2.20864 11.1873 2.19813L12.4058 2.18164H136.589L137.822 2.19879C138.663 2.20878 139.502 2.28218 140.332 2.41836C141.116 2.55163 141.877 2.80098 142.588 3.15821C143.99 3.8805 145.13 5.02323 145.85 6.42624C146.202 7.12781 146.445 7.87858 146.573 8.65306C146.713 9.49575 146.791 10.3475 146.807 11.2017C146.811 11.5841 146.811 11.9949 146.811 12.4038C146.822 12.9102 146.822 13.3922 146.822 13.8782V42.1416C146.822 42.6322 146.822 43.1109 146.811 43.5936C146.811 44.0328 146.811 44.4351 146.806 44.8491C146.79 45.688 146.713 46.5246 146.575 47.3522C146.449 48.1369 146.203 48.8975 145.846 49.6075C145.49 50.2995 145.027 50.931 144.474 51.4788C143.923 52.0376 143.284 52.5039 142.584 52.8596C141.875 53.2189 141.116 53.4692 140.332 53.6021C139.497 53.7385 138.653 53.8121 137.808 53.8224C137.412 53.8316 136.998 53.8368 136.596 53.8368L135.132 53.8395L12.4051 53.8368Z" fill="black"/>
<path d="M56.5952 23.3573H51.1237L49.8097 27.2372H47.4922L52.6747 12.8828H55.0826L60.2651 27.2372H57.908L56.5952 23.3573ZM51.6903 21.567H56.0274L53.8894 15.2703H53.8296L51.6903 21.567Z" fill="white"/>
<path d="M71.4558 22.0048C71.4558 25.257 69.7152 27.3465 67.0884 27.3465C66.4229 27.3813 65.7612 27.228 65.1788 26.9042C64.5965 26.5804 64.1171 26.0991 63.7955 25.5155H63.7459V30.6992H61.5977V16.7715H63.677V18.5122H63.7165C64.0528 17.9314 64.5403 17.4526 65.1271 17.1269C65.7139 16.8011 66.378 16.6404 67.0489 16.6621C69.705 16.662 71.4558 18.7617 71.4558 22.0048ZM69.2478 22.0048C69.2478 19.8859 68.1529 18.493 66.4822 18.493C64.8408 18.493 63.7368 19.9153 63.7368 22.0048C63.7368 24.1135 64.8408 25.5257 66.4822 25.5257C68.1529 25.5257 69.2478 24.1428 69.2478 22.0048Z" fill="white"/>
<path d="M82.9759 22.0048C82.9759 25.257 81.2347 27.3465 78.6079 27.3465C77.9425 27.3813 77.2807 27.228 76.6983 26.9042C76.116 26.5804 75.6366 26.0991 75.315 25.5155H75.2654V30.6992H73.1172V16.7715H75.1965V18.5122H75.236C75.5724 17.9314 76.0599 17.4526 76.6467 17.1269C77.2334 16.8011 77.8976 16.6404 78.5684 16.6621C81.2245 16.662 82.9759 18.7617 82.9759 22.0048ZM80.7673 22.0048C80.7673 19.8859 79.6724 18.493 78.0017 18.493C76.3603 18.493 75.2563 19.9153 75.2563 22.0048C75.2563 24.1135 76.3603 25.5257 78.0017 25.5257C79.6724 25.5257 80.7673 24.1428 80.7673 22.0048Z" fill="white"/>
<path d="M90.5896 23.2368C90.7488 24.6602 92.1316 25.5949 94.0213 25.5949C95.832 25.5949 97.1346 24.6602 97.1346 23.3767C97.1346 22.2626 96.349 21.5955 94.4886 21.1382L92.6283 20.6901C89.9925 20.0534 88.7688 18.8207 88.7688 16.8204C88.7688 14.3437 90.9271 12.6426 93.9908 12.6426C97.0252 12.6426 99.1045 14.3437 99.1745 16.8204H97.006C96.8761 15.3879 95.692 14.5233 93.9615 14.5233C92.231 14.5233 91.0468 15.3981 91.0468 16.6715C91.0468 17.6863 91.8031 18.2835 93.6533 18.7406L95.2348 19.129C98.18 19.8255 99.4025 21.0085 99.4025 23.1081C99.4025 25.7937 97.2645 27.4756 93.8621 27.4756C90.6788 27.4756 88.5295 25.8332 88.3906 23.2368L90.5896 23.2368Z" fill="white"/>
<path d="M104.039 14.2931V16.7698H106.03V18.471H104.039V24.2405C104.039 25.1368 104.438 25.5545 105.313 25.5545C105.549 25.5504 105.785 25.5338 106.019 25.5048V27.1958C105.626 27.2693 105.226 27.3026 104.826 27.2952C102.707 27.2952 101.881 26.4993 101.881 24.4697V18.4709H100.359V16.7697H101.881V14.293L104.039 14.2931Z" fill="white"/>
<path d="M107.18 22.0026C107.18 18.7098 109.119 16.6406 112.143 16.6406C115.178 16.6406 117.108 18.7098 117.108 22.0026C117.108 25.3045 115.188 27.3646 112.143 27.3646C109.1 27.3646 107.18 25.3045 107.18 22.0026ZM114.919 22.0026C114.919 19.7438 113.884 18.4106 112.143 18.4106C110.403 18.4106 109.367 19.754 109.367 22.0026C109.367 24.2705 110.403 25.5935 112.143 25.5935C113.884 25.5935 114.919 24.2705 114.919 22.0026Z" fill="white"/>
<path d="M118.883 16.7715H120.932V18.5528H120.981C121.12 17.9965 121.446 17.5048 121.904 17.1605C122.363 16.8161 122.926 16.6401 123.499 16.662C123.746 16.6611 123.993 16.688 124.235 16.7421V18.7515C123.922 18.656 123.596 18.6121 123.269 18.6216C122.957 18.609 122.646 18.664 122.357 18.7829C122.069 18.9019 121.809 19.0819 121.596 19.3107C121.384 19.5394 121.223 19.8115 121.125 20.1082C121.028 20.4049 120.996 20.7192 121.031 21.0295V27.237H118.883V16.7715Z" fill="white"/>
<path d="M134.136 24.161C133.9 25.15 133.313 26.0197 132.484 26.6089C131.655 27.198 130.641 27.4666 129.629 27.3646C126.585 27.3646 124.695 25.3248 124.695 22.0523C124.695 18.7696 126.595 16.6406 129.539 16.6406C132.435 16.6406 134.255 18.6296 134.255 21.8028V22.5388H126.864V22.6686C126.83 23.0538 126.878 23.4418 127.005 23.8069C127.133 24.172 127.336 24.5058 127.603 24.7862C127.869 25.0665 128.192 25.287 128.55 25.4331C128.908 25.5791 129.293 25.6472 129.679 25.633C130.187 25.6806 130.696 25.563 131.132 25.2978C131.567 25.0326 131.905 24.6339 132.096 24.161L134.136 24.161ZM126.874 21.0375H132.106C132.125 20.6911 132.073 20.3446 131.952 20.0195C131.831 19.6945 131.644 19.3979 131.403 19.1485C131.162 18.8991 130.872 18.7022 130.551 18.5702C130.231 18.4381 129.886 18.3738 129.539 18.3813C129.189 18.3792 128.843 18.4464 128.519 18.5791C128.195 18.7117 127.901 18.9071 127.653 19.1541C127.405 19.401 127.209 19.6946 127.075 20.0178C126.941 20.3411 126.873 20.6876 126.874 21.0375Z" fill="white"/>
<path d="M50.209 42.6108L50.298 41.5043C50.7129 41.6382 51.1459 41.7071 51.5819 41.7087C51.9762 41.7087 52.1285 41.6705 52.3197 41.4028C52.7847 40.4295 52.9861 39.3513 52.904 38.2759C52.904 37.1311 52.5486 36.8001 51.6458 36.8001C51.4421 36.8001 51.2133 36.8133 50.9587 36.8265C50.4729 38.801 49.6656 40.6821 48.569 42.3944L47.5133 41.8221C48.5433 40.3421 49.297 38.6881 49.7382 36.9398C49.0416 37.0152 48.3498 37.1301 47.6663 37.284L47.4375 36.1644C48.213 36.0246 49.1407 35.898 50.0052 35.8215C50.1829 34.9773 50.3146 34.1241 50.3996 33.2656L51.6458 33.4054C51.531 34.1809 51.3913 34.9577 51.2133 35.7199H51.7092C53.324 35.7199 54.0995 36.5205 54.0995 38.2244C54.1695 39.5245 53.9162 40.8218 53.3622 42.0001C53.2163 42.271 52.9937 42.4927 52.7222 42.6374C52.4508 42.7822 52.1426 42.8436 51.8364 42.8138C51.2878 42.8102 50.7416 42.742 50.209 42.6108ZM54.3026 35.7582L55.231 35.1345C56.5183 36.3761 57.2939 38.0549 57.4051 39.84L56.1845 40.0299C56.1755 39.2277 56.0042 38.4356 55.6807 37.7015C55.3573 36.9673 54.8885 36.3063 54.3026 35.7582Z" fill="white"/>
<path d="M61.6184 42.788L61.3645 41.6432C61.6823 41.6696 62.1017 41.6815 62.3562 41.6815C64.8732 41.6815 65.8267 40.9706 65.8267 39.9143C65.8267 39.0755 65.28 38.5928 64.0595 38.5928C62.7287 38.7148 61.4891 39.3212 60.5758 40.2967L59.5966 39.8642C59.4112 38.1987 59.7919 36.5193 60.6774 35.0966L61.809 35.4645C61.1039 36.4166 60.7614 37.5889 60.843 38.7708C61.8626 38.0517 63.0675 37.6411 64.3141 37.5878C66.018 37.5878 67.0731 38.4648 67.0731 39.8891C67.0731 41.6946 65.6487 42.8011 62.2291 42.8011C62.0635 42.8012 61.8221 42.788 61.6184 42.788ZM60.436 34.3462L60.7539 33.2266C62.4453 33.4853 64.1155 33.8679 65.7509 34.3713L65.4456 35.4778C63.8131 34.9509 62.1365 34.5722 60.436 34.3462Z" fill="white"/>
<path d="M70.7578 41.9115C72.0689 41.4799 73.2467 40.7178 74.1775 39.6986C73.4401 39.0874 72.6438 38.5511 71.8003 38.0975L72.4993 37.2205C73.3498 37.653 74.1584 38.1634 74.9147 38.7451C75.5221 37.8591 75.9459 36.8605 76.161 35.8081H72.9187C72.1737 37.0149 71.2377 38.0928 70.1472 38.9996L69.2188 38.1991C70.7882 36.9044 72.0044 35.2334 72.7538 33.3419L73.9744 33.6347C73.8346 33.9908 73.6948 34.3587 73.5293 34.7029H76.6826L77.5854 35.1223C77.3663 36.8479 76.6846 38.4822 75.6125 39.852C74.5403 41.2219 73.1176 42.2762 71.4951 42.9033L70.7578 41.9115ZM76.1227 33.0372L76.8349 32.693C77.1963 33.177 77.4994 33.702 77.7376 34.2571L76.9364 34.6264C76.7348 34.0638 76.4613 33.5297 76.1227 33.0372ZM77.7119 32.9093L78.4366 32.5664C78.8029 33.0655 79.1142 33.6027 79.365 34.1688L78.5638 34.5117C78.3508 33.9427 78.0644 33.4041 77.7119 32.9093Z" fill="white"/>
<path d="M83.2776 42.8521L82.6294 41.8221C83.9397 41.613 85.1247 40.9224 85.9525 39.8854C86.7803 38.8484 87.1913 37.5398 87.1049 36.2158H81.765V38.7717H80.4805V35.1344H83.672V33.2656H84.9558V35.1344H87.3336L88.5034 35.4654C88.3504 39.0763 87.1431 41.8353 83.2776 42.8521Z" fill="white"/>
<path d="M90.9766 35.2229L91.6887 34.1797C92.8009 34.6881 93.8503 35.3241 94.8156 36.0748L94.0019 37.1681C93.0755 36.4001 92.0597 35.747 90.9766 35.2229ZM91.2179 41.4912C92.7736 41.2571 94.2508 40.655 95.5269 39.7349C96.8029 38.8149 97.8409 37.6034 98.5545 36.2014L99.3932 37.143C98.6184 38.5908 97.5224 39.8419 96.1892 40.8004C94.856 41.7589 93.321 42.3994 91.7019 42.6728L91.2179 41.4912Z" fill="white"/>
<path d="M109.81 42.1031H101.812V34.5371H109.81L109.81 42.1031ZM103.072 35.7069V40.9334H108.538V35.7069H103.072Z" fill="white"/>
<path d="M121.262 38.7066H112.273V37.4102H121.262V38.7066Z" fill="white"/>
<path d="M124.32 33.3042H125.578V36.559C127.252 37.2554 128.875 38.0671 130.436 38.9883L129.724 40.1066C128.401 39.26 127.015 38.5162 125.578 37.8817V42.789H124.32V33.3042ZM127.307 33.9913L128.058 33.6352C128.425 34.1743 128.729 34.7546 128.961 35.3642L128.134 35.7334C127.935 35.1193 127.657 34.5337 127.307 33.9913ZM128.757 33.444L129.52 33.0879C129.906 33.6239 130.226 34.2044 130.474 34.8168L129.647 35.1861C129.42 34.5722 129.121 33.9874 128.757 33.444Z" fill="white"/>
<path d="M34.4481 28.4164C34.4626 27.2892 34.762 26.184 35.3184 25.2036C35.8748 24.2233 36.6702 23.3996 37.6305 22.8092C37.0205 21.9379 36.2157 21.2209 35.28 20.7151C34.3444 20.2093 33.3037 19.9286 32.2406 19.8953C29.9728 19.6573 27.7744 21.2523 26.6188 21.2523C25.4408 21.2523 23.6616 19.9189 21.7456 19.9584C20.5063 19.9984 19.2985 20.3588 18.2399 21.0044C17.1813 21.65 16.308 22.5588 15.7051 23.6423C13.0933 28.1642 15.0415 34.8099 17.5433 38.465C18.7951 40.2549 20.258 42.2542 22.1722 42.1833C24.0454 42.1056 24.745 40.9888 27.0061 40.9888C29.2462 40.9888 29.9025 42.1833 31.8556 42.1382C33.8656 42.1056 35.132 40.3404 36.3398 38.5336C37.2392 37.2583 37.9313 35.8488 38.3904 34.3573C37.2226 33.8634 36.2261 33.0367 35.525 31.9802C34.824 30.9237 34.4494 29.6843 34.4481 28.4164Z" fill="white"/>
<path d="M30.7594 17.4913C31.8553 16.1757 32.3952 14.4846 32.2645 12.7773C30.5901 12.9532 29.0435 13.7534 27.9328 15.0186C27.3897 15.6366 26.9737 16.3557 26.7087 17.1346C26.4437 17.9135 26.3348 18.737 26.3882 19.558C27.2257 19.5666 28.0542 19.3851 28.8114 19.0271C29.5685 18.6691 30.2346 18.144 30.7594 17.4913Z" fill="white"/>
</svg>
