<svg width="149" height="56" viewBox="0 0 149 56" fill="none" xmlns="http://www.w3.org/2000/svg">
<path d="M135.131 1H13.8762C13.381 1 12.8917 1 12.3978 1.0027C11.9844 1.0054 11.5742 1.01325 11.1568 1.01985C10.25 1.03052 9.34533 1.1103 8.45064 1.25849C7.5572 1.40991 6.69176 1.69537 5.88357 2.10523C5.07637 2.51856 4.33881 3.05563 3.69764 3.69697C3.05311 4.3365 2.51584 5.07572 2.1065 5.88619C1.69603 6.69505 1.41141 7.56182 1.26246 8.45655C1.1121 9.35016 1.03119 10.2541 1.02046 11.1602C1.00793 11.5742 1.0066 11.9897 1 12.4038V43.6187C1.0066 44.038 1.00793 44.4443 1.02046 44.8637C1.0312 45.7698 1.11211 46.6736 1.26246 47.5672C1.41099 48.4625 1.69563 49.3297 2.1065 50.1389C2.51566 50.9467 3.053 51.683 3.69764 52.3189C4.33638 52.9631 5.07442 53.5006 5.88357 53.9107C6.69175 54.3217 7.55711 54.6088 8.45064 54.7626C9.34548 54.9096 10.2501 54.9894 11.1568 55.0014C11.5742 55.0105 11.9844 55.0158 12.3978 55.0158C12.8917 55.0185 13.381 55.0185 13.8762 55.0185H135.131C135.616 55.0185 136.11 55.0185 136.595 55.0158C137.006 55.0158 137.428 55.0105 137.84 55.0014C138.745 54.9901 139.648 54.9102 140.541 54.7626C141.437 54.6078 142.306 54.3207 143.118 53.9107C143.926 53.5003 144.664 52.9629 145.302 52.3189C145.945 51.6805 146.483 50.9448 146.897 50.1389C147.305 49.3291 147.587 48.4619 147.734 47.5672C147.884 46.6735 147.968 45.7698 147.984 44.8637C147.989 44.4443 147.989 44.038 147.989 43.6187C148 43.1281 148 42.6402 148 42.1416V13.8782C148 13.3836 148 12.893 147.989 12.4038C147.989 11.9897 147.989 11.5742 147.984 11.1601C147.968 10.2539 147.884 9.35023 147.734 8.4565C147.587 7.56228 147.305 6.69558 146.897 5.88614C146.064 4.26163 144.742 2.9393 143.118 2.10511C142.306 1.69625 141.437 1.41087 140.541 1.25837C139.648 1.10953 138.745 1.02972 137.84 1.01966C137.428 1.01307 137.006 1.00516 136.595 1.00253C136.11 1 135.616 1 135.131 1Z" fill="#A6A6A6"/>
<path d="M12.4051 53.8368C11.9937 53.8368 11.5922 53.8316 11.1839 53.8224C10.3383 53.8114 9.49455 53.7377 8.65973 53.6021C7.88131 53.4681 7.12723 53.2187 6.42237 52.8622C5.72397 52.5087 5.08697 52.0451 4.53577 51.4893C3.9766 50.9401 3.51106 50.303 3.15761 49.6034C2.80026 48.8993 2.55296 48.1445 2.42431 47.3654C2.28538 46.5283 2.21021 45.6818 2.19946 44.8333C2.1909 44.5485 2.17969 43.6002 2.17969 43.6002V12.4038C2.17969 12.4038 2.19163 11.47 2.19953 11.1957C2.20982 10.3485 2.28455 9.50338 2.42307 8.66755C2.55195 7.88633 2.79945 7.1294 3.15699 6.42294C3.50914 5.72383 3.9721 5.0863 4.5279 4.53506C5.08308 3.9786 5.72212 3.51266 6.42171 3.15426C7.12495 2.79893 7.87761 2.55131 8.65445 2.41969C9.49201 2.2827 10.3386 2.20864 11.1873 2.19813L12.4058 2.18164H136.589L137.822 2.19879C138.663 2.20878 139.502 2.28218 140.332 2.41836C141.116 2.55163 141.877 2.80098 142.588 3.15821C143.99 3.8805 145.13 5.02323 145.85 6.42624C146.202 7.12781 146.445 7.87858 146.573 8.65306C146.713 9.49575 146.791 10.3475 146.807 11.2017C146.811 11.5841 146.811 11.9949 146.811 12.4038C146.822 12.9102 146.822 13.3922 146.822 13.8782V42.1416C146.822 42.6322 146.822 43.1109 146.811 43.5936C146.811 44.0327 146.811 44.4351 146.806 44.8491C146.79 45.688 146.713 46.5246 146.575 47.3522C146.449 48.1369 146.203 48.8975 145.846 49.6075C145.49 50.2995 145.027 50.931 144.474 51.4788C143.923 52.0376 143.284 52.5039 142.584 52.8596C141.875 53.2189 141.116 53.4692 140.332 53.6021C139.497 53.7385 138.653 53.8121 137.808 53.8224C137.412 53.8316 136.998 53.8368 136.596 53.8368L135.132 53.8395L12.4051 53.8368Z" fill="black"/>
<path d="M56.5952 23.3564H51.1237L49.8097 27.2362H47.4922L52.6747 12.8818H55.0826L60.2651 27.2362H57.908L56.5952 23.3564ZM51.6903 21.566H56.0274L53.8894 15.2693H53.8296L51.6903 21.566Z" fill="white"/>
<path d="M71.4558 22.0048C71.4558 25.257 69.7152 27.3465 67.0884 27.3465C66.4229 27.3813 65.7612 27.228 65.1788 26.9042C64.5965 26.5804 64.1171 26.0991 63.7955 25.5155H63.7459V30.6992H61.5977V16.7715H63.677V18.5122H63.7165C64.0528 17.9314 64.5403 17.4526 65.1271 17.1269C65.7139 16.8011 66.378 16.6404 67.0489 16.6621C69.705 16.662 71.4558 18.7617 71.4558 22.0048ZM69.2478 22.0048C69.2478 19.8859 68.1529 18.493 66.4822 18.493C64.8408 18.493 63.7368 19.9153 63.7368 22.0048C63.7368 24.1135 64.8408 25.5257 66.4822 25.5257C68.1529 25.5257 69.2478 24.1428 69.2478 22.0048Z" fill="white"/>
<path d="M82.9759 22.0048C82.9759 25.257 81.2347 27.3465 78.6079 27.3465C77.9425 27.3813 77.2807 27.228 76.6983 26.9042C76.116 26.5804 75.6366 26.0991 75.315 25.5155H75.2654V30.6992H73.1172V16.7715H75.1965V18.5122H75.236C75.5724 17.9314 76.0599 17.4526 76.6467 17.1269C77.2334 16.8011 77.8976 16.6404 78.5684 16.6621C81.2245 16.662 82.9759 18.7617 82.9759 22.0048ZM80.7673 22.0048C80.7673 19.8859 79.6724 18.493 78.0017 18.493C76.3603 18.493 75.2563 19.9153 75.2563 22.0048C75.2563 24.1135 76.3603 25.5257 78.0017 25.5257C79.6724 25.5257 80.7673 24.1428 80.7673 22.0048Z" fill="white"/>
<path d="M90.5896 23.2368C90.7488 24.6602 92.1316 25.5949 94.0213 25.5949C95.832 25.5949 97.1346 24.6602 97.1346 23.3767C97.1346 22.2626 96.349 21.5955 94.4886 21.1382L92.6283 20.6901C89.9925 20.0534 88.7688 18.8207 88.7688 16.8204C88.7688 14.3437 90.9272 12.6426 93.9908 12.6426C97.0252 12.6426 99.1045 14.3437 99.1745 16.8204H97.006C96.8761 15.3879 95.692 14.5233 93.9615 14.5233C92.231 14.5233 91.0468 15.3981 91.0468 16.6715C91.0468 17.6863 91.8031 18.2835 93.6533 18.7406L95.2348 19.129C98.18 19.8255 99.4025 21.0085 99.4025 23.1081C99.4025 25.7937 97.2645 27.4756 93.8621 27.4756C90.6788 27.4756 88.5295 25.8332 88.3906 23.2368L90.5896 23.2368Z" fill="white"/>
<path d="M104.039 14.294V16.7708H106.03V18.472H104.039V24.2415C104.039 25.1378 104.438 25.5555 105.313 25.5555C105.549 25.5513 105.785 25.5348 106.019 25.5058V27.1968C105.626 27.2703 105.226 27.3036 104.826 27.2961C102.707 27.2961 101.881 26.5003 101.881 24.4706V18.4719H100.359V16.7707H101.881V14.2939L104.039 14.294Z" fill="white"/>
<path d="M107.18 22.0036C107.18 18.7108 109.119 16.6416 112.143 16.6416C115.178 16.6416 117.108 18.7108 117.108 22.0036C117.108 25.3055 115.188 27.3656 112.143 27.3656C109.1 27.3656 107.18 25.3055 107.18 22.0036ZM114.919 22.0036C114.919 19.7448 113.884 18.4116 112.143 18.4116C110.403 18.4116 109.367 19.7549 109.367 22.0036C109.367 24.2714 110.403 25.5945 112.143 25.5945C113.884 25.5945 114.919 24.2714 114.919 22.0036Z" fill="white"/>
<path d="M118.883 16.7715H120.932V18.5528H120.981C121.12 17.9965 121.446 17.5048 121.904 17.1605C122.363 16.8161 122.926 16.6401 123.499 16.662C123.746 16.6611 123.993 16.688 124.235 16.7421V18.7515C123.922 18.656 123.596 18.6121 123.269 18.6216C122.957 18.609 122.646 18.664 122.357 18.7829C122.069 18.9019 121.809 19.0819 121.596 19.3107C121.384 19.5394 121.223 19.8115 121.125 20.1082C121.028 20.4049 120.996 20.7192 121.031 21.0295V27.237H118.883V16.7715Z" fill="white"/>
<path d="M134.136 24.1619C133.9 25.1509 133.313 26.0207 132.484 26.6099C131.655 27.199 130.641 27.4675 129.629 27.3656C126.585 27.3656 124.695 25.3258 124.695 22.0533C124.695 18.7706 126.595 16.6416 129.539 16.6416C132.435 16.6416 134.255 18.6306 134.255 21.8038V22.5398H126.864V22.6696C126.83 23.0548 126.878 23.4428 127.005 23.8079C127.133 24.173 127.336 24.5068 127.603 24.7871C127.869 25.0675 128.192 25.288 128.55 25.434C128.908 25.58 129.293 25.6482 129.679 25.634C130.187 25.6815 130.696 25.564 131.132 25.2987C131.567 25.0335 131.905 24.6348 132.096 24.162L134.136 24.1619ZM126.874 21.0384H132.106C132.125 20.6921 132.073 20.3456 131.952 20.0205C131.831 19.6954 131.644 19.3989 131.403 19.1495C131.162 18.9001 130.872 18.7032 130.551 18.5712C130.231 18.4391 129.886 18.3748 129.539 18.3823C129.189 18.3802 128.843 18.4474 128.519 18.58C128.195 18.7127 127.901 18.9081 127.653 19.155C127.405 19.402 127.209 19.6956 127.075 20.0188C126.941 20.3421 126.873 20.6886 126.874 21.0384Z" fill="white"/>
<path d="M50.209 42.6108L50.298 41.5043C50.7129 41.6382 51.1459 41.7071 51.5819 41.7087C51.9762 41.7087 52.1285 41.6705 52.3197 41.4028C52.7847 40.4295 52.9861 39.3513 52.904 38.2759C52.904 37.1311 52.5486 36.8001 51.6458 36.8001C51.4421 36.8001 51.2133 36.8133 50.9587 36.8265C50.4729 38.801 49.6656 40.6821 48.569 42.3944L47.5133 41.8221C48.5433 40.3421 49.297 38.6881 49.7382 36.9398C49.0416 37.0152 48.3498 37.1301 47.6663 37.284L47.4375 36.1644C48.213 36.0246 49.1407 35.898 50.0052 35.8215C50.1829 34.9773 50.3146 34.1241 50.3996 33.2656L51.6458 33.4054C51.531 34.1809 51.3913 34.9577 51.2133 35.7199H51.7092C53.324 35.7199 54.0995 36.5205 54.0995 38.2244C54.1695 39.5245 53.9162 40.8218 53.3622 42.0001C53.2163 42.271 52.9937 42.4927 52.7222 42.6374C52.4508 42.7822 52.1426 42.8436 51.8364 42.8138C51.2878 42.8102 50.7416 42.742 50.209 42.6108ZM54.3026 35.7582L55.231 35.1345C56.5183 36.3761 57.2939 38.0549 57.4051 39.84L56.1845 40.0299C56.1755 39.2277 56.0042 38.4356 55.6807 37.7015C55.3573 36.9673 54.8885 36.3063 54.3026 35.7582Z" fill="white"/>
<path d="M61.6184 42.7889L61.3645 41.6442C61.6823 41.6706 62.1017 41.6825 62.3562 41.6825C64.8732 41.6825 65.8267 40.9716 65.8267 39.9153C65.8267 39.0765 65.28 38.5938 64.0595 38.5938C62.7287 38.7158 61.4891 39.3221 60.5758 40.2977L59.5966 39.8651C59.4112 38.1997 59.7919 36.5203 60.6774 35.0976L61.809 35.4655C61.1039 36.4176 60.7614 37.5899 60.843 38.7718C61.8626 38.0527 63.0675 37.642 64.3141 37.5888C66.018 37.5888 67.0731 38.4658 67.0731 39.8901C67.0731 41.6955 65.6487 42.802 62.2291 42.802C62.0635 42.8021 61.8221 42.7889 61.6184 42.7889ZM60.436 34.3472L60.7539 33.2275C62.4453 33.4863 64.1155 33.8689 65.7509 34.3723L65.4456 35.4788C63.8131 34.9519 62.1365 34.5731 60.436 34.3472Z" fill="white"/>
<path d="M70.7578 41.9115C72.0689 41.4799 73.2467 40.7178 74.1775 39.6986C73.4401 39.0874 72.6438 38.5511 71.8003 38.0975L72.4993 37.2205C73.3498 37.653 74.1584 38.1634 74.9147 38.7451C75.5221 37.8591 75.9459 36.8605 76.161 35.8081H72.9187C72.1737 37.0149 71.2377 38.0928 70.1472 38.9996L69.2188 38.1991C70.7882 36.9044 72.0044 35.2334 72.7538 33.3419L73.9744 33.6347C73.8346 33.9908 73.6948 34.3587 73.5293 34.7029H76.6826L77.5854 35.1223C77.3663 36.8479 76.6846 38.4822 75.6125 39.852C74.5403 41.2219 73.1176 42.2762 71.4951 42.9033L70.7578 41.9115ZM76.1227 33.0372L76.8349 32.693C77.1963 33.177 77.4993 33.702 77.7376 34.2571L76.9364 34.6264C76.7348 34.0638 76.4613 33.5297 76.1227 33.0372ZM77.7119 32.9093L78.4366 32.5664C78.8029 33.0655 79.1142 33.6027 79.365 34.1688L78.5638 34.5117C78.3508 33.9427 78.0644 33.4041 77.7119 32.9093Z" fill="white"/>
<path d="M83.2776 42.8521L82.6294 41.8221C83.9397 41.613 85.1247 40.9224 85.9525 39.8854C86.7803 38.8484 87.1913 37.5398 87.1049 36.2158H81.765V38.7717H80.4805V35.1344H83.672V33.2656H84.9558V35.1344H87.3336L88.5034 35.4654C88.3504 39.0763 87.1431 41.8353 83.2776 42.8521Z" fill="white"/>
<path d="M90.9766 35.2238L91.6887 34.1807C92.8009 34.6891 93.8503 35.325 94.8156 36.0758L94.0019 37.1691C93.0755 36.4011 92.0597 35.748 90.9766 35.2238ZM91.2179 41.4922C92.7736 41.2581 94.2508 40.656 95.5269 39.7359C96.8029 38.8158 97.8409 37.6044 98.5545 36.2024L99.3932 37.144C98.6184 38.5918 97.5224 39.8428 96.1892 40.8014C94.856 41.7599 93.321 42.4004 91.7019 42.6738L91.2179 41.4922Z" fill="white"/>
<path d="M109.81 42.1031H101.812V34.5371H109.81L109.81 42.1031ZM103.072 35.7069V40.9334H108.538V35.7069H103.072Z" fill="white"/>
<path d="M121.262 38.7066H112.273V37.4102H121.262V38.7066Z" fill="white"/>
<path d="M124.32 33.3042H125.578V36.559C127.252 37.2554 128.875 38.0671 130.436 38.9883L129.724 40.1066C128.401 39.26 127.015 38.5162 125.578 37.8817V42.789H124.32V33.3042ZM127.307 33.9913L128.058 33.6352C128.425 34.1743 128.729 34.7546 128.961 35.3642L128.134 35.7334C127.935 35.1193 127.657 34.5337 127.307 33.9913ZM128.757 33.444L129.52 33.0879C129.906 33.6239 130.226 34.2044 130.474 34.8168L129.647 35.1861C129.42 34.5722 129.121 33.9874 128.757 33.444Z" fill="white"/>
<path d="M34.4481 28.4154C34.4626 27.2882 34.762 26.183 35.3184 25.2027C35.8748 24.2223 36.6702 23.3986 37.6305 22.8082C37.0205 21.9369 36.2157 21.2199 35.28 20.7141C34.3444 20.2083 33.3037 19.9276 32.2406 19.8943C29.9728 19.6563 27.7744 21.2513 26.6188 21.2513C25.4408 21.2513 23.6616 19.918 21.7456 19.9574C20.5063 19.9974 19.2985 20.3578 18.2399 21.0034C17.1813 21.649 16.308 22.5578 15.7051 23.6413C13.0933 28.1632 15.0415 34.8089 17.5433 38.4641C18.7951 40.2539 20.258 42.2532 22.1722 42.1823C24.0454 42.1046 24.745 40.9878 27.0061 40.9878C29.2462 40.9878 29.9025 42.1823 31.8556 42.1372C33.8656 42.1046 35.132 40.3394 36.3398 38.5326C37.2392 37.2573 37.9313 35.8478 38.3904 34.3563C37.2226 33.8624 36.2261 33.0357 35.525 31.9792C34.824 30.9228 34.4494 29.6833 34.4481 28.4154Z" fill="white"/>
<path d="M30.7594 17.4903C31.8553 16.1747 32.3952 14.4837 32.2645 12.7764C30.5901 12.9522 29.0435 13.7525 27.9328 15.0176C27.3897 15.6357 26.9737 16.3547 26.7087 17.1336C26.4437 17.9125 26.3348 18.736 26.3882 19.557C27.2257 19.5657 28.0542 19.3841 28.8114 19.0262C29.5685 18.6682 30.2346 18.143 30.7594 17.4903Z" fill="white"/>
</svg>
