<svg width="182" height="56" viewBox="0 0 182 56" fill="none" xmlns="http://www.w3.org/2000/svg">
<path d="M174.333 1.40039H7.66667C3.98477 1.40039 1 4.38516 1 8.06706V48.0671C1 51.749 3.98477 54.7337 7.66667 54.7337H174.333C178.015 54.7337 181 51.749 181 48.0671V8.06706C181 4.38516 178.015 1.40039 174.333 1.40039Z" fill="black"/>
<path d="M174.333 2.46706C177.427 2.46706 179.933 4.97372 179.933 8.06706V48.0671C179.933 51.1604 177.427 53.6671 174.333 53.6671H7.66667C4.57333 53.6671 2.06667 51.1604 2.06667 48.0671V8.06706C2.06667 4.97372 4.57333 2.46706 7.66667 2.46706H174.333ZM174.333 1.40039H7.66667C4 1.40039 1 4.40039 1 8.06706V48.0671C1 51.7337 4 54.7337 7.66667 54.7337H174.333C178 54.7337 181 51.7337 181 48.0671V8.06706C181 4.40039 178 1.40039 174.333 1.40039Z" fill="#A6A6A6"/>
<path d="M91.8521 15.7335C88.7187 15.7335 86.1587 18.1201 86.1587 21.4001C86.1587 24.6801 88.7187 27.0668 91.8521 27.0668C94.9854 27.0668 97.5454 24.6668 97.5454 21.4001C97.5454 18.1335 94.9854 15.7335 91.8521 15.7335ZM91.8521 24.8401C90.1321 24.8401 88.6521 23.4268 88.6521 21.4001C88.6521 19.3735 90.1321 17.9601 91.8521 17.9601C93.5721 17.9601 95.0521 19.3601 95.0521 21.4001C95.0521 23.4401 93.5721 24.8401 91.8521 24.8401ZM79.4254 15.7335C76.2921 15.7335 73.7321 18.1201 73.7321 21.4001C73.7321 24.6801 76.2921 27.0668 79.4254 27.0668C82.5587 27.0668 85.1187 24.6668 85.1187 21.4001C85.1187 18.1335 82.5587 15.7335 79.4254 15.7335ZM79.4254 24.8401C77.7054 24.8401 76.2254 23.4268 76.2254 21.4001C76.2254 19.3735 77.7054 17.9601 79.4254 17.9601C81.1454 17.9601 82.6254 19.3601 82.6254 21.4001C82.6254 23.4401 81.1454 24.8401 79.4254 24.8401ZM64.6521 17.4801V19.8801H70.4121C70.2387 21.2401 69.7854 22.2268 69.1054 22.9068C68.2654 23.7468 66.9587 24.6668 64.6654 24.6668C61.1187 24.6668 58.3454 21.8135 58.3454 18.2668C58.3454 14.7201 61.1187 11.8668 64.6654 11.8668C66.5721 11.8668 67.9721 12.6135 68.9987 13.5868L70.6921 11.8935C69.2521 10.5201 67.3454 9.4668 64.6521 9.4668C59.7988 9.4668 55.7188 13.4135 55.7188 18.2801C55.7188 23.1468 59.7988 27.0935 64.6521 27.0935C67.2788 27.0935 69.2521 26.2401 70.7987 24.6268C72.3854 23.0401 72.8787 20.8001 72.8787 19.0001C72.8787 18.4401 72.8387 17.9201 72.7454 17.4935H64.6521V17.4801ZM125.065 19.3468C124.599 18.0801 123.159 15.7335 120.212 15.7335C117.265 15.7335 114.865 18.0268 114.865 21.4001C114.865 24.5735 117.265 27.0668 120.492 27.0668C123.092 27.0668 124.599 25.4801 125.212 24.5601L123.279 23.2668C122.639 24.2135 121.759 24.8401 120.492 24.8401C119.225 24.8401 118.319 24.2535 117.745 23.1201L125.332 19.9868L125.079 19.3468H125.065ZM117.332 21.2401C117.265 19.0535 119.025 17.9335 120.292 17.9335C121.279 17.9335 122.119 18.4268 122.399 19.1335L117.332 21.2401ZM111.172 26.7335H113.665V10.0668H111.172V26.7335ZM107.092 17.0001H107.012C106.452 16.3335 105.385 15.7335 104.025 15.7335C101.185 15.7335 98.5854 18.2268 98.5854 21.4268C98.5854 24.6268 101.185 27.0801 104.025 27.0801C105.385 27.0801 106.452 26.4801 107.012 25.7868H107.092V26.6001C107.092 28.7735 105.932 29.9335 104.065 29.9335C102.545 29.9335 101.599 28.8401 101.212 27.9201L99.0387 28.8268C99.6654 30.3335 101.319 32.1735 104.065 32.1735C106.985 32.1735 109.452 30.4535 109.452 26.2668V16.0801H107.092V17.0001ZM104.225 24.8401C102.505 24.8401 101.065 23.4001 101.065 21.4268C101.065 19.4535 102.505 17.9735 104.225 17.9735C105.945 17.9735 107.252 19.4401 107.252 21.4268C107.252 23.4135 105.919 24.8401 104.225 24.8401ZM136.745 10.0668H130.785V26.7335H133.279V20.4135H136.759C139.519 20.4135 142.225 18.4135 142.225 15.2401C142.225 12.0668 139.519 10.0668 136.759 10.0668H136.745ZM136.799 18.0935H133.265V12.3735H136.799C138.665 12.3735 139.719 13.9201 139.719 15.2268C139.719 16.5335 138.665 18.0801 136.799 18.0801V18.0935ZM152.185 15.7068C150.385 15.7068 148.519 16.5068 147.745 18.2535L149.959 19.1735C150.425 18.2535 151.305 17.9468 152.225 17.9468C153.505 17.9468 154.825 18.7201 154.839 20.0935V20.2668C154.385 20.0135 153.425 19.6268 152.239 19.6268C149.852 19.6268 147.439 20.9335 147.439 23.3735C147.439 25.6001 149.385 27.0401 151.572 27.0401C153.239 27.0401 154.172 26.2935 154.745 25.4135H154.825V26.7068H157.225V20.3201C157.225 17.3601 155.012 15.7068 152.159 15.7068H152.185ZM151.879 24.8401C151.065 24.8401 149.932 24.4268 149.932 23.4268C149.932 22.1468 151.345 21.6535 152.572 21.6535C153.665 21.6535 154.185 21.8935 154.839 22.2135C154.652 23.7601 153.319 24.8535 151.879 24.8535V24.8401ZM165.985 16.0668L163.132 23.2935H163.052L160.092 16.0668H157.412L161.852 26.1735L159.319 31.7868H161.919L168.759 16.0668H165.999H165.985ZM143.585 26.7335H146.079V10.0668H143.585V26.7335Z" fill="white"/>
<path d="M28.6258 27.2926L14.4258 42.3593C14.8658 43.9993 16.3591 45.1993 18.1324 45.1993C18.8391 45.1993 19.5058 45.0126 20.0791 44.666L20.1191 44.6393L36.0924 35.426L28.6124 27.2793L28.6258 27.2926Z" fill="#EA4335"/>
<path d="M42.9847 24.734H42.9714L36.078 20.7207L28.3047 27.6407L36.1047 35.4407L42.9714 31.4807C44.1714 30.8274 44.9847 29.5607 44.9847 28.1074C44.9847 26.654 44.1847 25.3874 42.9847 24.7474V24.734Z" fill="#FBBC04"/>
<path d="M14.4263 13.7734C14.3463 14.0934 14.293 14.4134 14.293 14.7601V41.3868C14.293 41.7334 14.333 42.0534 14.4263 42.3734L29.1063 27.6934L14.4263 13.7734Z" fill="#4285F4"/>
<path d="M28.7324 28.0666L36.0791 20.7199L20.1191 11.4666C19.5458 11.1199 18.8658 10.9199 18.1324 10.9199C16.3591 10.9199 14.8658 12.1333 14.4258 13.7599L28.7324 28.0533V28.0666Z" fill="#34A853"/>
<path d="M56.6406 37.8004C56.8673 37.8004 57.0673 37.7871 57.2673 37.7738C57.454 37.7738 57.614 37.7471 57.7206 37.7471C57.934 37.7204 58.214 37.6938 58.5606 37.6538C58.9073 37.6138 59.3073 37.5871 59.7606 37.5471C60.214 37.5071 60.694 37.4671 61.2006 37.4137C61.7073 37.3604 62.2273 37.3204 62.7606 37.2804C63.174 37.2537 63.574 37.2271 63.9606 37.2004C64.3473 37.1737 64.7206 37.1471 65.054 37.1337C65.3873 37.1204 65.694 37.1071 65.9606 37.0938V38.2671C65.7473 38.2671 65.494 38.2671 65.2273 38.2671C64.9606 38.2671 64.6806 38.2937 64.414 38.3071C64.1473 38.3337 63.9073 38.3737 63.694 38.4271C63.3206 38.5471 62.974 38.7204 62.654 38.9737C62.334 39.2271 62.0673 39.5071 61.8406 39.8271C61.614 40.1471 61.4406 40.4937 61.3206 40.8537C61.2006 41.2137 61.1473 41.5737 61.1473 41.9071C61.1473 42.3337 61.214 42.7071 61.3606 43.0137C61.5073 43.3204 61.7073 43.6004 61.9606 43.8137C62.214 44.0404 62.5073 44.2138 62.8406 44.3604C63.174 44.5071 63.534 44.6137 63.9073 44.6804C64.2806 44.7471 64.654 44.7871 65.0406 44.8138L64.6273 46.0538C64.174 46.0271 63.7206 45.9604 63.2673 45.8537C62.814 45.7471 62.4006 45.5871 62.0006 45.3737C61.6006 45.1737 61.254 44.9071 60.9473 44.6004C60.6406 44.2938 60.4006 43.9337 60.2273 43.5337C60.054 43.1337 59.9606 42.6804 59.9606 42.1604C59.9606 41.5737 60.054 41.0271 60.254 40.5337C60.454 40.0404 60.694 39.6137 61.0006 39.2404C61.3073 38.8671 61.614 38.5871 61.934 38.3871C61.7073 38.4137 61.414 38.4404 61.0806 38.4804C60.734 38.5204 60.374 38.5604 59.9873 38.6004C59.6006 38.6404 59.2006 38.6937 58.814 38.7471C58.414 38.8004 58.0406 38.8537 57.694 38.9071C57.3473 38.9604 57.0406 39.0137 56.774 39.0671L56.654 37.8004H56.6406ZM64.294 39.5471C64.3873 39.6804 64.494 39.8404 64.614 40.0271C64.734 40.2137 64.8406 40.4137 64.9606 40.6137C65.0806 40.8137 65.174 40.9871 65.254 41.1471L64.534 41.4671C64.4006 41.1737 64.254 40.8937 64.094 40.6137C63.934 40.3337 63.774 40.0804 63.6006 39.8404L64.294 39.5337V39.5471ZM65.5873 39.0537C65.6806 39.1871 65.7873 39.3471 65.9073 39.5204C66.0273 39.7071 66.1473 39.8937 66.2673 40.0804C66.3873 40.2804 66.4806 40.4537 66.574 40.6271L65.8673 40.9604C65.7073 40.6671 65.5606 40.3871 65.4006 40.1337C65.2406 39.8804 65.0806 39.6137 64.894 39.3604L65.5873 39.0537Z" fill="white"/>
<path d="M67.6406 41.7871H78.2006V42.8538H67.6406V41.7871ZM76.2806 35.7871L77.094 36.6804C76.534 36.8404 75.9206 36.9738 75.2273 37.0938C74.5473 37.2138 73.8273 37.3204 73.0806 37.4004C72.334 37.4804 71.5873 37.5471 70.8273 37.6004C70.0673 37.6538 69.3473 37.6938 68.6406 37.7204C68.614 37.5738 68.574 37.4004 68.5206 37.2138C68.4673 37.0271 68.414 36.8671 68.3606 36.7604C69.054 36.7338 69.774 36.6804 70.5073 36.6271C71.2406 36.5738 71.9606 36.5071 72.6673 36.4271C73.374 36.3471 74.0406 36.2538 74.654 36.1471C75.2673 36.0404 75.814 35.9204 76.2673 35.7871H76.2806ZM68.4273 39.0671H77.5206V40.1071H68.4273V39.0671ZM72.3473 37.1871H73.494V45.1471C73.494 45.5071 73.4406 45.7604 73.334 45.9338C73.2273 46.1071 73.054 46.2404 72.8006 46.3338C72.5473 46.4138 72.2273 46.4671 71.814 46.4938C71.414 46.5204 70.9073 46.5204 70.3073 46.5204C70.2806 46.4138 70.254 46.3071 70.2006 46.1738C70.1473 46.0404 70.094 45.9071 70.0273 45.7738C69.9606 45.6404 69.9073 45.5338 69.8406 45.4404C70.1606 45.4404 70.4673 45.4538 70.7473 45.4538C71.0406 45.4538 71.294 45.4538 71.5073 45.4538C71.734 45.4538 71.8806 45.4538 71.9606 45.4538C72.094 45.4538 72.1873 45.4271 72.2406 45.3871C72.294 45.3471 72.3206 45.2538 72.3206 45.1338V37.2004L72.3473 37.1871Z" fill="white"/>
<path d="M81.8543 36.7873C81.8276 36.854 81.8009 36.9473 81.7609 37.054C81.7209 37.1606 81.6943 37.2806 81.6676 37.3873C81.6409 37.494 81.6143 37.5873 81.6009 37.654C81.5609 37.854 81.5209 38.0806 81.4676 38.3606C81.4143 38.6406 81.3609 38.934 81.3209 39.254C81.2676 39.574 81.2276 39.894 81.1876 40.2273C81.1476 40.5606 81.1076 40.8806 81.0809 41.1873C81.0543 41.494 81.0409 41.774 81.0409 42.0406C81.0409 42.2406 81.0409 42.4406 81.0543 42.654C81.0676 42.8673 81.0809 43.0673 81.1076 43.2806C81.1743 43.1206 81.2409 42.9606 81.3209 42.7873C81.3876 42.614 81.4543 42.4406 81.5343 42.2673C81.6009 42.094 81.6676 41.9473 81.7343 41.8006L82.3076 42.2673C82.2009 42.5473 82.0943 42.8673 81.9876 43.214C81.8809 43.5606 81.7743 43.894 81.6809 44.2006C81.5876 44.5206 81.5209 44.774 81.4943 44.9606C81.4809 45.0406 81.4676 45.134 81.4409 45.2273C81.4276 45.334 81.4276 45.414 81.4409 45.494C81.4409 45.5473 81.4409 45.614 81.4409 45.694C81.4409 45.774 81.4409 45.854 81.4543 45.9206L80.4009 45.9873C80.2809 45.5873 80.1876 45.054 80.0943 44.4006C80.0143 43.7473 79.9609 43.0273 79.9609 42.2406C79.9609 41.814 79.9743 41.374 80.0143 40.9206C80.0543 40.4673 80.0943 40.0406 80.1476 39.6273C80.2009 39.214 80.2543 38.8273 80.3209 38.4806C80.3743 38.134 80.4276 37.8406 80.4543 37.614C80.4809 37.4673 80.4943 37.3073 80.5209 37.134C80.5343 36.9606 80.5476 36.8006 80.5609 36.6406L81.8543 36.7606V36.7873ZM84.5343 42.4406C84.4809 42.6406 84.4543 42.8273 84.4276 42.9873C84.4009 43.1473 84.3876 43.3073 84.3876 43.4806C84.3876 43.614 84.4143 43.734 84.4809 43.854C84.5343 43.974 84.6409 44.0673 84.7743 44.1606C84.9076 44.2406 85.0943 44.3073 85.3343 44.3606C85.5743 44.414 85.8676 44.4406 86.2143 44.4406C86.7343 44.4406 87.2276 44.414 87.6943 44.3606C88.1609 44.3073 88.6276 44.2273 89.1076 44.1206L89.1343 45.3606C88.7743 45.4273 88.3476 45.4806 87.8676 45.534C87.3876 45.5873 86.8276 45.6006 86.2009 45.6006C85.2143 45.6006 84.4943 45.4406 84.0276 45.1206C83.5609 44.8006 83.3209 44.3606 83.3209 43.7873C83.3209 43.574 83.3343 43.3606 83.3743 43.134C83.4009 42.9073 83.4543 42.654 83.5209 42.3606L84.5609 42.454L84.5343 42.4406ZM83.8676 37.6273C84.2009 37.6806 84.5876 37.7206 85.0276 37.7473C85.4543 37.774 85.8943 37.774 86.3609 37.774C86.8143 37.774 87.2543 37.7473 87.6676 37.734C88.0809 37.7073 88.4409 37.6806 88.7476 37.6406V38.8273C88.4143 38.854 88.0409 38.8806 87.6276 38.9073C87.2143 38.9206 86.7743 38.934 86.3343 38.934C85.8943 38.934 85.4543 38.934 85.0276 38.9073C84.6009 38.894 84.2276 38.8673 83.8943 38.8273V37.6406L83.8676 37.6273Z" fill="white"/>
<path d="M95.2673 38.8668L96.5073 39.0935C96.2406 40.2668 95.8806 41.3201 95.4406 42.2535C95.0006 43.2001 94.4673 44.0135 93.8406 44.7335C93.214 45.4401 92.4806 46.0535 91.6406 46.5601C91.574 46.4801 91.4806 46.3735 91.3606 46.2668C91.2406 46.1601 91.1073 46.0401 90.9873 45.9335C90.8673 45.8268 90.7473 45.7335 90.6406 45.6668C91.9073 45.0135 92.9073 44.1201 93.6406 42.9868C94.374 41.8535 94.9206 40.4801 95.254 38.8801L95.2673 38.8668ZM92.9206 36.4668H96.214V37.5868H92.9206V36.4668ZM95.6673 36.4668H96.7873C96.7873 36.8268 96.7873 37.2401 96.8273 37.7068C96.8673 38.1735 96.9206 38.6801 97.014 39.2001C97.1206 39.7335 97.2673 40.2801 97.4806 40.8401C97.694 41.4001 97.9606 41.9601 98.3073 42.5201C98.654 43.0801 99.0806 43.6135 99.614 44.1335C100.134 44.6535 100.774 45.1335 101.521 45.5735C101.441 45.6401 101.347 45.7201 101.227 45.8401C101.107 45.9601 101.001 46.0668 100.894 46.2001C100.787 46.3201 100.707 46.4268 100.641 46.5201C99.8806 46.0535 99.2273 45.5468 98.6939 44.9868C98.1473 44.4268 97.694 43.8268 97.334 43.2001C96.9606 42.5735 96.6673 41.9468 96.4406 41.3068C96.214 40.6668 96.0539 40.0535 95.9339 39.4668C95.8273 38.8668 95.7473 38.3201 95.7073 37.8001C95.6673 37.2801 95.654 36.8401 95.654 36.4668H95.6673Z" fill="white"/>
<path d="M105.053 39.2812C104.946 39.2946 104.799 39.3213 104.613 39.3346C104.413 39.3613 104.213 39.3879 103.973 39.4146C103.746 39.4413 103.506 39.4812 103.266 39.5079C103.026 39.5346 102.813 39.5746 102.599 39.6012L102.479 38.4146C102.626 38.4146 102.759 38.4146 102.893 38.4146C103.026 38.4146 103.173 38.4146 103.346 38.4013C103.519 38.3879 103.719 38.3613 103.959 38.3346C104.199 38.3079 104.453 38.2812 104.719 38.2412C104.986 38.2012 105.226 38.1613 105.466 38.1213C105.706 38.0813 105.879 38.0279 106.013 37.9879L106.399 38.4812C106.333 38.5746 106.266 38.6946 106.173 38.8279C106.079 38.9612 105.999 39.0946 105.906 39.2412C105.813 39.3746 105.746 39.5079 105.679 39.6146L105.186 41.4546C105.053 41.6546 104.893 41.8946 104.706 42.1746C104.519 42.4546 104.319 42.7479 104.106 43.0546C103.893 43.3612 103.693 43.6679 103.479 43.9612C103.279 44.2546 103.093 44.5213 102.919 44.7613L102.199 43.7479C102.333 43.5746 102.506 43.3479 102.706 43.0946C102.906 42.8413 103.106 42.5746 103.319 42.2812C103.533 42.0012 103.746 41.7079 103.946 41.4279C104.159 41.1479 104.346 40.8813 104.519 40.6279C104.693 40.3879 104.826 40.1879 104.919 40.0146L104.959 39.5346L105.039 39.2679L105.053 39.2812ZM104.933 37.2279C104.933 37.0813 104.933 36.9213 104.933 36.7613C104.933 36.6013 104.919 36.4412 104.893 36.2812L106.239 36.3213C106.213 36.4813 106.173 36.7346 106.119 37.0679C106.066 37.4013 106.026 37.7879 105.973 38.2279C105.919 38.6679 105.879 39.1346 105.839 39.6146C105.799 40.1079 105.759 40.5879 105.746 41.0679C105.719 41.5479 105.706 41.9879 105.706 42.4012V43.3612C105.706 43.6679 105.706 43.9746 105.719 44.2946C105.719 44.6012 105.746 44.9346 105.759 45.2946C105.759 45.4012 105.773 45.5213 105.786 45.6679C105.786 45.8146 105.813 45.9612 105.813 46.0812H104.559C104.573 45.9612 104.586 45.8279 104.586 45.6812C104.586 45.5346 104.586 45.4146 104.586 45.3212C104.586 44.9479 104.586 44.6146 104.586 44.3079C104.586 44.0013 104.586 43.6812 104.586 43.3612C104.586 43.0412 104.586 42.6413 104.613 42.2013C104.613 42.0279 104.613 41.7879 104.639 41.5079C104.653 41.2279 104.679 40.9079 104.693 40.5613C104.719 40.2146 104.733 39.8679 104.759 39.5079C104.786 39.1479 104.799 38.8146 104.826 38.4946C104.853 38.1746 104.866 37.9079 104.879 37.6812C104.893 37.4546 104.906 37.3079 104.906 37.2412L104.933 37.2279ZM112.959 44.8146C112.666 45.0946 112.346 45.3212 111.986 45.4946C111.626 45.6546 111.239 45.7479 110.799 45.7479C110.386 45.7479 110.066 45.6146 109.813 45.3479C109.559 45.0812 109.439 44.6812 109.439 44.1612C109.439 43.8412 109.466 43.4946 109.506 43.1346C109.546 42.7612 109.599 42.3879 109.653 42.0013C109.706 41.6146 109.759 41.2546 109.799 40.9079C109.853 40.5612 109.866 40.2546 109.866 39.9746C109.866 39.6546 109.786 39.4279 109.639 39.2812C109.479 39.1346 109.266 39.0546 108.986 39.0546C108.706 39.0546 108.413 39.1346 108.079 39.3079C107.746 39.4813 107.413 39.7079 107.053 39.9879C106.706 40.2679 106.373 40.5746 106.039 40.9079C105.719 41.2412 105.426 41.5613 105.173 41.8813V40.4546C105.319 40.2946 105.506 40.1212 105.733 39.9079C105.959 39.6946 106.213 39.4812 106.506 39.2546C106.786 39.0279 107.093 38.8279 107.413 38.6279C107.733 38.4279 108.053 38.2812 108.373 38.1612C108.693 38.0412 108.999 37.9879 109.293 37.9879C109.679 37.9879 109.999 38.0546 110.253 38.2013C110.506 38.3346 110.693 38.5346 110.813 38.7746C110.933 39.0146 110.999 39.3079 110.999 39.6279C110.999 39.9079 110.973 40.2412 110.933 40.6146C110.893 40.9879 110.839 41.3612 110.786 41.7346C110.733 42.1212 110.679 42.4946 110.639 42.8546C110.599 43.2279 110.573 43.5612 110.573 43.8546C110.573 44.0279 110.613 44.1746 110.706 44.2946C110.799 44.4146 110.933 44.4813 111.106 44.4813C111.359 44.4813 111.626 44.4013 111.919 44.2413C112.199 44.0813 112.479 43.8546 112.759 43.5746L112.933 44.8413L112.959 44.8146Z" fill="white"/>
<path d="M119.682 36.375C119.668 36.4817 119.655 36.6017 119.642 36.735C119.628 36.8683 119.615 37.0283 119.602 37.1883C119.602 37.3483 119.588 37.495 119.588 37.6283C119.588 37.895 119.588 38.2017 119.588 38.5617C119.588 38.9217 119.588 39.2817 119.588 39.655C119.588 39.975 119.588 40.3483 119.615 40.775C119.628 41.2017 119.655 41.6417 119.682 42.095C119.708 42.5483 119.722 42.975 119.748 43.3617C119.762 43.7483 119.775 44.0683 119.775 44.3217C119.775 44.575 119.735 44.8017 119.655 45.0283C119.575 45.255 119.455 45.455 119.282 45.6283C119.108 45.8017 118.868 45.935 118.575 46.0417C118.282 46.1483 117.922 46.1883 117.495 46.1883C116.948 46.1883 116.468 46.1217 116.028 46.0017C115.588 45.8683 115.242 45.6683 114.988 45.375C114.735 45.095 114.602 44.7083 114.602 44.2417C114.602 43.8683 114.708 43.5217 114.935 43.215C115.162 42.9083 115.495 42.6683 115.935 42.495C116.388 42.3083 116.948 42.2283 117.628 42.2283C118.215 42.2283 118.788 42.295 119.335 42.4283C119.882 42.5617 120.402 42.735 120.895 42.9617C121.388 43.1883 121.828 43.4283 122.228 43.695C122.628 43.9617 122.975 44.2417 123.268 44.5083L122.575 45.6017C122.295 45.3217 121.962 45.0283 121.588 44.7483C121.215 44.4683 120.815 44.215 120.375 43.9883C119.935 43.7617 119.468 43.575 118.988 43.455C118.508 43.335 118.002 43.255 117.495 43.255C116.948 43.255 116.535 43.335 116.242 43.5083C115.948 43.6817 115.802 43.9083 115.802 44.2017C115.802 44.495 115.948 44.7217 116.242 44.8683C116.535 45.015 116.922 45.095 117.402 45.095C117.802 45.095 118.095 45.0017 118.282 44.815C118.468 44.6283 118.562 44.335 118.562 43.935C118.562 43.735 118.562 43.455 118.535 43.095C118.522 42.735 118.508 42.3483 118.482 41.9217C118.468 41.495 118.455 41.095 118.428 40.695C118.402 40.295 118.402 39.9483 118.402 39.6683C118.402 39.4417 118.402 39.2017 118.402 38.9483C118.402 38.695 118.402 38.4683 118.402 38.2283V37.6417C118.402 37.4683 118.388 37.3083 118.375 37.1483C118.375 36.9883 118.362 36.8417 118.335 36.7083C118.308 36.575 118.295 36.4683 118.282 36.3883H119.668L119.682 36.375ZM118.962 38.6683C119.148 38.6683 119.402 38.6683 119.722 38.6683C120.042 38.6683 120.388 38.655 120.762 38.6283C121.135 38.615 121.522 38.5883 121.895 38.5617C122.282 38.535 122.628 38.5083 122.948 38.4683L123.002 39.5617C122.682 39.5883 122.335 39.615 121.948 39.6417C121.562 39.6683 121.175 39.6817 120.802 39.695C120.428 39.7083 120.082 39.7217 119.762 39.735C119.442 39.735 119.188 39.7483 118.988 39.7483V38.655L118.962 38.6683Z" fill="white"/>
<path d="M132.038 41.748C132.038 41.4413 131.958 41.1747 131.811 40.948C131.665 40.7213 131.451 40.5347 131.171 40.4013C130.891 40.268 130.558 40.2013 130.185 40.2013C129.745 40.2013 129.331 40.2413 128.945 40.308C128.558 40.3747 128.198 40.4547 127.878 40.548C127.558 40.6413 127.291 40.7213 127.078 40.7747C126.905 40.8147 126.731 40.8813 126.545 40.948C126.358 41.0147 126.198 41.0813 126.051 41.148L125.691 39.828C125.865 39.8147 126.065 39.788 126.265 39.748C126.465 39.708 126.665 39.6813 126.838 39.6413C127.118 39.5747 127.451 39.4947 127.811 39.4147C128.171 39.3347 128.571 39.2547 129.011 39.188C129.438 39.1213 129.878 39.0947 130.331 39.0947C130.918 39.0947 131.425 39.2013 131.878 39.4013C132.331 39.6013 132.678 39.9213 132.931 40.3213C133.185 40.7213 133.318 41.2147 133.318 41.788C133.318 42.4147 133.185 42.9747 132.918 43.468C132.651 43.9613 132.278 44.388 131.798 44.7613C131.318 45.1347 130.745 45.428 130.091 45.668C129.438 45.908 128.718 46.0813 127.945 46.2013L127.278 45.0813C127.985 45.0013 128.638 44.868 129.225 44.6813C129.811 44.508 130.318 44.2813 130.731 44.0147C131.158 43.748 131.478 43.4147 131.718 43.0413C131.958 42.668 132.065 42.228 132.065 41.748H132.038ZM127.305 36.3747C127.638 36.4413 128.025 36.508 128.478 36.5747C128.931 36.6413 129.398 36.6947 129.891 36.748C130.385 36.788 130.838 36.828 131.278 36.868C131.705 36.8947 132.078 36.908 132.371 36.908L132.185 38.028C131.865 38.0013 131.478 37.9747 131.038 37.9347C130.598 37.8947 130.145 37.8547 129.665 37.8013C129.185 37.748 128.731 37.6947 128.291 37.6413C127.851 37.588 127.465 37.5213 127.131 37.468L127.305 36.3613V36.3747Z" fill="white"/>
</svg>
