<svg width="228" height="148" viewBox="0 0 228 148" fill="none" xmlns="http://www.w3.org/2000/svg">
<path d="M166.651 35.5862C148.009 -9.44843 82.7611 -12.9921 52.2556 35.6745C-16.1418 24.3518 -16.2166 117.729 45.12 117.729C62.0675 146.057 97.1664 158.871 130.214 134.9C164.956 149.428 193.069 131.798 195.611 109.28C247.191 104.125 236.896 8.78902 166.651 35.5862Z" fill="url(#paint0_linear_802_5093)"/>
<path d="M76.02 68.9205H82.48V71.0205H76.02V68.9205ZM76.2 74.6805H82.2V76.8005H76.2V74.6805ZM82.24 73.3005H94.64V75.2005H82.24V73.3005ZM75.74 81.3205C77.5 80.9405 80.12 80.2805 82.62 79.6205L82.9 81.7605C80.62 82.4005 78.16 83.0605 76.24 83.5805L75.74 81.3205ZM85.56 77.6405V78.9205H91.32V77.6405H85.56ZM83.46 75.9405H93.54V80.6405H83.46V75.9405ZM90.6 69.7405V71.0405H91.88V69.7405H90.6ZM87.8 69.7405V71.0405H89.06V69.7405H87.8ZM85.06 69.7405V71.0405H86.28V69.7405H85.06ZM83.14 68.1405H93.88V72.6405H83.14V68.1405ZM89.16 79.7205C90.14 81.8205 92.16 83.6405 94.7 84.4205C94.2 84.8605 93.52 85.7205 93.2 86.3005C90.56 85.2005 88.56 82.9405 87.44 80.2205L89.16 79.7205ZM92.72 80.5805L94.36 81.8005C93.56 82.4005 92.64 83.0005 91.94 83.3805L90.58 82.3005C91.24 81.8805 92.18 81.1005 92.72 80.5805ZM78.24 69.8405H80.4V81.4805L78.24 81.8405V69.8405ZM88.04 79.4005L89.72 80.1605C87.98 82.3005 84.98 84.2805 82.28 85.3205C81.98 84.8205 81.36 84.0405 80.9 83.6205C83.54 82.8005 86.52 81.1205 88.04 79.4005ZM86.06 82.2205L88.32 80.7005V86.2805H86.06V82.2205ZM102.36 68.7605H113.84V70.6205H102.36V68.7605ZM101.92 72.1605H114.2V74.1005H101.92V72.1605ZM106.72 67.5605H109.08V70.0205H106.72V67.5605ZM109.74 70.2605L112.08 70.7005C111.7 71.4405 111.38 72.0805 111.12 72.5405L109.04 72.1205C109.3 71.5805 109.6 70.8005 109.74 70.2605ZM104.08 70.7605L106.14 70.3405C106.46 70.8405 106.74 71.5805 106.86 72.0805L104.68 72.6005C104.62 72.1005 104.34 71.3405 104.08 70.7605ZM105.28 78.7405V79.7605H110.92V78.7405H105.28ZM105.28 76.3605V77.3605H110.92V76.3605H105.28ZM103.04 74.8805H113.26V81.2405H103.04V74.8805ZM108.54 80.7805H110.82V83.5805C110.82 84.0805 110.88 84.1605 111.22 84.1605C111.36 84.1605 111.94 84.1605 112.14 84.1605C112.46 84.1605 112.54 83.9405 112.6 82.4205C113.02 82.7605 113.98 83.1405 114.58 83.2605C114.36 85.6005 113.8 86.1805 112.4 86.1805C112.02 86.1805 111.18 86.1805 110.82 86.1805C108.94 86.1805 108.54 85.5205 108.54 83.6205V80.7805ZM104.88 80.7005H107.22C106.82 83.4005 105.8 85.2805 101.66 86.3405C101.44 85.7605 100.82 84.7805 100.36 84.3205C103.86 83.6405 104.56 82.4805 104.88 80.7005ZM95.78 72.2605H101.82V74.5205H95.78V72.2605ZM97.78 67.7805H100V81.0605H97.78V67.7805ZM95.34 80.8605C96.98 80.3005 99.5 79.2405 101.86 78.2205L102.4 80.3605C100.28 81.3805 97.98 82.4205 96.16 83.2605L95.34 80.8605ZM126.14 74.5805H128.56V86.2805H126.14V74.5805ZM120.88 77.0805H133.74V79.2605H120.88V77.0805ZM129.02 78.0405C130.12 80.2205 132.24 82.4405 134.32 83.6405C133.78 84.1005 133.02 84.9605 132.62 85.5605C130.52 84.0605 128.46 81.3605 127.22 78.7005L129.02 78.0405ZM125.82 77.8605L127.7 78.5205C126.4 81.3405 124.18 84.0005 121.82 85.5005C121.44 84.9205 120.68 84.0605 120.16 83.6005C122.44 82.4205 124.66 80.1405 125.82 77.8605ZM124.48 70.4805V73.1605H130.36V70.4805H124.48ZM122.2 68.3805H132.76V75.2805H122.2V68.3805ZM119.58 67.5405L121.82 68.2605C120.48 71.6605 118.34 75.2405 116.12 77.5005C115.92 76.9405 115.26 75.6205 114.86 75.0405C116.72 73.2405 118.52 70.4005 119.58 67.5405ZM117.66 73.0805L119.92 70.8005L119.94 70.8205V86.2205H117.66V73.0805ZM141.86 79.9405H151.1V81.6605H141.86V79.9405ZM150.54 79.9405H150.96L151.34 79.8605L152.72 80.5405C150.8 84.1005 146.58 85.6405 141.84 86.3205C141.66 85.7805 141.24 84.9805 140.88 84.5205C145.16 84.1005 149.1 82.8005 150.54 80.2205V79.9405ZM145.18 81.4205C146.72 83.0205 149.98 84.0205 153.58 84.3805C153.12 84.8405 152.52 85.7005 152.24 86.2605C148.44 85.7405 145.18 84.3805 143.22 82.1805L145.18 81.4205ZM141.58 68.5005H153.22V70.2205H141.58V68.5005ZM143.82 74.2405H152.24V75.4205H143.82V74.2405ZM143.82 76.0205H152.24V77.2205H143.82V76.0205ZM144.1 67.4805H146.22V71.1605H144.1V67.4805ZM146.96 72.8405H149.04V78.9805H146.96V72.8405ZM148.56 67.4805H150.7V71.1605H148.56V67.4805ZM143.42 70.7005L145.3 71.1805C144.6 72.9005 143.44 74.6405 142.28 75.7405C141.96 75.4005 141.2 74.7805 140.76 74.5005C141.88 73.5605 142.86 72.1405 143.42 70.7005ZM147.54 70.7805L149.7 71.1405C149.28 71.9405 148.88 72.6405 148.56 73.1405L146.72 72.7805C147.02 72.1805 147.36 71.3605 147.54 70.7805ZM152.68 72.1605V73.6405H144.94V77.8405H153.16V79.3405H142.84V72.1605H152.68ZM135.52 73.6405H140.84V75.4405H135.52V73.6405ZM135.64 68.1205H140.78V69.9405H135.64V68.1205ZM135.52 76.3605H140.84V78.1805H135.52V76.3605ZM134.68 70.8205H141.34V72.7205H134.68V70.8205ZM136.62 79.1405H140.8V85.1805H136.62V83.3005H138.88V81.0205H136.62V79.1405ZM135.46 79.1405H137.34V86.0205H135.46V79.1405Z" fill="black"/>
<defs>
<linearGradient id="paint0_linear_802_5093" x1="108.885" y1="19.2903" x2="131.554" y2="241.357" gradientUnits="userSpaceOnUse">
<stop offset="0.0671484" stop-color="#ECFAFD"/>
<stop offset="1" stop-color="#97C1FF"/>
</linearGradient>
</defs>
</svg>
