<svg width="250" height="170" viewBox="0 0 250 170" fill="none" xmlns="http://www.w3.org/2000/svg">
<path d="M189.458 35.1086C171.061 -9.31335 106.672 -12.8088 76.568 35.1957C9.07063 24.027 8.99681 116.133 69.5264 116.133C86.2508 144.076 120.888 156.716 153.501 133.072C187.786 147.401 215.528 130.011 218.037 107.8C268.938 102.715 258.779 8.67597 189.458 35.1086Z" fill="url(#paint0_linear_802_5098)"/>
<ellipse cx="41" cy="142.98" rx="17" ry="17.5" fill="url(#paint1_linear_802_5098)"/>
<ellipse cx="9" cy="160.98" rx="9" ry="8.5" fill="url(#paint2_linear_802_5098)"/>
<path d="M94.225 68.8005H100.925V70.2605H94.225V68.8005ZM101.505 68.8005H108.385V70.2605H101.505V68.8005ZM96.785 67.8405H98.505V73.0405H96.785V67.8405ZM99.865 74.1405H101.965V78.0405H99.865V74.1405ZM103.765 67.8405H105.505V73.0405H103.765V67.8405ZM96.925 76.7805V77.5605H104.945V76.7805H96.925ZM96.925 74.9005V75.6805H104.945V74.9005H96.925ZM94.885 73.5605H107.085V78.9205H94.885V73.5605ZM103.105 79.9205C104.205 79.8805 105.545 79.8405 107.065 79.7805L107.045 80.7605C105.685 80.9205 104.485 81.0205 103.325 81.1205L103.105 79.9205ZM96.805 69.5405L98.025 70.0005C97.345 71.1805 96.045 72.4205 94.765 73.0405C94.505 72.6405 94.005 72.0605 93.645 71.7405C94.865 71.3205 96.145 70.4205 96.805 69.5405ZM103.765 69.5405L105.005 70.0005C104.325 71.1805 103.025 72.4205 101.765 73.0405C101.505 72.6405 101.005 72.0605 100.645 71.7405C101.845 71.3205 103.125 70.4205 103.765 69.5405ZM105.645 69.7405C106.365 70.5005 107.705 71.3405 108.825 71.7605C108.445 72.0605 107.925 72.6605 107.645 73.0605C106.485 72.4805 105.125 71.2805 104.385 70.2805L105.645 69.7405ZM97.105 78.6405H99.425C98.945 80.9205 97.825 82.4205 94.185 83.3605C93.965 82.8205 93.365 81.9205 92.925 81.5005C95.965 80.9205 96.745 80.0205 97.105 78.6405ZM100.665 78.5805H102.725V81.0205C102.725 81.5205 102.865 81.5805 103.705 81.5805C104.085 81.5805 105.825 81.5805 106.305 81.5805C106.925 81.5805 107.045 81.4205 107.125 80.4005C107.545 80.6805 108.345 80.9405 108.905 81.0405C108.665 82.7405 108.125 83.1805 106.545 83.1805C106.065 83.1805 103.925 83.1805 103.465 83.1805C101.205 83.1805 100.665 82.7005 100.665 81.0205V78.5805ZM99.605 72.3805L101.965 72.6405C101.525 73.3405 101.025 73.9405 100.685 74.4005L98.945 74.0205C99.185 73.4805 99.465 72.8405 99.605 72.3805ZM104.105 78.1805L105.625 78.5805C105.305 79.3005 105.085 80.0005 104.885 80.5005L103.705 80.1405C103.865 79.5605 104.045 78.7205 104.105 78.1805ZM105.785 79.3005L107.065 78.9005C107.505 79.4605 107.945 80.2605 108.125 80.7805L106.785 81.2405C106.625 80.7005 106.205 79.8805 105.785 79.3005ZM98.425 70.2605C98.925 70.4405 100.545 71.1405 100.945 71.3805L99.865 72.6005C99.385 72.1805 98.065 71.3205 97.445 70.9405L98.425 70.2605ZM98.785 64.5005H101.285V67.1605H98.785V64.5005ZM92.805 65.9605H108.605V67.9405H92.805V65.9605ZM91.425 65.9605H93.645V72.3805C93.645 75.5605 93.345 80.3605 91.625 83.3605C91.225 82.9405 90.285 82.1605 89.785 81.9205C91.305 79.2005 91.425 75.2605 91.425 72.3805V65.9605ZM115.205 72.5205H128.185V74.8005H115.205V72.5205ZM116.205 67.3805H127.225V69.6605H116.205V67.3805ZM120.365 64.5005H122.865V74.1805H120.365V64.5005ZM115.205 80.0605C117.885 79.9605 122.105 79.7205 126.045 79.5005V81.6605C122.305 81.9805 118.345 82.2805 115.525 82.4805L115.205 80.0605ZM122.865 77.3005L124.945 76.2005C126.425 77.9805 128.045 80.3405 128.665 82.0405L126.385 83.3005C125.845 81.6605 124.325 79.1405 122.865 77.3005ZM118.825 74.1205L121.485 74.8205C120.605 77.1405 119.465 79.7005 118.545 81.3605L116.405 80.6805C117.305 78.9205 118.305 76.1805 118.825 74.1205ZM110.725 66.3405L112.045 64.5805C113.345 65.0605 115.045 65.9205 115.885 66.6205L114.485 68.5805C113.705 67.8605 112.045 66.9005 110.725 66.3405ZM109.585 71.8005L110.825 69.9805C112.125 70.4205 113.845 71.2005 114.725 71.8605L113.385 73.8605C112.585 73.2005 110.905 72.3005 109.585 71.8005ZM110.145 81.4605C111.145 79.9605 112.585 77.4605 113.685 75.1605L115.505 76.6805C114.525 78.8005 113.345 81.0805 112.225 83.0205L110.145 81.4605ZM139.484 79.5859C142.102 79.2539 143.898 77.1445 143.898 74.3711C143.898 71.7051 142.15 69.918 139.562 69.5273C138.4 78.0039 136.789 81.3828 133.977 81.3828C131.496 81.3828 129.621 78.7852 129.621 75.3672C129.621 70.582 133.332 67.1641 138.527 67.1641C143.098 67.1641 146.398 69.8398 146.398 74.3711C146.398 78.3555 143.898 81.3633 140.207 81.832L139.484 79.5859ZM131.965 75.3672C131.965 77.0664 132.922 78.8242 133.84 78.8242C135.07 78.8242 136.232 75.4453 137.023 69.625C134.123 70.2305 131.965 72.5645 131.965 75.3672ZM147.695 69.3205H166.295V71.6405H147.695V69.3205ZM151.835 79.7005H165.575V82.0005H151.835V79.7005ZM156.775 74.8005H161.915V77.0405H156.775V74.8005ZM150.575 65.1005H153.055V83.2805H150.575V65.1005ZM155.775 64.6805H158.195V77.8605H155.775V64.6805ZM160.875 64.8805H163.295V77.8205H160.875V64.8805ZM171.855 70.3405V71.8005H181.295V70.3405H171.855ZM171.855 67.1205V68.5405H181.295V67.1205H171.855ZM169.455 65.1805H183.795V73.7205H169.455V65.1805ZM179.315 72.4605C180.635 74.2605 183.235 75.7405 186.035 76.4405C185.495 76.9205 184.775 77.8605 184.435 78.4805C181.495 77.5205 178.895 75.6005 177.295 73.2005L179.315 72.4605ZM173.855 72.4405L175.975 73.2605C174.355 75.5805 171.655 77.5405 168.815 78.5605C168.455 77.9605 167.735 77.0605 167.215 76.5805C169.915 75.8205 172.535 74.2405 173.855 72.4405ZM172.435 76.1005H174.915V77.4805C174.915 79.4005 174.335 81.9605 170.335 83.4205C170.015 82.8205 169.215 81.9205 168.695 81.4605C172.035 80.3805 172.435 78.6805 172.435 77.4005V76.1005ZM175.355 66.1605H177.775V72.7605H175.355V66.1605ZM178.535 76.1405H181.035V83.2205H178.535V76.1405Z" fill="black"/>
<defs>
<linearGradient id="paint0_linear_802_5098" x1="132.452" y1="19.0344" x2="154.803" y2="238.082" gradientUnits="userSpaceOnUse">
<stop offset="0.0671484" stop-color="#ECFAFD"/>
<stop offset="1" stop-color="#97C1FF"/>
</linearGradient>
<linearGradient id="paint1_linear_802_5098" x1="40.2372" y1="129.959" x2="48.7194" y2="182" gradientUnits="userSpaceOnUse">
<stop offset="0.0671484" stop-color="#ECFAFD"/>
<stop offset="1" stop-color="#97C1FF"/>
</linearGradient>
<linearGradient id="paint2_linear_802_5098" x1="8.59619" y1="154.656" x2="12.3916" y2="180.037" gradientUnits="userSpaceOnUse">
<stop offset="0.0671484" stop-color="#ECFAFD"/>
<stop offset="1" stop-color="#97C1FF"/>
</linearGradient>
</defs>
</svg>
