<svg width="177" height="56" viewBox="0 0 177 56" fill="none" xmlns="http://www.w3.org/2000/svg">
<path d="M163.439 0.965332H13.8883C13.3926 0.965332 12.9029 0.965332 12.4085 0.968035C11.9947 0.970739 11.5841 0.978592 11.1663 0.985202C10.2587 0.995883 9.35312 1.07574 8.4576 1.22407C7.56333 1.37562 6.69707 1.66136 5.88813 2.0716C5.08018 2.48531 4.34193 3.02288 3.70016 3.66482C3.05503 4.30495 2.51726 5.04486 2.10754 5.85609C1.69668 6.6657 1.41179 7.53328 1.26271 8.42885C1.11221 9.32329 1.03122 10.228 1.02048 11.135C1.00793 11.5494 1.00661 11.9653 1 12.3798V43.6239C1.00661 44.0436 1.00793 44.4502 1.02048 44.87C1.03123 45.7769 1.11221 46.6816 1.26271 47.576C1.41138 48.4721 1.69628 49.3402 2.10754 50.1501C2.51707 50.9587 3.05492 51.6956 3.70016 52.3322C4.3395 52.977 5.07822 53.5149 5.88813 53.9255C6.69707 54.3368 7.56323 54.6243 8.4576 54.7781C9.35328 54.9253 10.2587 55.0052 11.1663 55.0171C11.5841 55.0263 11.9947 55.0316 12.4085 55.0316C12.9028 55.0343 13.3926 55.0343 13.8883 55.0343H163.439C163.924 55.0343 164.418 55.0343 164.904 55.0316C165.316 55.0316 165.738 55.0263 166.15 55.0171C167.056 55.0058 167.96 54.9259 168.853 54.7781C169.751 54.6232 170.62 54.3358 171.433 53.9255C172.242 53.5147 172.98 52.9768 173.619 52.3322C174.262 51.6931 174.801 50.9568 175.216 50.1501C175.624 49.3396 175.906 48.4716 176.053 47.576C176.204 46.6815 176.287 45.777 176.304 44.87C176.309 44.4502 176.309 44.0436 176.309 43.6239C176.32 43.1328 176.32 42.6444 176.32 42.1453V13.8555C176.32 13.3605 176.32 12.8695 176.309 12.3798C176.309 11.9653 176.309 11.5494 176.304 11.1349C176.287 10.2279 176.204 9.32336 176.053 8.4288C175.906 7.53374 175.624 6.66623 175.216 5.85603C174.382 4.23001 173.059 2.90644 171.433 2.07147C170.62 1.66224 169.751 1.37658 168.853 1.22394C167.96 1.07496 167.056 0.99508 166.15 0.985013C165.738 0.978417 165.316 0.970496 164.904 0.96786C164.418 0.965332 163.924 0.965332 163.439 0.965332Z" fill="#A6A6A6"/>
<path d="M12.4147 53.8516C12.0029 53.8516 11.601 53.8464 11.1923 53.8372C10.3459 53.8261 9.50138 53.7525 8.66579 53.6167C7.88664 53.4825 7.13186 53.2329 6.42633 52.8761C5.72728 52.5223 5.08968 52.0583 4.53797 51.5019C3.97828 50.9522 3.51231 50.3145 3.15852 49.6143C2.80084 48.9095 2.55331 48.154 2.42454 47.3742C2.28548 46.5363 2.21024 45.689 2.19948 44.8397C2.19091 44.5546 2.17969 43.6054 2.17969 43.6054V12.3799C2.17969 12.3799 2.19164 11.4453 2.19954 11.1707C2.20985 10.3227 2.28465 9.47677 2.4233 8.64016C2.5523 7.85821 2.80003 7.10057 3.1579 6.39346C3.51039 5.69369 3.97377 5.05556 4.53009 4.50382C5.08579 3.94683 5.72542 3.48046 6.42567 3.12172C7.12957 2.76606 7.88293 2.5182 8.6605 2.38646C9.49884 2.24935 10.3463 2.17522 11.1957 2.1647L12.4154 2.14819H164.897L166.131 2.16536C166.973 2.17536 167.813 2.24883 168.643 2.38514C169.429 2.51853 170.19 2.76812 170.902 3.12568C172.305 3.84864 173.446 4.99244 174.166 6.39676C174.518 7.09899 174.762 7.85045 174.89 8.62564C175.03 9.46912 175.108 10.3217 175.125 11.1766C175.128 11.5594 175.128 11.9706 175.128 12.3799C175.139 12.8867 175.139 13.3692 175.139 13.8557V42.1454C175.139 42.6365 175.139 43.1157 175.128 43.5988C175.128 44.0384 175.128 44.4411 175.123 44.8555C175.107 45.6952 175.03 46.5325 174.892 47.3609C174.766 48.1464 174.52 48.9077 174.162 49.6183C173.806 50.311 173.343 50.9431 172.789 51.4914C172.237 52.0507 171.599 52.5174 170.898 52.8735C170.188 53.2331 169.428 53.4836 168.643 53.6167C167.808 53.7532 166.963 53.8269 166.117 53.8372C165.721 53.8464 165.306 53.8516 164.903 53.8516L163.438 53.8543L12.4147 53.8516Z" fill="black"/>
<path d="M52.2662 35.1426H48.8684V39.8591C50.2729 39.8852 51.6768 39.7818 53.0622 39.5502L53.187 40.5667C51.5915 40.8155 49.9782 40.9325 48.3635 40.9165H47.627V34.1143H52.2662L52.2662 35.1426ZM55.0878 37.0368H56.555V38.0718H55.0878V43.2688H53.8344V33.1638H55.0878V37.0368Z" fill="white"/>
<path d="M66.6341 38.143V39.141H62.7729V41.0471H61.5077V39.141H57.498V38.143H66.6341ZM58.5613 35.4752C58.5613 34.3044 59.9216 33.4556 62.072 33.4556C64.2223 33.4556 65.5946 34.3044 65.5946 35.4752C65.5946 36.6633 64.2224 37.5121 62.0839 37.5121C59.9216 37.5121 58.5613 36.6633 58.5613 35.4752ZM59.8741 42.0028H65.5826V42.9955H58.6326V40.1204H59.8741V42.0028ZM59.8385 35.4871C59.8385 36.1339 60.783 36.5511 62.066 36.5511C63.3907 36.5511 64.3055 36.1339 64.3055 35.4871C64.3055 34.8271 63.3967 34.406 62.072 34.406C60.783 34.406 59.8385 34.8271 59.8385 35.4871Z" fill="white"/>
<path d="M76.9055 40.9943V41.9923H67.7695V40.9943H71.7079V39.3482H68.9397V36.0336H74.4819V34.8033H68.9219V33.8H75.7472V37.0434H70.1872V38.3502H76.0026V39.3482H72.9554V40.9943L76.9055 40.9943Z" fill="white"/>
<path d="M87.179 41.9263H78.043V40.9284H87.179L87.179 41.9263ZM86.0028 35.0304H80.4606V37.8104H86.0801V38.8189H79.2251V34.0193H86.0028L86.0028 35.0304Z" fill="white"/>
<path d="M97.2091 36.592H91.3164V35.6005H97.2091L97.2091 36.592ZM94.3155 41.3508C93.9027 41.2991 93.5135 41.1294 93.1947 40.862C92.8759 40.5946 92.641 40.2408 92.5183 39.8432C92.3956 39.4456 92.3902 39.0211 92.5029 38.6205C92.6155 38.2199 92.8414 37.8604 93.1533 37.585C93.4653 37.3096 93.8501 37.1301 94.2615 37.0681C94.673 37.006 95.0936 37.064 95.4729 37.2351C95.8522 37.4062 96.174 37.6832 96.3998 38.0327C96.6256 38.3822 96.7457 38.7895 96.7457 39.2056C96.7385 39.5099 96.6685 39.8094 96.54 40.0853C96.4116 40.3613 96.2275 40.6077 95.9993 40.8091C95.7711 41.0105 95.5038 41.1626 95.214 41.2558C94.9243 41.349 94.6184 41.3814 94.3155 41.3508ZM95.8428 34.8337H92.7777V33.8186H95.8428L95.8428 34.8337ZM94.3155 40.3634C94.4741 40.3733 94.633 40.3506 94.7824 40.2967C94.9318 40.2428 95.0686 40.1589 95.1844 40.0501C95.3002 39.9413 95.3924 39.81 95.4555 39.6642C95.5186 39.5184 95.5511 39.3613 95.5511 39.2024C95.5511 39.0436 95.5186 38.8864 95.4555 38.7406C95.3924 38.5948 95.3002 38.4635 95.1844 38.3547C95.0686 38.2459 94.9318 38.162 94.7824 38.1081C94.633 38.0543 94.4741 38.0316 94.3155 38.0414C94.1594 38.0356 94.0037 38.0613 93.8577 38.117C93.7118 38.1727 93.5785 38.2572 93.466 38.3656C93.3535 38.474 93.264 38.604 93.2028 38.7478C93.1417 38.8915 93.1102 39.0462 93.1102 39.2024C93.1102 39.3586 93.1417 39.5133 93.2028 39.6571C93.264 39.8008 93.3535 39.9308 93.466 40.0392C93.5785 40.1476 93.7118 40.2321 93.8577 40.2878C94.0037 40.3436 94.1594 40.3692 94.3155 40.3634ZM99.2578 37.3405H100.707V38.3675H99.2578V43.2688H98.0117V33.1704H99.2578L99.2578 37.3405Z" fill="white"/>
<path d="M102.374 41.4326L101.668 40.4531C102.72 40.0019 103.638 39.2871 104.333 38.3776C105.028 37.4682 105.477 36.3949 105.636 35.2614H102.232V34.2278H106.967C106.953 35.7382 106.515 37.2144 105.703 38.4882C104.891 39.7619 103.737 40.7821 102.374 41.4326ZM110.001 43.2753H108.749V33.1638H110.001V43.2753Z" fill="white"/>
<path d="M56.6374 23.3421H51.1698L49.8577 27.219H47.541L52.7208 12.8728H55.126L60.3058 27.219H57.9496L56.6374 23.3421ZM51.7361 21.5521H56.0711L53.9327 15.2595H53.8733L51.7361 21.5521Z" fill="white"/>
<path d="M71.5116 21.9905C71.5116 25.2404 69.7718 27.3287 67.1476 27.3287C66.4825 27.3638 65.8211 27.2107 65.2391 26.8871C64.657 26.5635 64.1779 26.0825 63.8567 25.4991H63.8079V30.6789H61.6602V16.7605H63.7379V18.5003H63.7775C64.1135 17.9196 64.6006 17.4409 65.1871 17.1153C65.7736 16.7896 66.4375 16.6291 67.108 16.6509C69.7626 16.6509 71.5116 18.7484 71.5116 21.9905ZM69.3045 21.9905C69.3045 19.8718 68.2115 18.4805 66.5417 18.4805C64.9008 18.4805 63.7973 19.9022 63.7973 21.9905C63.7973 24.0972 64.9009 25.5097 66.5417 25.5097C68.2115 25.5097 69.3045 24.1276 69.3045 21.9905Z" fill="white"/>
<path d="M83.0429 21.9905C83.0429 25.2404 81.3031 27.3287 78.6788 27.3287C78.0138 27.3638 77.3523 27.2107 76.7703 26.8871C76.1882 26.5635 75.7092 26.0825 75.3879 25.4991H75.3391V30.6789H73.1914V16.7605H75.2692V18.5003H75.3088C75.6447 17.9196 76.1319 17.4409 76.7184 17.1153C77.3049 16.7896 77.9687 16.6291 78.6392 16.6509C81.2938 16.6509 83.0429 18.7484 83.0429 21.9905ZM80.8358 21.9905C80.8358 19.8718 79.7428 18.4805 78.0729 18.4805C76.4321 18.4805 75.3286 19.9022 75.3286 21.9905C75.3286 24.0972 76.4321 25.5097 78.0729 25.5097C79.7428 25.5097 80.8358 24.1276 80.8358 21.9905Z" fill="white"/>
<path d="M90.692 23.222C90.8517 24.6437 92.2325 25.5783 94.1215 25.5783C95.9313 25.5783 97.2341 24.6437 97.2341 23.3619C97.2341 22.2478 96.4487 21.5825 94.5888 21.1244L92.7302 20.677C90.0954 20.0407 88.873 18.8091 88.873 16.8106C88.873 14.3355 91.03 12.6353 94.0925 12.6353C97.1246 12.6353 99.2024 14.3355 99.2723 16.8106H97.1048C96.9755 15.3783 95.7927 14.5137 94.0621 14.5137C92.3328 14.5137 91.1501 15.3889 91.1501 16.6614C91.1501 17.6752 91.9051 18.2718 93.7545 18.7286L95.3346 19.1167C98.277 19.8123 99.5006 20.9951 99.5006 23.094C99.5006 25.7776 97.3635 27.458 93.963 27.458C90.7817 27.458 88.6347 25.8172 88.4961 23.222L90.692 23.222Z" fill="white"/>
<path d="M104.136 14.2854V16.7605H106.124V18.4607H104.136V24.2267C104.136 25.1216 104.533 25.5388 105.409 25.5388C105.644 25.5352 105.879 25.5189 106.113 25.4899V27.1796C105.72 27.2527 105.321 27.2859 104.921 27.2786C102.803 27.2786 101.978 26.4839 101.978 24.455V18.4607H100.457V16.7605H101.978V14.2854H104.136Z" fill="white"/>
<path d="M107.299 21.9902C107.299 18.6994 109.237 16.6309 112.26 16.6309C115.292 16.6309 117.22 18.6994 117.22 21.9902C117.22 25.2903 115.302 27.3483 112.26 27.3483C109.217 27.3483 107.299 25.2903 107.299 21.9902ZM115.033 21.9902C115.033 19.733 113.999 18.401 112.26 18.401C110.52 18.401 109.486 19.7422 109.486 21.9902C109.486 24.2567 110.52 25.5781 112.26 25.5781C113.999 25.5781 115.033 24.2568 115.033 21.9902Z" fill="white"/>
<path d="M118.992 16.7603H121.04V18.5398H121.09C121.228 17.9839 121.554 17.4927 122.012 17.1486C122.47 16.8046 123.032 16.6288 123.604 16.6508C123.852 16.6492 124.099 16.6762 124.341 16.7313V18.7391C124.029 18.6438 123.703 18.6001 123.376 18.6097C123.064 18.597 122.753 18.6519 122.465 18.7706C122.176 18.8894 121.917 19.0692 121.705 19.2977C121.492 19.5262 121.332 19.798 121.234 20.0944C121.137 20.3908 121.105 20.7048 121.14 21.0148V27.219H118.992V16.7603Z" fill="white"/>
<path d="M134.239 24.1472C134.003 25.1357 133.417 26.005 132.588 26.5937C131.76 27.1824 130.746 27.4505 129.735 27.3483C126.694 27.3483 124.805 25.3102 124.805 22.0391C124.805 18.7588 126.703 16.6309 129.647 16.6309C132.539 16.6309 134.358 18.6188 134.358 21.7909V22.5262H126.972V22.6555C126.938 23.0404 126.986 23.4282 127.113 23.793C127.241 24.1578 127.444 24.4914 127.71 24.7716C127.976 25.0518 128.299 25.2722 128.657 25.418C129.014 25.5639 129.399 25.632 129.785 25.6177C130.292 25.6653 130.802 25.548 131.237 25.283C131.672 25.0181 132.01 24.6197 132.201 24.1472H134.239ZM126.981 21.0253H132.211C132.231 20.6793 132.178 20.3331 132.057 20.0083C131.936 19.6835 131.749 19.3873 131.509 19.138C131.268 18.8888 130.978 18.692 130.658 18.56C130.337 18.4279 129.993 18.3635 129.647 18.3707C129.297 18.3686 128.95 18.4357 128.627 18.5682C128.303 18.7007 128.009 18.896 127.761 19.1428C127.513 19.3896 127.317 19.683 127.183 20.0061C127.049 20.3292 126.981 20.6756 126.981 21.0253Z" fill="white"/>
<path d="M143.048 13.1144H144.722V26.5353H143.048V19.7609H141.822C141.669 22.1541 140.697 24.2345 138.734 24.2345C136.579 24.2345 135.623 21.7317 135.623 19.0599C135.623 16.3868 136.579 13.9355 138.734 13.9355C140.655 13.9355 141.627 15.8799 141.813 18.1966H143.048L143.048 13.1144ZM140.198 19.0599C140.198 17.0891 139.724 15.5842 138.734 15.5842C137.771 15.5842 137.331 17.0891 137.331 19.0599C137.331 21.0387 137.771 22.5263 138.734 22.5263C139.724 22.5263 140.198 21.0387 140.198 19.0599ZM147.647 12.8267V27.2112H145.974V12.8267H147.647Z" fill="white"/>
<path d="M155.216 16.2007C155.157 17.4682 155.46 18.7264 156.088 19.8285C156.717 20.9305 157.647 21.8309 158.768 22.4247L157.728 23.7698C156.191 22.8958 154.991 21.5323 154.32 19.8968C153.711 21.677 152.487 23.182 150.869 24.1421L149.77 22.8392C150.915 22.1781 151.858 21.2148 152.493 20.0546C153.129 18.8943 153.433 17.5817 153.373 16.2601V14.0358H155.216L155.216 16.2007ZM161.956 27.2112H160.164V19.3041H157.279V17.7913H160.164V12.8267H161.956V27.2112Z" fill="white"/>
<path d="M34.4804 28.4065C34.4949 27.2783 34.7946 26.1721 35.3516 25.1908C35.9085 24.2095 36.7046 23.385 37.6658 22.7941C37.0552 21.922 36.2496 21.2043 35.3131 20.698C34.3766 20.1918 33.335 19.9108 32.2709 19.8775C30.001 19.6393 27.8005 21.2358 26.6438 21.2358C25.4647 21.2358 23.6838 19.9012 21.7661 19.9406C20.5256 19.9807 19.3167 20.3414 18.2571 20.9876C17.1976 21.6338 16.3234 22.5435 15.7199 23.628C13.1057 28.1541 15.0557 34.806 17.5599 38.4646C18.8128 40.2561 20.2771 42.2573 22.1931 42.1863C24.068 42.1085 24.7683 40.9907 27.0315 40.9907C29.2737 40.9907 29.9306 42.1863 31.8855 42.1412C33.8974 42.1085 35.165 40.3417 36.3739 38.5332C37.2741 37.2567 37.9669 35.8459 38.4264 34.353C37.2576 33.8586 36.2601 33.0311 35.5584 31.9737C34.8567 30.9162 34.4818 29.6756 34.4804 28.4065Z" fill="white"/>
<path d="M30.7888 17.4715C31.8858 16.1547 32.4262 14.4621 32.2954 12.7532C30.6195 12.9292 29.0714 13.7302 27.9596 14.9965C27.416 15.6151 26.9997 16.3349 26.7344 17.1145C26.4691 17.8941 26.3601 18.7184 26.4136 19.5402C27.2519 19.5488 28.0812 19.3671 28.839 19.0088C29.5969 18.6505 30.2636 18.1249 30.7888 17.4715Z" fill="white"/>
</svg>
