<svg width="24" height="25" viewBox="0 0 24 25" fill="none" xmlns="http://www.w3.org/2000/svg">
<path fill-rule="evenodd" clip-rule="evenodd" d="M4.80117 5.3002H19.2012V19.7002H4.80117V5.3002ZM3.20117 5.3002C3.20117 4.87585 3.36974 4.46888 3.6698 4.16882C3.96986 3.86877 4.37683 3.7002 4.80117 3.7002H19.2012C19.6255 3.7002 20.0325 3.86877 20.3325 4.16882C20.6326 4.46888 20.8012 4.87585 20.8012 5.3002V19.7002C20.8012 20.1245 20.6326 20.5315 20.3325 20.8316C20.0325 21.1316 19.6255 21.3002 19.2012 21.3002H4.80117C4.37683 21.3002 3.96986 21.1316 3.6698 20.8316C3.36974 20.5315 3.20117 20.1245 3.20117 19.7002V5.3002ZM16.5612 9.3178C16.6813 9.14275 16.7269 8.92717 16.688 8.71848C16.6492 8.50979 16.529 8.32509 16.354 8.205C16.1789 8.08491 15.9634 8.03927 15.7547 8.07813C15.546 8.11698 15.3613 8.23715 15.2412 8.4122L10.6252 15.1402L8.31637 12.3562C8.18045 12.1946 7.98617 12.0933 7.77588 12.0744C7.5656 12.0555 7.35636 12.1205 7.19378 12.2552C7.0312 12.3899 6.92846 12.5834 6.90797 12.7936C6.88748 13.0037 6.95088 13.2134 7.08437 13.377L10.07 16.977C10.1491 17.0721 10.2491 17.1476 10.3623 17.1976C10.4755 17.2475 10.5987 17.2705 10.7223 17.2648C10.8459 17.259 10.9665 17.2247 11.0745 17.1645C11.1826 17.1043 11.2752 17.0199 11.3452 16.9178L16.5612 9.3178Z" fill="#33BB9A"/>
</svg>
