<svg width="24" height="25" viewBox="0 0 24 25" fill="none" xmlns="http://www.w3.org/2000/svg">
<path fill-rule="evenodd" clip-rule="evenodd" d="M4.80117 5.3002H19.2012V19.7002H4.80117V5.3002ZM3.20117 5.3002C3.20117 4.87585 3.36974 4.46888 3.6698 4.16882C3.96986 3.86877 4.37683 3.7002 4.80117 3.7002H19.2012C19.6255 3.7002 20.0325 3.86877 20.3325 4.16882C20.6326 4.46888 20.8012 4.87585 20.8012 5.3002V19.7002C20.8012 20.1245 20.6326 20.5315 20.3325 20.8316C20.0325 21.1316 19.6255 21.3002 19.2012 21.3002H4.80117C4.37683 21.3002 3.96986 21.1316 3.6698 20.8316C3.36974 20.5315 3.20117 20.1245 3.20117 19.7002V5.3002Z" fill="#767676"/>
</svg>
