<svg width="76" height="115" viewBox="0 0 76 115" fill="none" xmlns="http://www.w3.org/2000/svg">
<g clip-path="url(#clip0_485_4051)">
<path d="M14.0248 88.9362L12.6375 89.5064L12.6718 89.59L12.7159 89.6688L14.0248 88.9362ZM20.6625 85.9469L21.8065 84.9766L21.7268 84.8827L21.6329 84.803L20.6625 85.9469ZM12.2515 87.1736L11.149 86.1566L11.144 86.162L11.139 86.1675L12.2515 87.1736ZM14.0265 98.5005L13.5482 99.9222L14.0265 98.5005ZM5.75479 113.303C6.47407 113.714 7.39035 113.464 7.80136 112.745C8.21237 112.025 7.96248 111.109 7.2432 110.698L5.75479 113.303ZM18.1845 77.3982C15.4705 79.4366 13.8308 81.765 12.9865 83.9143C12.1665 86.0017 12.0473 88.0706 12.6375 89.5064L15.4122 88.3659C15.2186 87.8949 15.1249 86.6757 15.7788 85.0111C16.4083 83.4084 17.6908 81.5209 19.9861 79.797L18.1845 77.3982ZM12.7159 89.6688C13.5869 91.2249 14.8731 92.1447 16.2937 92.4711C17.6756 92.7886 19.0733 92.5209 20.2009 91.9249C21.3175 91.3346 22.3043 90.3477 22.7186 89.0734C23.1582 87.7215 22.8836 86.2465 21.8065 84.9766L19.5186 86.9171C19.9671 87.4459 19.9629 87.8466 19.8656 88.1459C19.7431 88.5228 19.3858 88.9624 18.799 89.2726C18.2231 89.577 17.558 89.6834 16.9655 89.5473C16.4118 89.42 15.8122 89.0584 15.3338 88.2035L12.7159 89.6688ZM21.6329 84.803C19.452 82.9531 17.0932 82.9085 15.1796 83.5367C13.3491 84.1377 11.8941 85.3488 11.149 86.1566L13.3541 88.1907C13.8671 87.6346 14.9092 86.7831 16.1154 86.3871C17.2386 86.0183 18.4562 86.0423 19.6922 87.0908L21.6329 84.803ZM11.139 86.1675C7.46649 90.2284 6.25601 94.381 6.64546 97.8249C7.02623 101.192 8.98542 103.952 11.6312 104.796L12.5426 101.938C11.3068 101.544 9.91141 100.008 9.62646 97.4878C9.35018 95.0447 10.1628 91.7195 13.3641 88.1798L11.139 86.1675ZM11.6312 104.796C12.9164 105.206 14.1396 105.136 15.1552 104.591C16.1523 104.055 16.7819 103.15 17.0645 102.201C17.6103 100.369 16.9303 97.8948 14.5048 97.0788L13.5482 99.9222C14.095 100.106 14.386 100.684 14.1894 101.345C14.1008 101.642 13.9307 101.843 13.7358 101.948C13.5594 102.043 13.1983 102.147 12.5426 101.938L11.6312 104.796ZM14.5048 97.0788C11.8834 96.1969 9.59381 96.5897 7.78767 97.8494C6.05126 99.0604 4.90693 100.968 4.23409 102.896C3.55731 104.836 3.30105 106.953 3.46742 108.768C3.55068 109.676 3.74466 110.562 4.08472 111.331C4.42115 112.092 4.94816 112.842 5.75479 113.303L7.2432 110.698C7.17484 110.659 7.00584 110.519 6.82856 110.118C6.65491 109.725 6.51746 109.177 6.45489 108.494C6.32959 107.127 6.524 105.44 7.06664 103.884C7.6132 102.318 8.45701 101.04 9.50386 100.31C10.481 99.6285 11.7698 99.3239 13.5482 99.9222L14.5048 97.0788Z" fill="#5F5C57"/>
<path d="M34.9226 53.2986L30.7475 49.216C30.1569 48.2667 24.6048 49.5043 19.8152 51.1005C17.607 51.8365 15.678 53.2241 14.2756 55.0854C12.6219 57.395 11.7241 58.7199 10.1782 61.1478C8.63227 63.5757 8.17953 66.246 8.49726 69.1164C8.81499 71.9868 9.70801 74.691 11.8879 76.5938C19.9055 83.5971 36.4377 83.3349 42.9433 77.7073C48.2561 72.4963 50.9591 64.7679 56.1227 54.7286C60.4849 46.2943 63.5317 37.2168 65.1576 27.8104C67.0754 16.537 63.7463 5.2221 53.5024 2.40295C46.9377 2.01032 43.0815 3.98881 40.598 5.32611C38.1145 6.66342 36.2455 8.91277 35.3714 11.6162L32.9829 19.014C32.2622 21.2442 32.2229 23.6514 32.87 25.9265C33.5172 28.2017 34.8212 30.241 36.6148 31.7826L43.1633 37.4074C43.0612 37.8481 42.9312 38.3578 42.7733 38.9365C42.1159 41.3523 41.2144 43.6902 40.0826 45.9137C38.9168 48.119 37.5285 50.1949 35.9394 52.109C35.6087 52.5126 35.2697 52.9092 34.9226 53.2986Z" fill="url(#paint0_linear_485_4051)"/>
<path d="M41.8028 51.6533L33.5494 49.3097C31.2903 48.6686 28.9036 48.7193 26.6954 49.4553C24.4872 50.1912 22.5582 51.5788 21.1557 53.4402L16.5569 59.5463C14.8397 61.8243 14.0605 64.691 14.3782 67.5614C14.6959 70.4318 16.0867 73.0896 18.2666 74.9924C26.2842 81.9957 38.3341 83.6803 46.412 75.7569C51.7248 70.5458 57.8393 63.1226 63.0029 53.0833C67.3651 44.6491 70.4119 35.5716 72.0378 26.1651C73.9556 14.8918 65.8632 5.59196 55.6193 2.77281C52.873 2.01884 49.9617 2.34356 47.4782 3.68087C44.9947 5.01817 43.1257 7.26752 42.2516 9.97097L39.8631 17.3688C39.1424 19.5989 39.1031 22.0061 39.7502 24.2813C40.3974 26.5564 41.7014 28.5958 43.4949 30.1374L50.0435 35.7622C49.9414 36.2029 49.8113 36.7126 49.6534 37.2912C48.9961 39.7071 48.0946 42.045 46.9628 44.2684C45.797 46.4738 44.4087 48.5496 42.8196 50.4637C42.4889 50.8674 42.1499 51.264 41.8028 51.6533Z" fill="url(#paint1_linear_485_4051)"/>
<path d="M5.94137 43.4722C5.02883 33.6789 10.7689 22.7458 21.353 19.16" stroke="#3372BB" stroke-width="3.10601" stroke-linecap="round"/>
<path d="M15.1237 41.5732C15.0148 34.8245 18.1906 29.8494 24.1837 27.2113" stroke="#3372BB" stroke-width="3.10601" stroke-linecap="round"/>
<path d="M52.9793 12.2015C50.4009 13.0548 49.1112 16.7764 46.9203 15.1817C45.4856 12.5043 47.2174 9.04916 50.3816 7.35361C53.5458 5.65807 57.705 6.53024 59.1397 9.20763C60.5744 11.885 56.1435 10.5059 52.9793 12.2015Z" fill="#BDD6FF"/>
</g>
<defs>
<linearGradient id="paint0_linear_485_4051" x1="24.7687" y1="17.3836" x2="41.0916" y2="79.3859" gradientUnits="userSpaceOnUse">
<stop stop-color="#7B9EFE"/>
<stop offset="1" stop-color="#599AC0"/>
</linearGradient>
<linearGradient id="paint1_linear_485_4051" x1="41.2664" y1="17.9788" x2="56.0524" y2="132.305" gradientUnits="userSpaceOnUse">
<stop stop-color="#8CBFFD"/>
<stop offset="1" stop-color="#6DE6F0"/>
</linearGradient>
<clipPath id="clip0_485_4051">
<rect width="76" height="115" fill="white"/>
</clipPath>
</defs>
</svg>
