<svg width="29" height="29" viewBox="0 0 29 29" fill="none" xmlns="http://www.w3.org/2000/svg">
<path d="M15.0593 4.89253C7.84905 -0.916885 6.18872 0.47064 6.84073 9.21836C6.87105 9.6252 6.68251 10.0254 6.34959 10.2612C-0.917189 15.4082 -1.00161 17.7033 7.95821 19.9482C8.35192 20.0469 8.67425 20.3522 8.79542 20.7395C11.9281 30.7545 14.3181 29.8499 18.8142 22.5312C19.0373 22.168 19.4479 21.9537 19.8735 21.977C28.8083 22.466 29.4668 20.8393 23.4457 12.9903C23.2012 12.6716 23.1373 12.2403 23.2799 11.8648C26.2461 4.05524 25.4261 1.97668 16.1727 5.09111C15.7958 5.21794 15.369 5.142 15.0593 4.89253Z" fill="#FFEC86"/>
</svg>
