<svg width="43" height="43" viewBox="0 0 43 43" fill="none" xmlns="http://www.w3.org/2000/svg">
<path d="M29.051 11.0678C23.1744 -2.72459 19.8417 -1.97735 14.2062 11.053C14.0443 11.4274 13.6836 11.6986 13.2789 11.7501C-1.01249 13.5697 -2.84999 16.6938 8.32281 26.6439C8.62592 26.9138 8.77132 27.3429 8.69606 27.7417C5.54768 44.4262 9.59933 44.8333 21.5335 37.7249C21.8996 37.5068 22.3724 37.5096 22.7371 37.7302C35.1495 45.2397 37.2533 43.493 34.5383 27.7342C34.4702 27.3384 34.6179 26.9193 34.9202 26.6549C45.0915 17.7612 45.5541 14.2534 29.9485 11.7682C29.5559 11.7057 29.2069 11.4336 29.051 11.0678Z" fill="#60CDB3"/>
</svg>
