<svg width="250" height="169" viewBox="0 0 250 169" fill="none" xmlns="http://www.w3.org/2000/svg">
<path d="M189.458 34.6281C171.061 -9.79381 106.672 -13.2893 76.568 34.7152C9.07063 23.5466 8.99681 115.653 69.5264 115.653C86.2508 143.596 120.888 156.235 153.501 132.591C187.786 146.921 215.528 129.53 218.037 107.319C268.938 102.234 258.779 8.19551 189.458 34.6281Z" fill="url(#paint0_linear_224_3593)"/>
<path d="M112.059 66.7031V78.4609H103.523V66.7031H112.059ZM105.984 68.6562V76.4883H109.578V68.6562H105.984ZM116.98 65.0234V71.7227H119.598V73.793H116.98V82.7969H114.48V65.0234H116.98ZM123.504 65.9219V68.207H127V65.9219H129.461V69.0859H132.742V65.0234H135.223V74.75H132.742V71.1172H129.461V74.2422H121.004V65.9219H123.504ZM123.504 72.25H127V70.1211H123.504V72.25ZM125.828 75.4922V77.1328H132.742V75.4922H135.223V82.5625H123.367V75.4922H125.828ZM125.828 80.5703H132.742V79.0469H125.828V80.5703ZM143.23 69.4961C143.23 72.3672 144.031 75.3359 146.453 76.8984L145.105 78.832C143.572 77.9043 142.596 76.3809 142.039 74.5547C141.395 76.5664 140.33 78.2461 138.719 79.2227L137.195 77.3867C139.832 75.7461 140.809 72.6211 140.809 69.6133V66.5469H143.23V69.4961ZM152.938 65.0234V82.7969H150.555V65.0234H152.938ZM149.207 65.2773V81.9766H146.883V73.0508H144.578V71.0195H146.883V65.2773H149.207ZM170.223 65.0234V82.7969H167.879V65.0234H170.223ZM166.512 65.4141V82.0156H164.148V76.1562H161.629V74.1445H164.148V71.7227H161.961C161.131 74.6523 159.334 77.1328 156.004 79.1055L154.539 77.3477C158.143 75.2188 159.725 72.6309 160.066 69.1445H155.574V67.1328H162.547C162.547 68.0215 162.488 68.8809 162.391 69.7109H164.148V65.4141H166.512Z" fill="black"/>
<ellipse cx="41" cy="142.5" rx="17" ry="17.5" fill="url(#paint1_linear_224_3593)"/>
<ellipse cx="9" cy="160.5" rx="9" ry="8.5" fill="url(#paint2_linear_224_3593)"/>
<defs>
<linearGradient id="paint0_linear_224_3593" x1="132.452" y1="18.5539" x2="154.803" y2="237.601" gradientUnits="userSpaceOnUse">
<stop offset="0.0671484" stop-color="#ECFAFD"/>
<stop offset="1" stop-color="#97C1FF"/>
</linearGradient>
<linearGradient id="paint1_linear_224_3593" x1="40.2372" y1="129.479" x2="48.7194" y2="181.52" gradientUnits="userSpaceOnUse">
<stop offset="0.0671484" stop-color="#ECFAFD"/>
<stop offset="1" stop-color="#97C1FF"/>
</linearGradient>
<linearGradient id="paint2_linear_224_3593" x1="8.59619" y1="154.175" x2="12.3916" y2="179.557" gradientUnits="userSpaceOnUse">
<stop offset="0.0671484" stop-color="#ECFAFD"/>
<stop offset="1" stop-color="#97C1FF"/>
</linearGradient>
</defs>
</svg>
