<svg width="903" height="417" viewBox="0 0 903 417" fill="none" xmlns="http://www.w3.org/2000/svg">
<rect x="0.177734" y="416.305" width="416.127" height="902.138" rx="59.2955" transform="rotate(-90 0.177734 416.305)" fill="#33BB9A"/>
<path d="M313.345 243.236C311.74 243.413 310.06 243.354 308.579 242.875C307.925 242.661 307.262 242.398 306.735 241.957C302.872 238.707 302.636 232.073 301.463 216.901L299.432 190.55C299.098 186.214 301.601 184.281 306.452 183.926L321.557 182.762C322.817 182.627 334.097 181.594 341.605 189.89C346.029 194.779 346.894 200.425 347.087 202.873C347.285 205.316 347.407 211.92 342.802 217.968C341.438 219.76 339.786 221.324 337.918 222.591C336.339 223.667 334.614 224.533 332.814 225.187C330.193 226.141 327.447 226.555 324.665 226.669C323.706 226.709 322.75 226.71 321.792 226.75C321.97 226.741 321.949 229.476 321.946 229.746C321.934 230.846 321.874 231.945 321.76 233.038C321.551 235.089 321.294 237.273 320.241 239.094C320.224 239.12 320.211 239.145 320.194 239.17C319.086 241.029 317.134 242.515 315.057 242.955C314.501 243.075 313.919 243.168 313.33 243.232L313.345 243.236ZM322.958 212.787C324.927 212.775 327.087 212.103 328.58 210.792C331.711 208.044 331.248 201.852 328.111 199.245C326.635 198.018 324.684 197.638 322.811 197.715C321.142 197.617 319.655 198.387 319.864 200.213C319.968 201.574 320.387 207.013 320.587 209.6C320.616 211.165 320.89 212.782 322.851 212.786L322.953 212.787L322.958 212.787Z" fill="white"/>
<path d="M374.003 198.646C375.819 197.795 379.064 197.584 381.01 198.209C382.642 198.733 383.663 200.295 383.731 201.794C383.798 203.164 383.976 204.01 383.798 207.393C383.264 217.453 378.857 213.887 372.139 217.986C371.35 218.505 370.757 218.832 370.425 219.289C370.03 219.808 369.9 220.394 369.9 221.375C369.9 239.153 369.789 240.455 361.16 240.455C352.53 240.455 351.543 239.086 351.543 219.159C351.543 199.233 352.135 197.93 361.16 197.93C366.298 197.93 367.646 199.564 368.966 203.476C369.953 201.785 372.043 199.564 374.003 198.646Z" fill="white"/>
<path d="M455.337 199.692C455.857 198.76 456.285 197.784 456.729 196.818C461.274 186.985 462.719 182.697 470.906 182.621C480.055 182.534 483.426 186.504 477.383 198.313C474.277 204.119 470.781 208.276 468.936 210.554C470.583 213.092 473.8 216.97 477.253 222.666C484.394 233.629 484.226 240.444 474.281 240.444C464.337 240.444 463.485 239.338 455.847 222.666L452.25 216.807C452.12 238.819 451.412 240.602 442.455 240.444C433.498 240.285 432.39 236.488 432.66 211.53C432.93 186.571 433.835 182.693 442.455 182.616C451.075 182.539 452.12 184.178 452.25 205.214L455.342 199.687L455.337 199.692Z" fill="white"/>
<path d="M588.384 214.622C592.342 215.473 597.217 215.429 600.377 218.29C604.464 221.988 604.009 229.176 601.579 233.608C598.855 238.57 592.86 240.795 587.509 241.669C581.176 242.699 573.922 242.666 567.946 240.143C563.556 238.294 560.319 234.776 560.074 229.909C560.008 228.641 559.797 226.422 561.084 225.509C562.281 224.662 564.364 224.817 565.74 224.752C566.904 224.7 568.073 224.657 569.238 224.615C577.929 224.297 578.553 224.216 578.553 225.139L578.569 225.596C578.6 226.427 578.63 226.854 579.014 227.609C579.638 228.846 581.095 228.778 582.306 228.667C583.996 228.509 584.495 226.87 584.437 225.405C584.389 224.108 583.542 223.48 582.372 223.119L574.136 221.502C566.22 219.574 564.403 220.357 561.301 216.561C560.194 215.168 559.468 213.372 559.39 211.22C559.226 210.312 559.07 208.947 559.247 207.315C559.855 201.685 563.499 197.243 568.561 194.792C577.666 190.381 591.008 191.138 598.319 198.662C601.113 201.536 602.525 205.351 602.04 209.337C601.88 210.637 600.773 211.057 599.503 211.248C597.442 211.559 595.294 211.46 593.218 211.478C585.804 211.557 583.897 212.103 583.893 210.689L583.835 209.085C583.784 207.716 582.405 207.425 581.268 207.423C579.87 207.421 578.211 207.506 577.95 209.185C577.806 210.128 577.964 211.43 578.642 212.165C578.948 212.495 579.374 212.691 579.812 212.815C582.598 213.622 585.551 213.99 588.388 214.603L588.384 214.622Z" fill="white"/>
<path fill-rule="evenodd" clip-rule="evenodd" d="M401.186 239.449C408.891 241.886 417.526 239.747 422.987 234.182L422.987 234.186C428.284 228.784 428.693 222.099 428.799 219.816C428.915 217.297 429.001 206.512 420.078 200.178C413.062 195.189 403.267 194.949 395.855 199.697C385.035 206.632 386.137 219.854 386.195 220.441C386.999 228.366 392.215 236.614 401.186 239.449ZM407.616 210.219C404.424 210.219 401.837 212.806 401.837 215.997L401.837 221.261C401.837 224.453 404.424 227.04 407.616 227.04C410.807 227.04 413.394 224.453 413.394 221.261L413.394 215.997C413.394 212.806 410.807 210.219 407.616 210.219Z" fill="white"/>
<path fill-rule="evenodd" clip-rule="evenodd" d="M525.887 240.364C529.497 240.652 534.276 238.646 536.707 235.354C536.856 235.66 536.995 235.977 537.136 236.296C538.119 238.535 539.187 240.966 544.385 241.511C553.055 242.203 553.79 240.434 555.944 213.427C558.098 186.421 557.652 184.558 548.982 183.866C541.695 183.285 539.828 186.767 538.202 203.035C536.008 199.538 531.216 197.714 527.298 197.296C522.489 196.782 517.656 198.079 514.057 201.408C509.733 205.412 508.331 211.776 507.947 217.444C507.496 224.134 508.454 231.448 513.761 236.138C518.743 240.542 524.67 240.426 525.964 240.37L525.887 240.364ZM528.47 211.84C525.288 211.586 522.504 213.959 522.25 217.141L521.832 222.388C521.578 225.57 523.951 228.354 527.133 228.608C530.314 228.862 533.099 226.488 533.352 223.307L533.771 218.06C534.025 214.878 531.651 212.093 528.47 211.84Z" fill="white"/>
<path d="M485.184 219.158C485.184 199.294 487.766 197.934 494.902 197.929C502.039 197.925 504.139 199.299 504.139 219.158C504.139 239.018 501.731 240.618 494.902 240.455C488.729 240.306 485.184 239.085 485.184 219.158Z" fill="white"/>
<path d="M501.389 185.911C506.237 181.011 505.339 179.722 498.813 179.591C498.626 179.587 498.448 179.481 498.356 179.319C495.096 173.553 493.447 173.314 491.156 179.8C491.094 179.976 490.937 180.112 490.755 180.149C483.106 181.712 483.638 183.507 488.74 187.349C488.896 187.466 488.976 187.667 488.946 187.86C487.909 194.45 489.019 195.041 495.253 191.144C495.409 191.046 495.612 191.036 495.777 191.119C501.332 193.9 502.905 193.487 501.247 186.413C501.206 186.236 501.261 186.041 501.389 185.911Z" fill="#FFF4B7"/>
</svg>
