<svg width="228" height="147" viewBox="0 0 228 147" fill="none" xmlns="http://www.w3.org/2000/svg">
<path d="M166.651 35.1058C148.009 -9.9289 82.7611 -13.4726 52.2556 35.1941C-16.1418 23.8713 -16.2166 117.248 45.12 117.248C62.0675 145.576 97.1664 158.39 130.214 134.42C164.956 148.947 193.069 131.317 195.611 108.8C247.191 103.644 236.896 8.30855 166.651 35.1058Z" fill="url(#paint0_linear_224_3588)"/>
<path d="M92.1758 67.3662V73.2061H94.4414V75.2568H92.1758V81.2334H89.6758V67.3662H92.1758ZM92.7812 82.835V84.8271H80.2617V80.3154H82.7617V82.835H92.7812ZM77.7617 77.5811C79.041 77.5811 80.5254 77.5713 82.0781 77.5225V76.4873C80.1445 76.2236 78.9336 75.2568 78.9531 73.8701C78.9336 72.1123 80.6719 71.0771 83.3086 71.0967C85.9258 71.0771 87.6445 72.1123 87.6641 73.8701C87.6445 75.2471 86.4629 76.2139 84.5586 76.4873V77.4053C86.0234 77.3174 87.4883 77.1807 88.8555 76.9756L89.0312 78.6943C85.2812 79.417 81.082 79.4561 78.0156 79.4951L77.7617 77.5811ZM88.4062 68.8115V70.5889H78.2305V68.8115H82.0781V67.3076H84.5586V68.8115H88.4062ZM83.3086 72.7568C82.0391 72.7568 81.3164 73.1084 81.3359 73.8701C81.3164 74.5342 82.0391 74.9053 83.3086 74.9053C84.5586 74.9053 85.2617 74.5342 85.2812 73.8701C85.2617 73.1084 84.5586 72.7568 83.3086 72.7568ZM110.223 67.3857V77.6201H107.742V75.8818H103.738V73.8896H107.742V72.1904H103.914C102.811 75.0029 100.291 76.9365 96.375 78.0107L95.3984 76.0381C99.4902 74.9639 101.492 73.0107 101.844 70.5693H96.3555V68.5771H104.559C104.559 69.1533 104.52 69.71 104.441 70.2373H107.742V67.3857H110.223ZM104.305 77.835C107.918 77.835 110.34 79.2217 110.359 81.4287C110.34 83.6553 107.918 85.0615 104.305 85.0615C100.652 85.0615 98.2109 83.6553 98.2305 81.4287C98.2109 79.2217 100.652 77.835 104.305 77.835ZM104.305 79.7881C102.059 79.7686 100.711 80.335 100.711 81.4287C100.711 82.5225 102.059 83.0889 104.305 83.0889C106.512 83.0889 107.859 82.5225 107.859 81.4287C107.859 80.335 106.512 79.7686 104.305 79.7881ZM128.797 81.0381V83.0693H112.527V81.0381H119.383V77.7568H114.246V68.499H116.746V71.2529H124.5V68.499H126.98V77.7568H121.863V81.0381H128.797ZM116.746 75.7646H124.5V73.2451H116.746V75.7646ZM145.301 69.6123V71.6045H130.516V69.6123H136.668V67.542H139.129V69.6123H145.301ZM146.082 81.3311V83.3232H129.812V81.3311H136.668V79.2803C133.641 79.0264 131.805 77.7764 131.824 75.8232C131.805 73.6748 134.148 72.3662 137.898 72.3857C141.59 72.3662 143.953 73.6748 143.953 75.8232C143.953 77.7764 142.107 79.0264 139.129 79.2803V81.3311H146.082ZM137.898 74.3193C135.594 74.3193 134.363 74.8076 134.383 75.8232C134.363 76.8779 135.594 77.3467 137.898 77.3467C140.145 77.3467 141.395 76.8779 141.395 75.8232C141.395 74.8076 140.145 74.3193 137.898 74.3193Z" fill="black"/>
<defs>
<linearGradient id="paint0_linear_224_3588" x1="108.885" y1="18.8098" x2="131.554" y2="240.876" gradientUnits="userSpaceOnUse">
<stop offset="0.0671484" stop-color="#ECFAFD"/>
<stop offset="1" stop-color="#97C1FF"/>
</linearGradient>
</defs>
</svg>
