<svg width="96" height="73" viewBox="0 0 96 73" fill="none" xmlns="http://www.w3.org/2000/svg">
<path d="M79.494 42.8591C70.3286 35.4745 68.2181 37.2382 69.0469 48.3579C69.0854 48.875 68.8458 49.3838 68.4226 49.6835C59.1854 56.2261 59.0781 59.1435 70.4674 61.9972C70.9678 62.1226 71.3776 62.5106 71.5316 63.003C75.5137 75.7336 78.5518 74.5837 84.267 65.2805C84.5506 64.8189 85.0725 64.5464 85.6135 64.576C96.971 65.1976 97.8081 63.1298 90.1543 53.1526C89.8436 52.7475 89.7622 52.1992 89.9435 51.7219C93.714 41.7948 92.6717 39.1526 80.9092 43.1115C80.4302 43.2728 79.8876 43.1762 79.494 42.8591Z" fill="#FFB4B4"/>
<path d="M36.9512 13.7977C29.4811 -3.73451 25.2449 -2.78465 18.0813 13.7789C17.8754 14.2548 17.4169 14.5995 16.9025 14.665C-1.26401 16.978 -3.59975 20.9492 10.6026 33.5972C10.9878 33.9403 11.1727 34.4858 11.077 34.9928C7.07495 56.2012 12.2252 56.7187 27.3953 47.6829C27.8607 47.4057 28.4618 47.4092 28.9253 47.6897C44.7033 57.2353 47.3776 55.0149 43.9264 34.9832C43.8398 34.48 44.0275 33.9473 44.4119 33.6112C57.3411 22.306 57.9292 17.8471 38.0921 14.688C37.593 14.6085 37.1493 14.2627 36.9512 13.7977Z" fill="#9FA8FF"/>
</svg>
