<svg width="96" height="73" viewBox="0 0 96 73" fill="none" xmlns="http://www.w3.org/2000/svg">
<path d="M79.494 42.8577C70.3286 35.473 68.2181 37.2368 69.0469 48.3564C69.0854 48.8736 68.8458 49.3823 68.4226 49.6821C59.1854 56.2246 59.0781 59.142 70.4674 61.9957C70.9678 62.1211 71.3776 62.5091 71.5316 63.0016C75.5137 75.7321 78.5518 74.5823 84.267 65.2791C84.5506 64.8174 85.0725 64.5449 85.6135 64.5746C96.971 65.1961 97.8081 63.1284 90.1543 53.1511C89.8436 52.746 89.7622 52.1977 89.9435 51.7205C93.714 41.7933 92.6717 39.1512 80.9092 43.1101C80.4302 43.2713 79.8876 43.1748 79.494 42.8577Z" fill="#FFB4B4"/>
<path d="M36.9512 13.7977C29.4811 -3.73451 25.2449 -2.78465 18.0813 13.7789C17.8754 14.2548 17.4169 14.5995 16.9025 14.665C-1.26401 16.978 -3.59975 20.9492 10.6026 33.5972C10.9878 33.9403 11.1727 34.4858 11.077 34.9928C7.07495 56.2012 12.2252 56.7187 27.3953 47.6829C27.8607 47.4057 28.4618 47.4092 28.9253 47.6897C44.7033 57.2353 47.3776 55.0149 43.9264 34.9832C43.8398 34.48 44.0275 33.9473 44.4119 33.6112C57.3411 22.306 57.9292 17.8471 38.0921 14.688C37.593 14.6085 37.1493 14.2627 36.9512 13.7977Z" fill="#9FA8FF"/>
</svg>
