<svg width="1920" height="1140" viewBox="0 0 1920 1140" fill="none" xmlns="http://www.w3.org/2000/svg">
<g clip-path="url(#clip0_456_3922)">
<rect width="1920" height="1140" fill="#FFFAE1"/>
<g filter="url(#filter0_i_456_3922)">
<path d="M1561.22 771.151L1529.79 771.842C1529.79 771.842 1531.43 795.427 1529.67 802.615C1527.92 809.804 1523.06 809.298 1513.89 804.356C1498.64 791.88 1494.03 828.369 1499.08 837.483C1503.15 843.781 1508.32 843.534 1519.5 838.489C1533.6 836.665 1527.37 855.105 1527.15 888.111C1547.81 888.832 1560.64 889.634 1567.34 885.894C1571.25 880.49 1567.63 876.555 1563.52 872.554C1558.5 867.678 1561.05 861.8 1562.46 859.911C1563.08 858.543 1566.66 855.417 1575.93 853.859C1585.2 852.301 1593.32 855.555 1596.22 857.377C1600.23 859.044 1607.47 867.799 1601.02 873.841C1595.58 878.931 1595.14 882.427 1596.82 885.107C1601.01 890.817 1614.23 890.163 1638.98 888.582C1641.7 878.923 1638.12 857.148 1639.93 846.378C1640.89 839.093 1645.27 838.303 1649.21 840.12C1654.6 842.601 1659.18 848.445 1667.87 842.717C1673.95 836.497 1675.85 822.964 1672.44 812.444C1669.72 804.027 1664.7 802.643 1662.53 803.002C1656.42 804.705 1646.45 815.37 1642.82 804.829C1641.16 792.996 1641.78 778.56 1639.69 771.658C1631.45 771.905 1614.09 772.356 1612.75 772.29C1611.07 772.207 1605.97 773.355 1604.67 776.929C1603.63 779.787 1605.27 783.767 1606.21 785.399C1607.52 787.422 1608.83 792.635 1603.66 797.305C1598.5 801.975 1591.08 802.282 1583 801.324C1574.92 800.366 1569.45 791.982 1569.89 788.647C1570.33 785.311 1574.67 778.376 1574.19 775.427C1573.52 771.371 1564.97 770.963 1561.22 771.151Z" fill="#FEF6CF"/>
</g>
<g filter="url(#filter1_i_456_3922)">
<path d="M1674.13 654.368L1642.69 655.059C1642.69 655.059 1644.34 678.643 1642.58 685.832C1640.82 693.02 1635.97 692.515 1626.8 687.573C1611.55 675.097 1606.94 711.586 1611.99 720.7C1616.06 726.998 1621.22 726.751 1632.4 721.706C1646.51 719.882 1640.28 738.322 1640.05 771.328C1660.72 772.049 1673.55 772.851 1680.25 769.111C1684.16 763.707 1680.53 759.772 1676.42 755.771C1671.41 750.895 1673.96 745.017 1675.36 743.128C1675.99 741.76 1679.56 738.634 1688.84 737.076C1698.11 735.518 1706.23 738.772 1709.13 740.593C1713.13 742.261 1720.37 751.016 1713.92 757.058C1708.49 762.148 1708.05 765.643 1709.72 768.324C1713.92 774.034 1727.14 773.38 1751.88 771.799C1755.82 742.439 1756.61 683.736 1752.6 654.875C1744.36 655.122 1726.99 655.573 1725.65 655.507C1723.97 655.424 1718.87 656.572 1717.57 660.145C1716.54 663.004 1718.17 666.983 1719.12 668.616C1720.42 670.638 1721.73 675.852 1716.57 680.522C1711.41 685.192 1703.99 685.498 1695.91 684.541C1687.83 683.583 1682.35 675.199 1682.8 671.863C1683.24 668.527 1687.57 661.593 1687.09 658.644C1686.43 654.588 1677.87 654.18 1674.13 654.368Z" fill="#FEF6CF"/>
</g>
<path d="M536.479 118.785L609.382 17.3446C611.108 14.9425 612.113 12.0975 612.278 9.14398L612.893 -1.86262C612.893 -1.86262 523.994 -47.0698 510.892 -63.0621C491.549 -86.6741 505.241 -101.402 544.236 -119.31C623.098 -138.512 514.263 -244.217 471.723 -250.217C440.889 -252.447 428.921 -234.854 417.864 -185.55C388.948 -134.617 343.613 -200.88 235.393 -283.51C181.851 -217.311 147.439 -177.089 143.177 -145.766C151.303 -119.494 173.251 -121.663 196.617 -125.263C225.094 -129.65 238.149 -106.676 240.907 -97.3778C243.861 -91.9172 245.313 -72.4039 227.492 -38.0358C209.67 -3.66763 178.845 14.9691 165.66 19.9915C150.247 29.0336 103.468 31.1262 99.5251 -5.08318C96.2036 -35.5841 85.785 -45.721 72.7963 -46.8487C43.5969 -47.2229 13.022 -2.11046 -43.0391 83.2264C-17.9365 116.136 62.672 158.406 93.6761 191.089C115.332 212.296 107.072 228.687 91.3274 237.144C69.823 248.694 34.5565 236.687 36.5803 292.069C41.1214 328.001 81.9171 367.336 125.023 382.233C159.507 394.15 176.488 381.086 180.668 373.065C190.199 348.721 179.721 289.477 223.455 303.677C266.563 327.578 312.598 365.44 340.528 375.677C360.103 347.971 401.614 289.723 405.155 285.471C409.582 280.155 419.746 246.437 411.181 233.302C404.329 222.795 385.853 232.386 378.128 231.454C368.238 230.718 347.806 222.104 345.2 193.528C342.595 164.952 359.947 139.794 383.114 115.58C406.281 91.3665 447.465 94.1583 457.357 103.898C467.25 113.638 479.373 145.102 490.287 150.828C505.302 158.706 527.823 131.58 536.479 118.785Z" fill="#FEF0AA"/>
<path d="M538.347 103.27L607.774 6.66465C611.105 2.02952 609.931 -4.43195 605.18 -7.59565C583.586 -21.975 528.222 -59.7023 512.76 -78.5768C493.417 -102.189 507.109 -116.917 546.103 -134.825C624.965 -154.026 516.131 -259.732 473.59 -265.732C442.756 -267.962 430.788 -250.368 419.731 -201.064C390.815 -150.131 345.48 -216.395 237.261 -299.024C183.718 -232.826 149.306 -192.604 145.045 -161.28C153.17 -135.009 175.118 -137.178 198.484 -140.778C226.961 -145.165 240.017 -122.191 242.775 -112.892C245.728 -107.432 247.18 -87.9185 229.359 -53.5504C211.538 -19.1823 180.713 -0.545529 167.528 4.47687C152.114 13.5189 105.335 15.6116 101.392 -20.5978C98.0708 -51.0988 87.6522 -61.2356 74.6635 -62.3633C45.4641 -62.7376 14.8893 -17.6251 -41.1719 67.7117C-16.0693 100.621 64.5392 142.891 95.5433 175.575C117.199 196.781 108.939 213.172 93.1946 221.629C72.6951 232.64 43.9322 233.67 38.9977 270.825C38.4961 274.601 38.6576 278.468 39.5819 282.163C48.0733 316.115 86.0445 352.603 126.89 366.718C161.375 378.635 178.356 365.572 182.536 357.55C192.067 333.207 181.588 273.963 225.322 288.163C264.983 310.151 307.12 343.958 335.357 357.197C339.449 359.115 344.197 357.611 346.809 353.924C367.596 324.565 403.729 273.91 407.022 269.956C411.449 264.641 420.3 245.007 411.735 231.872C404.883 221.364 387.72 216.872 379.995 215.939C370.105 215.204 349.674 206.589 347.068 178.013C344.462 149.437 361.814 124.279 384.981 100.065C408.148 75.8519 449.332 78.6436 459.225 88.3837C469.117 98.1238 481.241 129.588 492.154 135.314C507.169 143.191 529.69 116.065 538.347 103.27Z" fill="#FFF7BF"/>
</g>
<defs>
<filter id="filter0_i_456_3922" x="1497.12" y="771.115" width="177" height="122.572" filterUnits="userSpaceOnUse" color-interpolation-filters="sRGB">
<feFlood flood-opacity="0" result="BackgroundImageFix"/>
<feBlend mode="normal" in="SourceGraphic" in2="BackgroundImageFix" result="shape"/>
<feColorMatrix in="SourceAlpha" type="matrix" values="0 0 0 0 0 0 0 0 0 0 0 0 0 0 0 0 0 0 127 0" result="hardAlpha"/>
<feOffset dy="4"/>
<feGaussianBlur stdDeviation="2.5"/>
<feComposite in2="hardAlpha" operator="arithmetic" k2="-1" k3="1"/>
<feColorMatrix type="matrix" values="0 0 0 0 0.464042 0 0 0 0 0.464042 0 0 0 0 0.464042 0 0 0 0.25 0"/>
<feBlend mode="normal" in2="shape" result="effect1_innerShadow_456_3922"/>
</filter>
<filter id="filter1_i_456_3922" x="1610.03" y="654.331" width="145.219" height="122.572" filterUnits="userSpaceOnUse" color-interpolation-filters="sRGB">
<feFlood flood-opacity="0" result="BackgroundImageFix"/>
<feBlend mode="normal" in="SourceGraphic" in2="BackgroundImageFix" result="shape"/>
<feColorMatrix in="SourceAlpha" type="matrix" values="0 0 0 0 0 0 0 0 0 0 0 0 0 0 0 0 0 0 127 0" result="hardAlpha"/>
<feOffset dy="4"/>
<feGaussianBlur stdDeviation="2.5"/>
<feComposite in2="hardAlpha" operator="arithmetic" k2="-1" k3="1"/>
<feColorMatrix type="matrix" values="0 0 0 0 0.464042 0 0 0 0 0.464042 0 0 0 0 0.464042 0 0 0 0.25 0"/>
<feBlend mode="normal" in2="shape" result="effect1_innerShadow_456_3922"/>
</filter>
<clipPath id="clip0_456_3922">
<rect width="1920" height="1140" fill="white"/>
</clipPath>
</defs>
</svg>
