<svg width="136" height="586" viewBox="0 0 136 586" fill="none" xmlns="http://www.w3.org/2000/svg">
<circle cx="8" cy="8" r="8" fill="#C6EEE6"/>
<circle cx="8" cy="42" r="8" fill="#C6EEE6"/>
<circle cx="8" cy="76" r="8" fill="#C6EEE6"/>
<circle cx="8" cy="110" r="8" fill="#C6EEE6"/>
<circle cx="8" cy="144" r="8" fill="#C6EEE6"/>
<circle cx="8" cy="178" r="8" fill="#C6EEE6"/>
<circle cx="8" cy="212" r="8" fill="#C6EEE6"/>
<circle cx="8" cy="246" r="8" fill="#C6EEE6"/>
<circle cx="8" cy="280" r="8" fill="#C6EEE6"/>
<circle cx="8" cy="314" r="8" fill="#C6EEE6"/>
<circle cx="8" cy="348" r="8" fill="#C6EEE6"/>
<circle cx="8" cy="382" r="8" fill="#C6EEE6"/>
<circle cx="8" cy="416" r="8" fill="#C6EEE6"/>
<circle cx="8" cy="450" r="8" fill="#C6EEE6"/>
<circle cx="8" cy="484" r="8" fill="#C6EEE6"/>
<circle cx="8" cy="518" r="8" fill="#C6EEE6"/>
<circle cx="8" cy="552" r="8" fill="#C6EEE6"/>
<circle cx="8" cy="586" r="8" fill="#C6EEE6"/>
<circle cx="39" cy="8" r="7" fill="#BDEEE5"/>
<circle cx="39" cy="42" r="7" fill="#BDEEE5"/>
<circle cx="39" cy="76" r="7" fill="#BDEEE5"/>
<circle cx="39" cy="110" r="7" fill="#BDEEE5"/>
<circle cx="39" cy="144" r="7" fill="#BDEEE5"/>
<circle cx="39" cy="178" r="7" fill="#BDEEE5"/>
<circle cx="39" cy="212" r="7" fill="#BDEEE5"/>
<circle cx="39" cy="246" r="7" fill="#BDEEE5"/>
<circle cx="39" cy="280" r="7" fill="#BDEEE5"/>
<circle cx="39" cy="314" r="7" fill="#BDEEE5"/>
<circle cx="39" cy="348" r="7" fill="#BDEEE5"/>
<circle cx="39" cy="382" r="7" fill="#BDEEE5"/>
<circle cx="39" cy="416" r="7" fill="#BDEEE5"/>
<circle cx="39" cy="450" r="7" fill="#BDEEE5"/>
<circle cx="39" cy="484" r="7" fill="#BDEEE5"/>
<circle cx="39" cy="518" r="7" fill="#BDEEE5"/>
<circle cx="39" cy="552" r="7" fill="#BDEEE5"/>
<circle cx="39" cy="586" r="7" fill="#BDEEE5"/>
<circle cx="70" cy="42" r="6" fill="#D5F4EE"/>
<circle cx="70" cy="76" r="6" fill="#D5F4EE"/>
<circle cx="70" cy="110" r="6" fill="#D5F4EE"/>
<circle cx="70" cy="144" r="6" fill="#D5F4EE"/>
<circle cx="70" cy="178" r="6" fill="#D5F4EE"/>
<circle cx="70" cy="212" r="6" fill="#D5F4EE"/>
<circle cx="70" cy="246" r="6" fill="#D5F4EE"/>
<circle cx="70" cy="280" r="6" fill="#D5F4EE"/>
<circle cx="70" cy="314" r="6" fill="#D5F4EE"/>
<circle cx="70" cy="348" r="6" fill="#D5F4EE"/>
<circle cx="70" cy="382" r="6" fill="#D5F4EE"/>
<circle cx="70" cy="416" r="6" fill="#D5F4EE"/>
<circle cx="70" cy="450" r="6" fill="#D5F4EE"/>
<circle cx="70" cy="484" r="6" fill="#D5F4EE"/>
<circle cx="70" cy="518" r="6" fill="#D5F4EE"/>
<circle cx="70" cy="552" r="6" fill="#D5F4EE"/>
<circle cx="70" cy="586" r="6" fill="#D5F4EE"/>
<circle cx="101" cy="76" r="5" fill="#CAF3EB"/>
<circle cx="101" cy="110" r="5" fill="#CAF3EB"/>
<circle cx="101" cy="144" r="5" fill="#CAF3EB"/>
<circle cx="101" cy="178" r="5" fill="#CAF3EB"/>
<circle cx="101" cy="212" r="5" fill="#CAF3EB"/>
<circle cx="101" cy="246" r="5" fill="#CAF3EB"/>
<circle cx="101" cy="280" r="5" fill="#CAF3EB"/>
<circle cx="101" cy="314" r="5" fill="#CAF3EB"/>
<circle cx="101" cy="348" r="5" fill="#CAF3EB"/>
<circle cx="101" cy="382" r="5" fill="#CAF3EB"/>
<circle cx="101" cy="416" r="5" fill="#CAF3EB"/>
<circle cx="101" cy="450" r="5" fill="#CAF3EB"/>
<circle cx="101" cy="484" r="5" fill="#CAF3EB"/>
<circle cx="101" cy="518" r="5" fill="#CAF3EB"/>
<circle cx="101" cy="552" r="5" fill="#CAF3EB"/>
<circle cx="101" cy="586" r="5" fill="#CAF3EB"/>
<circle cx="132" cy="110" r="4" fill="#DFF3EF"/>
<circle cx="132" cy="144" r="4" fill="#DFF3EF"/>
<circle cx="132" cy="178" r="4" fill="#DFF3EF"/>
<circle cx="132" cy="212" r="4" fill="#DFF3EF"/>
<circle cx="132" cy="246" r="4" fill="#DFF3EF"/>
<circle cx="132" cy="280" r="4" fill="#DFF3EF"/>
<circle cx="132" cy="314" r="4" fill="#DFF3EF"/>
<circle cx="132" cy="348" r="4" fill="#DFF3EF"/>
<circle cx="132" cy="382" r="4" fill="#DFF3EF"/>
<circle cx="132" cy="416" r="4" fill="#DFF3EF"/>
<circle cx="132" cy="450" r="4" fill="#DFF3EF"/>
<circle cx="132" cy="484" r="4" fill="#DFF3EF"/>
<circle cx="132" cy="518" r="4" fill="#DFF3EF"/>
<circle cx="132" cy="552" r="4" fill="#DFF3EF"/>
<circle cx="132" cy="586" r="4" fill="#DFF3EF"/>
</svg>
