<svg width="1920" height="860" viewBox="0 0 1920 860" fill="none" xmlns="http://www.w3.org/2000/svg">
<g clip-path="url(#clip0_456_4165)">
<path d="M933.468 604.541C967.68 578.362 1019.84 577.5 1054.27 602.928L986.592 751.69L-14.3086 704.766L-123.815 595.576C-141.935 373.483 -180.078 355.25 -113.909 492C-144.409 347.5 16.0909 278 87.0911 366.5C108.591 329 159.091 334 173.091 371.5C230.091 289.737 400.091 290 435.091 412.001C468.954 379.192 557.85 398.427 575.246 449.514C590.974 437.68 630.59 436.501 642.09 462.501C695.091 407.5 814.591 440.5 819.263 521.803C882.091 492 930.174 548.167 933.468 604.541Z" fill="url(#paint0_linear_456_4165)"/>
<path d="M1448.02 444.836C1452.34 407.423 1487.34 387.423 1528.84 403.423C1540.34 331.866 1645.84 311.923 1689.34 374.144C1698.84 340.423 1752.34 354.423 1752.34 374.144C1763.84 294.923 1881.34 313.423 1898.34 352.867C1927.84 306.923 2032.34 335.923 2025.34 395.286C2055.84 361.423 2152.34 374.144 2121.84 456.068V677.867H1022.39L1059.89 533.367C1092.83 505.615 1134.8 522.212 1170.39 546C1167.75 509.659 1209.47 466.635 1244.4 477.209C1253.39 424 1328.39 403.423 1368.94 448.136C1387.34 424.923 1428.84 424.923 1448.02 444.836Z" fill="url(#paint1_linear_456_4165)"/>
<path d="M626.711 566.913C622.384 529.5 587.384 509.5 545.884 525.5C534.384 453.943 428.884 434 385.384 496.221C375.884 462.5 322.384 476.5 322.384 496.221C310.884 417 193.384 435.5 176.384 474.944C146.884 429 42.3841 458 49.3842 517.363C18.8844 483.5 -77.6159 496.221 -47.1158 578.145V860.5H1956.88L2071.38 696.001C2099.88 475 1875.38 367.5 1802.88 501.001C1802.88 446.5 1718.38 422.501 1688.38 465.001C1683.38 440.5 1641.38 437 1633.38 458C1590.88 416.057 1509.38 433.001 1497.88 496.221C1465.6 461.862 1399.7 467.147 1379.93 517.363C1364.77 504.805 1343.03 505.466 1328.53 517.363C1278.38 432.944 1124.38 467.443 1132.8 578.145C1078.76 562.946 1020.77 599.286 1014.84 655.444C981.893 627.692 929.835 624.389 894.25 648.177C896.886 611.836 865.256 588.712 830.331 599.286C826.377 539.161 747.302 517.363 705.787 570.213C687.384 547 645.884 547 626.711 566.913Z" fill="url(#paint2_linear_456_4165)"/>
<path d="M1719.59 248C1722.84 258.78 1725.53 263.262 1733.09 266.641H1706.09C1714.39 262.763 1716.96 258.19 1719.59 248Z" fill="#FFED8F"/>
<path d="M1719.59 285.288C1722.84 274.508 1725.53 270.026 1733.09 266.647H1706.09C1714.39 270.525 1716.96 275.098 1719.59 285.288Z" fill="#FFED8F"/>
<path d="M1401.09 297.809C1405.66 312.981 1409.45 319.289 1420.09 324.044H1382.09C1393.77 318.586 1397.39 312.15 1401.09 297.809Z" fill="#FFE457"/>
<path d="M1401.09 350.288C1405.66 335.116 1409.45 328.808 1420.09 324.053H1382.09C1393.77 329.511 1397.39 335.947 1401.09 350.288Z" fill="#FFE457"/>
<path d="M1324.59 369C1327.12 377.384 1329.21 380.87 1335.09 383.498H1314.09C1320.55 380.482 1322.55 376.925 1324.59 369Z" fill="#FFF4B7"/>
<path d="M1324.59 398C1327.12 389.616 1329.21 386.13 1335.09 383.502H1314.09C1320.55 386.518 1322.55 390.075 1324.59 398Z" fill="#FFF4B7"/>
<path d="M547.59 330C552.279 345.572 556.17 352.045 567.09 356.926H528.09C540.072 351.324 543.789 344.719 547.59 330Z" fill="#FFED91"/>
<path d="M547.59 383.86C552.279 368.289 556.17 361.815 567.09 356.934H528.09C540.072 362.536 543.789 369.141 547.59 383.86Z" fill="#FFED91"/>
<path d="M480.589 340C483.114 348.384 485.209 351.87 491.089 354.498H470.09C476.542 351.482 478.543 347.925 480.589 340Z" fill="#FFF4B7"/>
<path d="M480.589 369C483.114 360.616 485.209 357.13 491.089 354.502H470.09C476.542 357.518 478.543 361.075 480.589 369Z" fill="#FFF4B7"/>
<path d="M231.59 257C234.836 267.78 237.53 272.262 245.09 275.641H218.09C226.385 271.763 228.958 267.19 231.59 257Z" fill="#FFF6C4"/>
<path d="M231.59 294.288C234.836 283.508 237.53 279.026 245.09 275.647H218.09C226.385 279.525 228.958 284.098 231.59 294.288Z" fill="#FFF6C4"/>
</g>
<defs>
<linearGradient id="paint0_linear_456_4165" x1="1030.65" y1="415.079" x2="985.14" y2="1005.22" gradientUnits="userSpaceOnUse">
<stop offset="0.0671484" stop-color="#ECFAFD"/>
<stop offset="1" stop-color="#97C1FF"/>
</linearGradient>
<linearGradient id="paint1_linear_456_4165" x1="1148.09" y1="339.563" x2="1202.39" y2="1177.09" gradientUnits="userSpaceOnUse">
<stop offset="0.0671484" stop-color="#ECFAFD"/>
<stop offset="1" stop-color="#97C1FF"/>
</linearGradient>
<linearGradient id="paint2_linear_456_4165" x1="926.641" y1="461.64" x2="914.449" y2="1297.38" gradientUnits="userSpaceOnUse">
<stop offset="0.0671484" stop-color="#ECFAFD"/>
<stop offset="1" stop-color="#97C1FF"/>
</linearGradient>
<clipPath id="clip0_456_4165">
<rect width="1920" height="860" fill="white"/>
</clipPath>
</defs>
</svg>
