<svg width="164" height="56" viewBox="0 0 164 56" fill="none" xmlns="http://www.w3.org/2000/svg">
<path d="M149.682 1.00018H13.8718C13.3768 1.00018 12.8877 1.00018 12.3939 1.00288C11.9806 1.00558 11.5706 1.01342 11.1534 1.02002C10.2468 1.03069 9.34247 1.11044 8.44808 1.25858C7.55496 1.40994 6.68981 1.69531 5.8819 2.10503C5.07497 2.51821 4.33767 3.0551 3.69672 3.69622C3.05241 4.33554 2.51533 5.0745 2.10612 5.88469C1.69579 6.69327 1.41126 7.55974 1.26237 8.45417C1.11206 9.34748 1.03118 10.2511 1.02045 11.1569C1.00792 11.5708 1.0066 11.9861 1 12.4V43.6043C1.0066 44.0235 1.00792 44.4295 1.02045 44.8488C1.03119 45.7546 1.11207 46.6582 1.26237 47.5514C1.41085 48.4464 1.6954 49.3133 2.10612 50.1222C2.51514 50.9298 3.0523 51.6658 3.69672 52.3015C4.33524 52.9455 5.07302 53.4827 5.8819 53.8928C6.6898 54.3036 7.55486 54.5907 8.44808 54.7444C9.34262 54.8913 10.2469 54.9711 11.1534 54.983C11.5706 54.9922 11.9806 54.9975 12.3939 54.9975C12.8877 55.0002 13.3768 55.0002 13.8718 55.0002H149.682C150.167 55.0002 150.66 55.0002 151.145 54.9975C151.557 54.9975 151.979 54.9922 152.39 54.983C153.295 54.9717 154.197 54.8919 155.09 54.7444C155.986 54.5896 156.854 54.3026 157.666 53.8928C158.474 53.4825 159.211 52.9453 159.849 52.3015C160.492 51.6633 161.03 50.9278 161.444 50.1222C161.852 49.3127 162.134 48.4458 162.28 47.5514C162.431 46.658 162.514 45.7547 162.531 44.8488C162.536 44.4295 162.536 44.0235 162.536 43.6043C162.547 43.1138 162.546 42.6261 162.546 42.1277V13.874C162.546 13.3796 162.547 12.8891 162.536 12.4C162.536 11.9861 162.536 11.5708 162.531 11.1568C162.514 10.2509 162.431 9.34754 162.28 8.45412C162.133 7.56021 161.852 6.6938 161.444 5.88464C160.611 4.26069 159.29 2.93881 157.666 2.10491C156.854 1.69619 155.986 1.4109 155.09 1.25846C154.197 1.10966 153.295 1.02989 152.39 1.01983C151.979 1.01324 151.557 1.00533 151.145 1.0027C150.66 1 150.167 1.00018 149.682 1.00018Z" fill="#A6A6A6"/>
<path d="M12.4016 53.8191C11.9903 53.8191 11.5889 53.8139 11.1809 53.8047C10.3355 53.7937 9.49204 53.7201 8.65751 53.5845C7.87936 53.4505 7.12554 53.2012 6.42091 52.8448C5.72275 52.4914 5.08597 52.0281 4.53497 51.4724C3.97598 50.9234 3.51061 50.2865 3.15728 49.5872C2.80005 48.8833 2.55283 48.1288 2.42423 47.3499C2.28534 46.5131 2.2102 45.6669 2.19945 44.8187C2.19089 44.534 2.17969 43.586 2.17969 43.586V12.4002C2.17969 12.4002 2.19162 11.4668 2.19952 11.1926C2.20981 10.3457 2.28452 9.50087 2.42298 8.66533C2.55183 7.88438 2.79924 7.1277 3.15666 6.42149C3.50869 5.72261 3.97148 5.0853 4.52709 4.53426C5.08208 3.97798 5.7209 3.51221 6.42025 3.15392C7.12326 2.79872 7.87565 2.55118 8.65223 2.41961C9.4895 2.28267 10.3358 2.20864 11.1842 2.19812L12.4023 2.18164H151.14L152.373 2.19879C153.213 2.20877 154.052 2.28215 154.881 2.41828C155.666 2.55151 156.426 2.80077 157.137 3.15788C158.538 3.87992 159.678 5.02226 160.397 6.42479C160.749 7.12612 160.993 7.87662 161.12 8.65083C161.26 9.49323 161.338 10.3447 161.354 11.1986C161.358 11.5809 161.358 11.9916 161.358 12.4002C161.369 12.9065 161.369 13.3884 161.369 13.8742V42.1279C161.369 42.6183 161.369 43.0969 161.358 43.5794C161.358 44.0184 161.358 44.4206 161.353 44.8345C161.337 45.6731 161.26 46.5094 161.122 47.3367C160.996 48.1211 160.751 48.8815 160.393 49.5912C160.038 50.283 159.575 50.9143 159.022 51.4619C158.471 52.0205 157.833 52.4866 157.133 52.8423C156.424 53.2014 155.665 53.4516 154.881 53.5845C154.047 53.7208 153.203 53.7944 152.358 53.8047C151.963 53.8139 151.548 53.8191 151.146 53.8191L149.683 53.8218L12.4016 53.8191Z" fill="black"/>
<path d="M34.4373 28.4056C34.4518 27.2788 34.7511 26.174 35.3074 25.194C35.8636 24.214 36.6587 23.3905 37.6187 22.8004C37.0088 21.9294 36.2043 21.2126 35.269 20.707C34.3337 20.2013 33.2933 19.9207 32.2306 19.8875C29.9636 19.6495 27.7659 21.244 26.6107 21.244C25.4331 21.244 23.6545 19.9111 21.7392 19.9505C20.5003 19.9905 19.293 20.3508 18.2347 20.9962C17.1765 21.6416 16.3035 22.5501 15.7008 23.6331C13.0899 28.1535 15.0374 34.7969 17.5384 38.4509C18.7897 40.2401 20.2521 42.2387 22.1657 42.1678C24.0382 42.0901 24.7376 40.9738 26.9979 40.9738C29.2372 40.9738 29.8933 42.1678 31.8457 42.1227C33.855 42.0901 35.121 40.3256 36.3284 38.5194C37.2275 37.2445 37.9193 35.8355 38.3783 34.3445C37.2109 33.8508 36.2147 33.0243 35.5139 31.9682C34.8131 30.9121 34.4387 29.6731 34.4373 28.4056Z" fill="white"/>
<path d="M30.75 17.4838C31.8456 16.1686 32.3853 14.4782 32.2546 12.7715C30.5809 12.9473 29.0348 13.7472 27.9244 15.012C27.3815 15.6298 26.9657 16.3486 26.7008 17.1272C26.4359 17.9059 26.327 18.7291 26.3804 19.5498C27.2176 19.5585 28.0458 19.377 28.8027 19.0191C29.5596 18.6613 30.2254 18.1363 30.75 17.4838Z" fill="white"/>
<path d="M58.1078 37.6374H51.7177L50.1832 42.1686H47.4766L53.5292 25.4043H56.3412L62.3938 42.1686H59.641L58.1078 37.6374ZM52.3795 35.5465H57.4447L54.9478 28.1927H54.8779L52.3795 35.5465Z" fill="white"/>
<path d="M75.4664 36.0585C75.4664 39.8567 73.4335 42.2969 70.3657 42.2969C69.5885 42.3376 68.8157 42.1586 68.1355 41.7804C67.4554 41.4022 66.8955 40.8401 66.52 40.1585H66.462V46.2125H63.9531V29.9465H66.3816V31.9795H66.4277C66.8205 31.3011 67.3898 30.742 68.0752 30.3615C68.7605 29.981 69.5361 29.7934 70.3195 29.8187C73.4216 29.8187 75.4664 32.2708 75.4664 36.0585ZM72.8877 36.0585C72.8877 33.5839 71.6089 31.957 69.6577 31.957C67.7408 31.957 66.4514 33.6182 66.4514 36.0585C66.4514 38.5212 67.7408 40.1704 69.6577 40.1704C71.6089 40.1704 72.8877 38.5554 72.8877 36.0585Z" fill="white"/>
<path d="M88.9195 36.0585C88.9195 39.8567 86.8866 42.2969 83.8188 42.2969C83.0417 42.3376 82.2688 42.1586 81.5887 41.7804C80.9085 41.4022 80.3487 40.8401 79.9731 40.1585H79.9151V46.2124H77.4062V29.9465H79.8347V31.9794H79.8808C80.2736 31.3011 80.8429 30.742 81.5282 30.3615C82.2135 29.981 82.9892 29.7934 83.7726 29.8187C86.8747 29.8187 88.9195 32.2708 88.9195 36.0585ZM86.3408 36.0585C86.3408 33.5839 85.062 31.957 83.1108 31.957C81.1939 31.957 79.9046 33.6182 79.9046 36.0585C79.9046 38.5212 81.1939 40.1704 83.1108 40.1704C85.062 40.1704 86.3408 38.5554 86.3408 36.0585Z" fill="white"/>
<path d="M97.8104 37.4979C97.9963 39.1603 99.6113 40.2519 101.818 40.2519C103.933 40.2519 105.454 39.1603 105.454 37.6613C105.454 36.3601 104.537 35.5809 102.364 35.047L100.191 34.5236C97.113 33.78 95.6839 32.3404 95.6839 30.0043C95.6839 27.1118 98.2046 25.125 101.784 25.125C105.326 25.125 107.755 27.1118 107.837 30.0043H105.304C105.152 28.3312 103.769 27.3214 101.748 27.3214C99.7273 27.3214 98.3443 28.3431 98.3443 29.8302C98.3443 31.0154 99.2276 31.7129 101.388 32.2467L103.235 32.7003C106.675 33.5137 108.104 34.8954 108.104 37.3475C108.104 40.4838 105.606 42.4482 101.632 42.4482C97.9145 42.4482 95.4043 40.53 95.2422 37.4977L97.8104 37.4979Z" fill="white"/>
<path d="M113.517 27.0547V29.9472H115.841V31.9339H113.517V38.6721C113.517 39.7188 113.982 40.2066 115.004 40.2066C115.28 40.2018 115.555 40.1825 115.829 40.1486V42.1235C115.37 42.2093 114.903 42.2482 114.435 42.2395C111.961 42.2395 110.996 41.3101 110.996 38.9397V31.9339H109.219V29.9472H110.996V27.0547H113.517Z" fill="white"/>
<path d="M117.188 36.0591C117.188 32.2134 119.452 29.7969 122.984 29.7969C126.528 29.7969 128.782 32.2134 128.782 36.0591C128.782 39.9153 126.54 42.3213 122.984 42.3213C119.43 42.3213 117.188 39.9153 117.188 36.0591ZM126.226 36.0591C126.226 33.421 125.017 31.8641 122.984 31.8641C120.951 31.8641 119.744 33.4329 119.744 36.0591C119.744 38.7077 120.951 40.2528 122.984 40.2528C125.017 40.2528 126.226 38.7077 126.226 36.0591Z" fill="white"/>
<path d="M130.852 29.9464H133.244V32.0268H133.302C133.464 31.377 133.845 30.8028 134.38 30.4007C134.916 29.9986 135.573 29.793 136.242 29.8185C136.532 29.8175 136.82 29.8489 137.102 29.9121V32.2588C136.737 32.1473 136.356 32.0961 135.975 32.1072C135.61 32.0924 135.247 32.1567 134.91 32.2956C134.572 32.4345 134.269 32.6447 134.021 32.9119C133.772 33.179 133.585 33.4968 133.471 33.8433C133.357 34.1898 133.319 34.5568 133.36 34.9193V42.1689H130.852L130.852 29.9464Z" fill="white"/>
<path d="M148.666 38.5798C148.329 40.7986 146.168 42.3213 143.403 42.3213C139.848 42.3213 137.641 39.939 137.641 36.1171C137.641 32.2833 139.859 29.7969 143.298 29.7969C146.679 29.7969 148.806 32.1198 148.806 35.8257V36.6853H140.173V36.8369C140.133 37.2867 140.19 37.7399 140.338 38.1663C140.487 38.5926 140.725 38.9825 141.036 39.3099C141.347 39.6374 141.724 39.8949 142.142 40.0654C142.56 40.2359 143.01 40.3155 143.461 40.2989C144.054 40.3545 144.649 40.2172 145.158 39.9074C145.666 39.5977 146.061 39.132 146.284 38.5798L148.666 38.5798ZM140.185 34.9319H146.296C146.318 34.5274 146.257 34.1227 146.116 33.7431C145.974 33.3634 145.756 33.0171 145.474 32.7258C145.193 32.4345 144.854 32.2046 144.48 32.0504C144.105 31.8962 143.703 31.8211 143.298 31.8298C142.889 31.8273 142.484 31.9058 142.106 32.0607C141.728 32.2156 141.384 32.4439 141.095 32.7323C140.806 33.0207 140.576 33.3636 140.42 33.7411C140.264 34.1186 140.184 34.5233 140.185 34.9319Z" fill="white"/>
<path d="M52.0659 12.7865C52.5918 12.7487 53.1196 12.8282 53.6112 13.0191C54.1027 13.2101 54.5458 13.5077 54.9084 13.8906C55.271 14.2735 55.5441 14.7321 55.708 15.2333C55.8719 15.7345 55.9225 16.2659 55.8561 16.789C55.8561 19.3625 54.4653 20.8417 52.0659 20.8417H49.1562V12.7865H52.0659ZM50.4074 19.7025H51.9261C52.302 19.725 52.6781 19.6634 53.0271 19.5221C53.3761 19.3809 53.6893 19.1636 53.9438 18.8861C54.1982 18.6086 54.3876 18.2778 54.4981 17.9179C54.6086 17.558 54.6375 17.1779 54.5826 16.8054C54.6335 16.4344 54.6017 16.0567 54.4895 15.6994C54.3773 15.3421 54.1874 15.0141 53.9336 14.7388C53.6797 14.4635 53.368 14.2477 53.021 14.107C52.6739 13.9663 52.3 13.9041 51.9261 13.9248H50.4074V19.7025Z" fill="white"/>
<path d="M57.2714 17.8006C57.2332 17.4011 57.2789 16.998 57.4055 16.6172C57.5322 16.2365 57.7371 15.8863 58.007 15.5894C58.2769 15.2924 58.606 15.0551 58.973 14.8927C59.34 14.7304 59.7368 14.6465 60.1381 14.6465C60.5395 14.6465 60.9363 14.7304 61.3033 14.8927C61.6703 15.0551 61.9994 15.2924 62.2693 15.5894C62.5392 15.8863 62.7441 16.2365 62.8708 16.6172C62.9974 16.998 63.0431 17.4011 63.0049 17.8006C63.0439 18.2005 62.9987 18.6041 62.8724 18.9855C62.746 19.3669 62.5413 19.7177 62.2713 20.0153C62.0013 20.3128 61.672 20.5506 61.3047 20.7133C60.9373 20.876 60.5399 20.9601 60.1381 20.9601C59.7364 20.9601 59.339 20.876 58.9716 20.7133C58.6043 20.5506 58.275 20.3128 58.005 20.0153C57.735 19.7177 57.5303 19.3669 57.4039 18.9855C57.2776 18.6041 57.2324 18.2005 57.2714 17.8006ZM61.7709 17.8006C61.7709 16.4829 61.179 15.7123 60.1401 15.7123C59.0973 15.7123 58.5107 16.4829 58.5107 17.8006C58.5107 19.1289 59.0973 19.8935 60.1401 19.8935C61.179 19.8935 61.7709 19.1236 61.7709 17.8006Z" fill="white"/>
<path d="M70.6225 20.8426H69.3779L68.1215 16.3655H68.0266L66.7755 20.8426H65.5428L63.8672 14.7637H65.084L66.173 19.4023H66.2627L67.5125 14.7637H68.6634L69.9132 19.4023H70.0081L71.0918 14.7637H72.2915L70.6225 20.8426Z" fill="white"/>
<path d="M73.7031 14.764H74.858V15.7296H74.9477C75.0997 15.3828 75.3562 15.0921 75.6814 14.8979C76.0066 14.7038 76.3842 14.6159 76.7617 14.6466C77.0575 14.6244 77.3545 14.669 77.6307 14.7771C77.9069 14.8852 78.1553 15.0541 78.3573 15.2713C78.5594 15.4884 78.71 15.7482 78.7981 16.0315C78.8861 16.3147 78.9092 16.6142 78.8658 16.9076V20.8428H77.6661V17.2089C77.6661 16.232 77.2416 15.7461 76.3544 15.7461C76.1535 15.7368 75.9531 15.771 75.7667 15.8463C75.5803 15.9217 75.4124 16.0365 75.2746 16.1828C75.1367 16.3291 75.0321 16.5035 74.9679 16.694C74.9038 16.8846 74.8816 17.0867 74.9028 17.2866V20.8429H73.7031L73.7031 14.764Z" fill="white"/>
<path d="M80.7734 12.3906H81.9731V20.8426H80.7734V12.3906Z" fill="white"/>
<path d="M83.6463 17.8007C83.6082 17.4012 83.6539 16.9981 83.7806 16.6173C83.9073 16.2365 84.1122 15.8864 84.3822 15.5894C84.6521 15.2924 84.9812 15.0551 85.3482 14.8927C85.7152 14.7304 86.1121 14.6465 86.5134 14.6465C86.9148 14.6465 87.3117 14.7304 87.6787 14.8927C88.0457 15.0551 88.3748 15.2924 88.6447 15.5894C88.9147 15.8864 89.1196 16.2365 89.2463 16.6173C89.373 16.9981 89.4187 17.4012 89.3805 17.8007C89.4194 18.2006 89.3742 18.6043 89.2479 18.9857C89.1215 19.3671 88.9167 19.7178 88.6467 20.0154C88.3766 20.3129 88.0474 20.5507 87.68 20.7134C87.3126 20.8761 86.9152 20.9602 86.5134 20.9602C86.1116 20.9602 85.7143 20.8761 85.3469 20.7134C84.9795 20.5507 84.6502 20.3129 84.3802 20.0154C84.1102 19.7178 83.9054 19.3671 83.779 18.9857C83.6526 18.6043 83.6074 18.2006 83.6463 17.8007ZM88.1459 17.8007C88.1459 16.483 87.5539 15.7124 86.5151 15.7124C85.4723 15.7124 84.8856 16.483 84.8856 17.8007C84.8856 19.129 85.4723 19.8936 86.5151 19.8936C87.554 19.8936 88.1459 19.1237 88.1459 17.8007Z" fill="white"/>
<path d="M90.6406 19.1236C90.6406 18.0294 91.4554 17.3986 92.9016 17.3089L94.5482 17.214V16.6893C94.5482 16.0472 94.1237 15.6847 93.3037 15.6847C92.634 15.6847 92.1699 15.9306 92.0368 16.3604H90.8753C90.9979 15.3162 91.9801 14.6465 93.3591 14.6465C94.8831 14.6465 95.7427 15.4052 95.7427 16.6893V20.8428H94.5878V19.9885H94.4929C94.3002 20.2949 94.0297 20.5447 93.7089 20.7124C93.3881 20.8801 93.0285 20.9596 92.6669 20.9429C92.4117 20.9695 92.1538 20.9422 91.9098 20.863C91.6658 20.7838 91.4411 20.6543 91.2501 20.4828C91.0592 20.3114 90.9064 20.1019 90.8014 19.8678C90.6964 19.6337 90.6416 19.3802 90.6406 19.1236ZM94.5482 18.6042V18.096L93.0638 18.1909C92.2266 18.2469 91.8469 18.5317 91.8469 19.0676C91.8469 19.6147 92.3215 19.9331 92.9742 19.9331C93.1654 19.9524 93.3585 19.9331 93.5421 19.8763C93.7258 19.8195 93.8961 19.7263 94.0429 19.6023C94.1898 19.4783 94.3102 19.3261 94.397 19.1546C94.4838 18.9831 94.5353 18.7959 94.5482 18.6042Z" fill="white"/>
<path d="M97.3203 17.8005C97.3203 15.8797 98.3078 14.6628 99.8437 14.6628C100.224 14.6453 100.601 14.7363 100.931 14.9252C101.261 15.114 101.53 15.393 101.708 15.7293H101.797V12.3906H102.997V20.8426H101.848V19.8822H101.753C101.561 20.2163 101.283 20.4918 100.946 20.6787C100.61 20.8657 100.228 20.957 99.8437 20.9428C98.2972 20.9429 97.3203 19.726 97.3203 17.8005ZM98.5596 17.8005C98.5596 19.0899 99.1674 19.8657 100.184 19.8657C101.195 19.8657 101.82 19.0787 101.82 17.8058C101.82 16.5389 101.188 15.7406 100.184 15.7406C99.1739 15.7406 98.5596 16.5217 98.5596 17.8005Z" fill="white"/>
<path d="M107.959 17.8006C107.921 17.4011 107.966 16.998 108.093 16.6172C108.22 16.2365 108.425 15.8863 108.695 15.5894C108.964 15.2924 109.293 15.0551 109.66 14.8927C110.027 14.7304 110.424 14.6465 110.826 14.6465C111.227 14.6465 111.624 14.7304 111.991 14.8927C112.358 15.0551 112.687 15.2924 112.957 15.5894C113.227 15.8863 113.432 16.2365 113.558 16.6172C113.685 16.998 113.731 17.4011 113.692 17.8006C113.731 18.2005 113.686 18.6041 113.56 18.9855C113.434 19.3669 113.229 19.7177 112.959 20.0153C112.689 20.3128 112.36 20.5506 111.992 20.7133C111.625 20.876 111.227 20.9601 110.826 20.9601C110.424 20.9601 110.027 20.876 109.659 20.7133C109.292 20.5506 108.963 20.3128 108.693 20.0153C108.423 19.7177 108.218 19.3669 108.091 18.9855C107.965 18.6041 107.92 18.2005 107.959 17.8006ZM112.458 17.8006C112.458 16.4829 111.866 15.7123 110.828 15.7123C109.785 15.7123 109.198 16.4829 109.198 17.8006C109.198 19.1289 109.785 19.8935 110.828 19.8935C111.866 19.8935 112.458 19.1236 112.458 17.8006Z" fill="white"/>
<path d="M115.305 14.764H116.46V15.7296H116.549C116.701 15.3828 116.958 15.0921 117.283 14.8979C117.608 14.7038 117.986 14.6159 118.363 14.6466C118.659 14.6244 118.956 14.669 119.232 14.7771C119.508 14.8852 119.757 15.0541 119.959 15.2713C120.161 15.4884 120.312 15.7482 120.4 16.0315C120.488 16.3147 120.511 16.6142 120.467 16.9076V20.8428H119.268V17.2089C119.268 16.232 118.843 15.7461 117.956 15.7461C117.755 15.7368 117.555 15.771 117.368 15.8463C117.182 15.9217 117.014 16.0365 116.876 16.1828C116.738 16.3291 116.634 16.5035 116.569 16.694C116.505 16.8846 116.483 17.0867 116.504 17.2866V20.8429H115.305V14.764Z" fill="white"/>
<path d="M127.244 13.25V14.7912H128.561V15.8017H127.244V18.9275C127.244 19.5643 127.507 19.8431 128.104 19.8431C128.257 19.8426 128.409 19.8334 128.561 19.8154V20.8147C128.346 20.8533 128.127 20.8738 127.909 20.876C126.574 20.876 126.043 20.4067 126.043 19.2347V15.8016H125.078V14.7911H126.043V13.25H127.244Z" fill="white"/>
<path d="M130.203 12.3906H131.392V15.7406H131.487C131.647 15.3905 131.91 15.0981 132.242 14.9032C132.574 14.7084 132.957 14.6205 133.341 14.6516C133.635 14.6356 133.929 14.6847 134.202 14.7955C134.475 14.9062 134.721 15.0759 134.921 15.2924C135.12 15.5088 135.27 15.7667 135.359 16.0477C135.448 16.3287 135.474 16.6258 135.434 16.9179V20.8426H134.233V17.2138C134.233 16.2429 133.781 15.7511 132.933 15.7511C132.727 15.7342 132.52 15.7625 132.326 15.8342C132.132 15.9058 131.956 16.019 131.81 16.1658C131.664 16.3126 131.552 16.4894 131.482 16.684C131.411 16.8786 131.385 17.0862 131.403 17.2923V20.8426H130.203L130.203 12.3906Z" fill="white"/>
<path d="M142.429 19.2015C142.266 19.7571 141.913 20.2377 141.431 20.5592C140.95 20.8807 140.371 21.0226 139.795 20.9602C139.394 20.9708 138.996 20.8941 138.629 20.7354C138.261 20.5767 137.932 20.3399 137.665 20.0414C137.397 19.7428 137.198 19.3897 137.081 19.0066C136.964 18.6234 136.932 18.2194 136.987 17.8225C136.934 17.4244 136.966 17.0195 137.083 16.6352C137.2 16.2509 137.398 15.8962 137.664 15.595C137.929 15.2939 138.257 15.0533 138.624 14.8897C138.99 14.7261 139.388 14.6432 139.79 14.6466C141.481 14.6466 142.502 15.8022 142.502 17.7111V18.1297H138.209V18.1969C138.19 18.42 138.218 18.6446 138.291 18.8562C138.364 19.0678 138.481 19.2618 138.633 19.4258C138.786 19.5897 138.971 19.72 139.176 19.8083C139.382 19.8966 139.604 19.9409 139.828 19.9384C140.115 19.9729 140.406 19.9212 140.663 19.79C140.921 19.6588 141.133 19.4539 141.274 19.2015L142.429 19.2015ZM138.209 17.2424H141.279C141.295 17.0384 141.267 16.8335 141.198 16.6408C141.129 16.4481 141.021 16.272 140.88 16.1237C140.739 15.9754 140.569 15.8582 140.38 15.7797C140.191 15.7011 139.988 15.663 139.783 15.6677C139.576 15.6651 139.37 15.704 139.177 15.7822C138.985 15.8605 138.811 15.9764 138.664 16.1231C138.517 16.2699 138.401 16.4445 138.323 16.6368C138.245 16.829 138.206 17.0349 138.209 17.2424Z" fill="white"/>
</svg>
