<svg width="183" height="56" viewBox="0 0 183 56" fill="none" xmlns="http://www.w3.org/2000/svg">
<path d="M174.25 1.5H8.625C4.96611 1.5 2 4.46611 2 8.125V47.875C2 51.5339 4.96611 54.5 8.625 54.5H174.25C177.909 54.5 180.875 51.5339 180.875 47.875V8.125C180.875 4.46611 177.909 1.5 174.25 1.5Z" fill="black"/>
<path d="M174.25 2.56C177.324 2.56 179.815 5.051 179.815 8.125V47.875C179.815 50.949 177.324 53.44 174.25 53.44H8.625C5.551 53.44 3.06 50.949 3.06 47.875V8.125C3.06 5.051 5.551 2.56 8.625 2.56H174.25ZM174.25 1.5H8.625C4.98125 1.5 2 4.48125 2 8.125V47.875C2 51.5188 4.98125 54.5 8.625 54.5H174.25C177.894 54.5 180.875 51.5188 180.875 47.875V8.125C180.875 4.48125 177.894 1.5 174.25 1.5Z" fill="#A6A6A6"/>
<path d="M64.8318 15.0668C64.8318 16.1798 64.5006 17.0676 63.8381 17.7168C63.0961 18.4986 62.1156 18.8961 60.9231 18.8961C59.7306 18.8961 58.8031 18.4986 57.9948 17.7036C57.1866 16.9086 56.7891 15.9148 56.7891 14.7488C56.7891 13.5828 57.1866 12.5891 57.9948 11.7941C58.8031 10.9991 59.7703 10.6016 60.9231 10.6016C61.4928 10.6016 62.0361 10.7076 62.5528 10.9328C63.0696 11.1581 63.4803 11.4496 63.7983 11.8206L63.0961 12.5228C62.5661 11.9001 61.8506 11.5821 60.9231 11.5821C60.0883 11.5821 59.3596 11.8736 58.7501 12.4698C58.1406 13.0528 57.8358 13.8213 57.8358 14.7621C57.8358 15.7028 58.1406 16.4713 58.7501 17.0543C59.3596 17.6373 60.0883 17.9421 60.9231 17.9421C61.8108 17.9421 62.5528 17.6506 63.1491 17.0543C63.5333 16.6701 63.7586 16.1268 63.8116 15.4378H60.9231V14.4838H64.7788C64.8186 14.6958 64.8318 14.8946 64.8318 15.0801V15.0668Z" fill="white" stroke="white" stroke-width="0.265" stroke-miterlimit="10"/>
<path d="M70.9422 11.7539H67.3249V14.2714H70.5844V15.2254H67.3249V17.7429H70.9422V18.7234H66.3047V10.7734H70.9422V11.7539Z" fill="white" stroke="white" stroke-width="0.265" stroke-miterlimit="10"/>
<path d="M75.2462 18.7234H74.226V11.7539H72V10.7734H77.459V11.7539H75.233V18.7234H75.2462Z" fill="white" stroke="white" stroke-width="0.265" stroke-miterlimit="10"/>
<path d="M81.4219 18.7234V10.7734H82.4421V18.7234H81.4219Z" fill="white" stroke="white" stroke-width="0.265" stroke-miterlimit="10"/>
<path d="M86.9728 18.7234H85.9526V11.7539H83.7266V10.7734H89.1856V11.7539H86.9596V18.7234H86.9728Z" fill="white" stroke="white" stroke-width="0.265" stroke-miterlimit="10"/>
<path d="M99.5351 17.6903C98.7533 18.4986 97.7861 18.8961 96.6201 18.8961C95.4541 18.8961 94.4868 18.4986 93.7051 17.6903C92.9233 16.8821 92.5391 15.9016 92.5391 14.7488C92.5391 13.5961 92.9233 12.6023 93.7051 11.8073C94.4868 10.9991 95.4541 10.6016 96.6201 10.6016C97.7861 10.6016 98.7401 10.9991 99.5351 11.8073C100.317 12.6156 100.714 13.5961 100.714 14.7488C100.714 15.9016 100.317 16.8953 99.5483 17.6903H99.5351ZM94.4603 17.0278C95.0433 17.6241 95.7721 17.9156 96.6201 17.9156C97.4681 17.9156 98.1968 17.6241 98.7798 17.0278C99.3628 16.4316 99.6676 15.6763 99.6676 14.7488C99.6676 13.8213 99.3761 13.0661 98.7798 12.4698C98.1968 11.8736 97.4681 11.5821 96.6201 11.5821C95.7721 11.5821 95.0433 11.8736 94.4603 12.4698C93.8773 13.0661 93.5726 13.8213 93.5726 14.7488C93.5726 15.6763 93.8641 16.4316 94.4603 17.0278Z" fill="white" stroke="white" stroke-width="0.265" stroke-miterlimit="10"/>
<path d="M102.145 18.7234V10.7734H103.39L107.259 16.9612H107.299L107.259 15.4242V10.7734H108.279V18.7234H107.219L103.178 12.2442H103.138L103.178 13.7812V18.7367H102.158L102.145 18.7234Z" fill="white" stroke="white" stroke-width="0.265" stroke-miterlimit="10"/>
<path d="M92.2825 30.3173C89.1687 30.3173 86.6248 32.6891 86.6248 35.9486C86.6248 39.2081 89.1687 41.5798 92.2825 41.5798C95.3962 41.5798 97.9403 39.1948 97.9403 35.9486C97.9403 32.7023 95.3962 30.3173 92.2825 30.3173ZM92.2825 39.3671C90.5732 39.3671 89.1025 37.9626 89.1025 35.9486C89.1025 33.9346 90.5732 32.5301 92.2825 32.5301C93.9917 32.5301 95.4625 33.9213 95.4625 35.9486C95.4625 37.9758 93.9917 39.3671 92.2825 39.3671ZM79.9335 30.3173C76.8197 30.3173 74.2758 32.6891 74.2758 35.9486C74.2758 39.2081 76.8197 41.5798 79.9335 41.5798C83.0472 41.5798 85.5912 39.1948 85.5912 35.9486C85.5912 32.7023 83.0472 30.3173 79.9335 30.3173ZM79.9335 39.3671C78.2242 39.3671 76.7535 37.9626 76.7535 35.9486C76.7535 33.9346 78.2242 32.5301 79.9335 32.5301C81.6427 32.5301 83.1135 33.9213 83.1135 35.9486C83.1135 37.9758 81.6427 39.3671 79.9335 39.3671ZM65.2525 32.0531V34.4381H70.9765C70.8043 35.7896 70.3538 36.7701 69.678 37.4458C68.8433 38.2806 67.5447 39.1948 65.2657 39.1948C61.7412 39.1948 58.9852 36.3593 58.9852 32.8348C58.9852 29.3103 61.7412 26.4748 65.2657 26.4748C67.1605 26.4748 68.5517 27.2168 69.572 28.1841L71.2547 26.5013C69.8237 25.1366 67.929 24.0898 65.2525 24.0898C60.4295 24.0898 56.375 28.0118 56.375 32.8481C56.375 37.6843 60.4295 41.6063 65.2525 41.6063C67.8628 41.6063 69.8237 40.7583 71.3607 39.1551C72.9375 37.5783 73.4277 35.3523 73.4277 33.5636C73.4277 33.0071 73.388 32.4903 73.2953 32.0663H65.2525V32.0531ZM125.288 33.9081C124.825 32.6493 123.394 30.3173 120.465 30.3173C117.537 30.3173 115.152 32.5963 115.152 35.9486C115.152 39.1021 117.537 41.5798 120.744 41.5798C123.327 41.5798 124.825 40.0031 125.434 39.0888L123.513 37.8036C122.877 38.7443 122.002 39.3671 120.744 39.3671C119.485 39.3671 118.584 38.7841 118.014 37.6578L125.553 34.5441L125.301 33.9081H125.288ZM117.603 35.7896C117.537 33.6166 119.286 32.5036 120.545 32.5036C121.525 32.5036 122.36 32.9938 122.638 33.6961L117.603 35.7896ZM111.482 41.2486H113.96V24.6861H111.482V41.2486ZM107.427 31.5761H107.348C106.791 30.9136 105.731 30.3173 104.38 30.3173C101.557 30.3173 98.9738 32.7951 98.9738 35.9751C98.9738 39.1551 101.557 41.5931 104.38 41.5931C105.731 41.5931 106.791 40.9968 107.348 40.3078H107.427V41.1161C107.427 43.2758 106.275 44.4286 104.42 44.4286C102.909 44.4286 101.968 43.3421 101.584 42.4278L99.4242 43.3288C100.047 44.8261 101.69 46.6546 104.42 46.6546C107.321 46.6546 109.772 44.9453 109.772 40.7848V30.6618H107.427V31.5761ZM104.578 39.3671C102.869 39.3671 101.438 37.9361 101.438 35.9751C101.438 34.0141 102.869 32.5433 104.578 32.5433C106.288 32.5433 107.586 34.0008 107.586 35.9751C107.586 37.9493 106.261 39.3671 104.578 39.3671ZM136.895 24.6861H130.972V41.2486H133.45V34.9681H136.909C139.651 34.9681 142.341 32.9806 142.341 29.8271C142.341 26.6736 139.651 24.6861 136.909 24.6861H136.895ZM136.948 32.6626H133.437V26.9783H136.948C138.803 26.9783 139.85 28.5153 139.85 29.8138C139.85 31.1123 138.803 32.6493 136.948 32.6493V32.6626ZM152.239 30.2908C150.45 30.2908 148.595 31.0858 147.826 32.8216L150.026 33.7358C150.49 32.8216 151.364 32.5168 152.278 32.5168C153.55 32.5168 154.862 33.2853 154.875 34.6501V34.8223C154.425 34.5706 153.471 34.1863 152.292 34.1863C149.92 34.1863 147.522 35.4848 147.522 37.9096C147.522 40.1223 149.456 41.5533 151.629 41.5533C153.286 41.5533 154.213 40.8113 154.783 39.9368H154.862V41.2221H157.247V34.8753C157.247 31.9338 155.048 30.2908 152.212 30.2908H152.239ZM151.934 39.3671C151.126 39.3671 149.999 38.9563 149.999 37.9626C149.999 36.6906 151.404 36.2003 152.623 36.2003C153.71 36.2003 154.226 36.4388 154.875 36.7568C154.69 38.2938 153.365 39.3803 151.934 39.3803V39.3671ZM165.953 30.6486L163.117 37.8301H163.037L160.096 30.6486H157.433L161.845 40.6921L159.328 46.2703H161.911L168.709 30.6486H165.966H165.953ZM143.693 41.2486H146.17V24.6861H143.693V41.2486Z" fill="white"/>
<path d="M29.455 27.232L15.3438 42.2045C15.781 43.8343 17.265 45.0267 19.0273 45.0267C19.7295 45.0267 20.392 44.8413 20.9617 44.4968L21.0015 44.4703L36.875 35.3145L29.4417 27.2188L29.455 27.232Z" fill="#EA4335"/>
<path d="M43.725 24.6875H43.7117L36.8615 20.6992L29.1367 27.576L36.888 35.3272L43.7117 31.392C44.9042 30.7427 45.7125 29.484 45.7125 28.0397C45.7125 26.5955 44.9175 25.3367 43.725 24.7007V24.6875Z" fill="#FBBC04"/>
<path d="M15.3434 13.7969C15.2639 14.1149 15.2109 14.4329 15.2109 14.7774V41.2376C15.2109 41.5821 15.2507 41.9001 15.3434 42.2181L29.9317 27.6299L15.3434 13.7969Z" fill="#4285F4"/>
<path d="M29.561 28.0004L36.8618 20.6997L21.0015 11.5042C20.4318 11.1597 19.756 10.9609 19.0273 10.9609C17.265 10.9609 15.781 12.1667 15.3438 13.7832L29.561 27.9872V28.0004Z" fill="#34A853"/>
</svg>
