<svg width="250" height="170" viewBox="0 0 250 170" fill="none" xmlns="http://www.w3.org/2000/svg">
<path d="M189.458 35.1086C171.061 -9.31335 106.672 -12.8088 76.568 35.1957C9.07063 24.027 8.99681 116.133 69.5264 116.133C86.2508 144.076 120.888 156.716 153.501 133.072C187.786 147.401 215.528 130.011 218.037 107.8C268.938 102.715 258.779 8.67597 189.458 35.1086Z" fill="url(#paint0_linear_802_4950)"/>
<ellipse cx="41" cy="142.98" rx="17" ry="17.5" fill="url(#paint1_linear_802_4950)"/>
<ellipse cx="9" cy="160.98" rx="9" ry="8.5" fill="url(#paint2_linear_802_4950)"/>
<path d="M74.5602 67.3398H78.193L82.1188 76.9297H82.275L86.2008 67.3398H89.8336V81.4805H86.982V72.2227H86.8648L83.1734 81.4219H81.2203L77.5289 72.1836H77.4117V81.4805H74.5602V67.3398ZM91.25 78.5117C91.25 76.1484 93.1641 75.3672 95.1953 75.25C95.957 75.2012 97.3828 75.1328 97.832 75.1133V74.2539C97.8125 73.375 97.207 72.8477 96.1328 72.8477C95.1563 72.8477 94.5313 73.2969 94.375 74.0195H91.6211C91.7969 72.1836 93.3984 70.7383 96.2109 70.7383C98.5156 70.7383 100.703 71.7734 100.703 74.332V81.4805H97.9688V80.0156H97.8906C97.3633 80.9922 96.3672 81.6758 94.7852 81.6758C92.7539 81.6758 91.25 80.6211 91.25 78.5117ZM94.0234 78.4336C94.0234 79.2539 94.6875 79.6836 95.6055 79.6836C96.9141 79.6836 97.8516 78.8047 97.832 77.6914V76.9102C97.3926 76.9297 96.1621 76.998 95.6641 77.0469C94.668 77.1445 94.0234 77.6133 94.0234 78.4336ZM107.276 85.6797C104.346 85.6797 102.549 84.3711 102.373 82.3594H105.225C105.381 83.1992 106.182 83.5898 107.334 83.5898C108.682 83.5898 109.58 83.0234 109.58 81.5391V79.6055H109.444C109.053 80.4648 108.116 81.3242 106.416 81.3242C104.014 81.3242 102.1 79.6445 102.1 76.1094C102.1 72.5156 104.073 70.7383 106.416 70.7383C108.194 70.7383 109.053 71.793 109.444 72.6523H109.561V70.875H112.432V81.5977C112.432 84.293 110.284 85.6797 107.276 85.6797ZM107.315 79.1562C108.76 79.1562 109.58 78.0234 109.58 76.1484C109.58 74.2539 108.76 73.043 107.315 73.043C105.85 73.043 105.069 74.3125 105.069 76.1484C105.069 77.9844 105.85 79.1562 107.315 79.1562ZM114.278 81.4805V70.875H117.169V81.4805H114.278ZM115.723 69.4883C114.845 69.4883 114.141 68.8242 114.141 68.0234C114.141 67.2031 114.845 66.5391 115.723 66.5391C116.583 66.5391 117.286 67.2031 117.286 68.0234C117.286 68.8242 116.583 69.4883 115.723 69.4883ZM123.78 81.6953C120.538 81.6953 118.585 79.4492 118.585 76.207C118.585 72.9648 120.558 70.7383 123.78 70.7383C126.515 70.7383 128.37 72.3398 128.488 74.7617H125.773C125.597 73.707 124.913 72.9844 123.82 72.9844C122.433 72.9844 121.515 74.1562 121.515 76.168C121.515 78.2188 122.413 79.3906 123.82 79.3906C124.835 79.3906 125.597 78.7656 125.773 77.6328H128.488C128.351 80.0352 126.593 81.6953 123.78 81.6953ZM129.377 78.5117C129.377 76.1484 131.291 75.3672 133.322 75.25C134.084 75.2012 135.509 75.1328 135.959 75.1133V74.2539C135.939 73.375 135.334 72.8477 134.259 72.8477C133.283 72.8477 132.658 73.2969 132.502 74.0195H129.748C129.923 72.1836 131.525 70.7383 134.338 70.7383C136.642 70.7383 138.83 71.7734 138.83 74.332V81.4805H136.095V80.0156H136.017C135.49 80.9922 134.494 81.6758 132.912 81.6758C130.88 81.6758 129.377 80.6211 129.377 78.5117ZM132.15 78.4336C132.15 79.2539 132.814 79.6836 133.732 79.6836C135.041 79.6836 135.978 78.8047 135.959 77.6914V76.9102C135.519 76.9297 134.289 76.998 133.791 77.0469C132.795 77.1445 132.15 77.6133 132.15 78.4336ZM143.527 67.3398V81.4805H140.637V67.3398H143.527ZM152.805 81.4805L148.763 67.3398H151.966L154.348 77.2227H154.466L157.063 67.3398H159.817L162.415 77.2422H162.532L164.915 67.3398H168.118L164.075 81.4805H161.204L158.509 72.1445H158.391L155.677 81.4805H152.805ZM172.777 81.6953C169.573 81.6953 167.581 79.4883 167.581 76.207C167.581 72.9258 169.573 70.7383 172.777 70.7383C175.98 70.7383 177.991 72.9258 177.991 76.207C177.991 79.4883 175.98 81.6953 172.777 81.6953ZM172.796 79.4492C174.28 79.4492 175.042 78.0625 175.042 76.207C175.042 74.332 174.28 72.9453 172.796 72.9453C171.292 72.9453 170.511 74.332 170.511 76.207C170.511 78.0625 171.292 79.4492 172.796 79.4492ZM179.408 81.4805V70.875H182.201V72.7109H182.318C182.709 71.4023 183.685 70.7188 184.877 70.7188C185.17 70.7188 185.541 70.7578 185.795 70.8164V73.3945C185.521 73.3164 184.974 73.2383 184.564 73.2383C183.255 73.2383 182.298 74.1562 182.298 75.4453V81.4805H179.408ZM189.691 67.3398V81.4805H186.801V67.3398H189.691ZM195.444 81.6562C193.022 81.6562 191.127 79.7227 191.127 76.1875C191.127 72.5547 193.1 70.7383 195.444 70.7383C197.221 70.7383 198.061 71.793 198.452 72.6523H198.549V67.3398H201.44V81.4805H198.588V79.7812H198.452C198.041 80.6602 197.162 81.6562 195.444 81.6562ZM196.342 79.3516C197.787 79.3516 198.608 78.082 198.608 76.168C198.608 74.2539 197.787 73.043 196.342 73.043C194.877 73.043 194.096 74.3125 194.096 76.168C194.096 78.043 194.877 79.3516 196.342 79.3516Z" fill="black"/>
<defs>
<linearGradient id="paint0_linear_802_4950" x1="132.452" y1="19.0344" x2="154.803" y2="238.082" gradientUnits="userSpaceOnUse">
<stop offset="0.0671484" stop-color="#ECFAFD"/>
<stop offset="1" stop-color="#97C1FF"/>
</linearGradient>
<linearGradient id="paint1_linear_802_4950" x1="40.2372" y1="129.959" x2="48.7194" y2="182" gradientUnits="userSpaceOnUse">
<stop offset="0.0671484" stop-color="#ECFAFD"/>
<stop offset="1" stop-color="#97C1FF"/>
</linearGradient>
<linearGradient id="paint2_linear_802_4950" x1="8.59619" y1="154.656" x2="12.3916" y2="180.037" gradientUnits="userSpaceOnUse">
<stop offset="0.0671484" stop-color="#ECFAFD"/>
<stop offset="1" stop-color="#97C1FF"/>
</linearGradient>
</defs>
</svg>
