<svg width="228" height="148" viewBox="0 0 228 148" fill="none" xmlns="http://www.w3.org/2000/svg">
<path d="M166.651 35.5862C148.009 -9.44843 82.7611 -12.9921 52.2556 35.6745C-16.1418 24.3518 -16.2166 117.729 45.12 117.729C62.0675 146.057 97.1664 158.871 130.214 134.9C164.956 149.428 193.069 131.798 195.611 109.28C247.191 104.125 236.896 8.78902 166.651 35.5862Z" fill="url(#paint0_linear_802_4945)"/>
<path d="M50.2691 73.4805V59.3398H59.7613V61.7617H53.1988V65.1992H59.273V67.6211H53.1988V71.0586H59.7809V73.4805H50.2691ZM64.4785 67.3477V73.4805H61.5879V62.875H64.3418V64.7305H64.459C64.9473 63.5 66.0801 62.7383 67.6426 62.7383C69.8496 62.7383 71.3145 64.2422 71.2949 66.7227V73.4805H68.4238V67.2305C68.4238 65.9219 67.7012 65.1406 66.5098 65.1406C65.2988 65.1406 64.4785 65.9414 64.4785 67.3477ZM82.5941 62.875L78.8637 73.4805H75.6215L71.9105 62.875H74.9574L77.184 70.4922H77.3012L79.5277 62.875H82.5941ZM83.6004 73.4805V62.875H86.491V73.4805H83.6004ZM85.0457 61.4883C84.1668 61.4883 83.4637 60.8242 83.4637 60.0234C83.4637 59.2031 84.1668 58.5391 85.0457 58.5391C85.9051 58.5391 86.6082 59.2031 86.6082 60.0234C86.6082 60.8242 85.9051 61.4883 85.0457 61.4883ZM88.3371 73.4805V62.875H91.1301V64.7109H91.2473C91.6379 63.4023 92.6145 62.7188 93.8059 62.7188C94.0988 62.7188 94.4699 62.7578 94.7238 62.8164V65.3945C94.4504 65.3164 93.9035 65.2383 93.4934 65.2383C92.1848 65.2383 91.2277 66.1562 91.2277 67.4453V73.4805H88.3371ZM100.164 73.6953C96.9605 73.6953 94.9684 71.4883 94.9684 68.207C94.9684 64.9258 96.9605 62.7383 100.164 62.7383C103.367 62.7383 105.379 64.9258 105.379 68.207C105.379 71.4883 103.367 73.6953 100.164 73.6953ZM100.183 71.4492C101.668 71.4492 102.429 70.0625 102.429 68.207C102.429 66.332 101.668 64.9453 100.183 64.9453C98.6793 64.9453 97.898 66.332 97.898 68.207C97.898 70.0625 98.6793 71.4492 100.183 71.4492ZM109.686 67.3477V73.4805H106.795V62.875H109.549V64.7305H109.666C110.154 63.5 111.287 62.7383 112.85 62.7383C115.057 62.7383 116.521 64.2422 116.502 66.7227V73.4805H113.631V67.2305C113.631 65.9219 112.908 65.1406 111.717 65.1406C110.506 65.1406 109.686 65.9414 109.686 67.3477ZM118.348 73.4805V62.875H121.102V64.7305H121.219C121.668 63.5 122.743 62.7383 124.168 62.7383C125.633 62.7383 126.707 63.5 127.059 64.7305H127.157C127.606 63.5195 128.797 62.7383 130.36 62.7383C132.332 62.7383 133.7 64.0469 133.7 66.3516V73.4805H130.809V66.918C130.809 65.707 130.106 65.1211 129.149 65.1211C128.055 65.1211 127.43 65.8828 127.43 66.9961V73.4805H124.618V66.8398C124.618 65.7852 123.954 65.1211 122.977 65.1211C122 65.1211 121.239 65.9023 121.239 67.1133V73.4805H118.348ZM140.331 73.6953C137.089 73.6953 135.096 71.5859 135.096 68.2266C135.096 64.9453 137.108 62.7383 140.214 62.7383C143.007 62.7383 145.194 64.4961 145.194 68.1094V68.9297H137.948C137.948 70.5312 138.905 71.5273 140.389 71.5273C141.366 71.5273 142.069 71.0977 142.362 70.4531H145.116C144.706 72.4062 142.948 73.6953 140.331 73.6953ZM137.948 67.1133H142.46C142.46 65.8242 141.561 64.9062 140.272 64.9062C138.944 64.9062 137.997 65.8926 137.948 67.1133ZM149.501 67.3477V73.4805H146.611V62.875H149.364V64.7305H149.482C149.97 63.5 151.103 62.7383 152.665 62.7383C154.872 62.7383 156.337 64.2422 156.318 66.7227V73.4805H153.446V67.2305C153.446 65.9219 152.724 65.1406 151.532 65.1406C150.321 65.1406 149.501 65.9414 149.501 67.3477ZM163.75 62.875V65.043H161.757V70.2188C161.757 71.0586 162.168 71.2734 162.754 71.293C163.046 71.293 163.554 71.2734 163.906 71.2344V73.5195C163.593 73.5781 163.086 73.6172 162.363 73.6172C160.273 73.6172 158.847 72.6797 158.867 70.6289V65.043H157.402V62.875H158.867V60.3359H161.757V62.875H163.75ZM164.658 70.5117C164.658 68.1484 166.572 67.3672 168.604 67.25C169.365 67.2012 170.791 67.1328 171.24 67.1133V66.2539C171.221 65.375 170.615 64.8477 169.541 64.8477C168.564 64.8477 167.939 65.2969 167.783 66.0195H165.029C165.205 64.1836 166.807 62.7383 169.619 62.7383C171.924 62.7383 174.111 63.7734 174.111 66.332V73.4805H171.377V72.0156H171.299C170.771 72.9922 169.775 73.6758 168.193 73.6758C166.162 73.6758 164.658 72.6211 164.658 70.5117ZM167.432 70.4336C167.432 71.2539 168.096 71.6836 169.014 71.6836C170.322 71.6836 171.26 70.8047 171.24 69.6914V68.9102C170.801 68.9297 169.57 68.998 169.072 69.0469C168.076 69.1445 167.432 69.6133 167.432 70.4336ZM178.809 59.3398V73.4805H175.918V59.3398H178.809ZM68.468 95.4805V81.3398H74.0148C77.2375 81.3398 79.0734 83.3125 79.0734 86.1055C79.0734 88.9375 77.1984 90.8711 73.9367 90.8711H71.3977V95.4805H68.468ZM71.3977 88.5078H73.468C75.2062 88.5078 76.0461 87.5312 76.0461 86.1055C76.0461 84.6992 75.2062 83.7422 73.468 83.7422H71.3977V88.5078ZM80.4703 95.4805V84.875H83.2633V86.7109H83.3805C83.7711 85.4023 84.7477 84.7188 85.9391 84.7188C86.232 84.7188 86.6031 84.7578 86.857 84.8164V87.3945C86.5836 87.3164 86.0367 87.2383 85.6266 87.2383C84.318 87.2383 83.3609 88.1562 83.3609 89.4453V95.4805H80.4703ZM92.2969 95.6953C89.0938 95.6953 87.1016 93.4883 87.1016 90.207C87.1016 86.9258 89.0938 84.7383 92.2969 84.7383C95.5 84.7383 97.5117 86.9258 97.5117 90.207C97.5117 93.4883 95.5 95.6953 92.2969 95.6953ZM92.3164 93.4492C93.8008 93.4492 94.5625 92.0625 94.5625 90.207C94.5625 88.332 93.8008 86.9453 92.3164 86.9453C90.8125 86.9453 90.0312 88.332 90.0312 90.207C90.0312 92.0625 90.8125 93.4492 92.3164 93.4492ZM104.514 84.875V87.043H102.522V92.2188C102.522 93.0586 102.932 93.2734 103.518 93.293C103.811 93.293 104.319 93.2734 104.67 93.2344V95.5195C104.358 95.5781 103.85 95.6172 103.127 95.6172C101.037 95.6172 99.6117 94.6797 99.6312 92.6289V87.043H98.1664V84.875H99.6312V82.3359H102.522V84.875H104.514ZM110.618 95.6953C107.376 95.6953 105.384 93.5859 105.384 90.2266C105.384 86.9453 107.395 84.7383 110.501 84.7383C113.294 84.7383 115.481 86.4961 115.481 90.1094V90.9297H108.235C108.235 92.5312 109.192 93.5273 110.677 93.5273C111.653 93.5273 112.356 93.0977 112.649 92.4531H115.403C114.993 94.4062 113.235 95.6953 110.618 95.6953ZM108.235 89.1133H112.747C112.747 87.8242 111.848 86.9062 110.559 86.9062C109.231 86.9062 108.284 87.8926 108.235 89.1133ZM121.663 95.6953C118.421 95.6953 116.468 93.4492 116.468 90.207C116.468 86.9648 118.441 84.7383 121.663 84.7383C124.398 84.7383 126.253 86.3398 126.37 88.7617H123.655C123.48 87.707 122.796 86.9844 121.702 86.9844C120.316 86.9844 119.398 88.1562 119.398 90.168C119.398 92.2188 120.296 93.3906 121.702 93.3906C122.718 93.3906 123.48 92.7656 123.655 91.6328H126.37C126.234 94.0352 124.476 95.6953 121.663 95.6953ZM133.353 84.875V87.043H131.361V92.2188C131.361 93.0586 131.771 93.2734 132.357 93.293C132.65 93.293 133.158 93.2734 133.509 93.2344V95.5195C133.197 95.5781 132.689 95.6172 131.966 95.6172C129.877 95.6172 128.451 94.6797 128.47 92.6289V87.043H127.005V84.875H128.47V82.3359H131.361V84.875H133.353ZM134.77 95.4805V84.875H137.66V95.4805H134.77ZM136.215 83.4883C135.336 83.4883 134.633 82.8242 134.633 82.0234C134.633 81.2031 135.336 80.5391 136.215 80.5391C137.074 80.5391 137.777 81.2031 137.777 82.0234C137.777 82.8242 137.074 83.4883 136.215 83.4883ZM144.272 95.6953C141.069 95.6953 139.077 93.4883 139.077 90.207C139.077 86.9258 141.069 84.7383 144.272 84.7383C147.475 84.7383 149.487 86.9258 149.487 90.207C149.487 93.4883 147.475 95.6953 144.272 95.6953ZM144.291 93.4492C145.776 93.4492 146.538 92.0625 146.538 90.207C146.538 88.332 145.776 86.9453 144.291 86.9453C142.788 86.9453 142.006 88.332 142.006 90.207C142.006 92.0625 142.788 93.4492 144.291 93.4492ZM153.794 89.3477V95.4805H150.903V84.875H153.657V86.7305H153.774C154.262 85.5 155.395 84.7383 156.958 84.7383C159.165 84.7383 160.63 86.2422 160.61 88.7227V95.4805H157.739V89.2305C157.739 87.9219 157.016 87.1406 155.825 87.1406C154.614 87.1406 153.794 87.9414 153.794 89.3477Z" fill="black"/>
<defs>
<linearGradient id="paint0_linear_802_4945" x1="108.885" y1="19.2903" x2="131.554" y2="241.357" gradientUnits="userSpaceOnUse">
<stop offset="0.0671484" stop-color="#ECFAFD"/>
<stop offset="1" stop-color="#97C1FF"/>
</linearGradient>
</defs>
</svg>
